<svg width="579" height="110" viewBox="0 0 579 110" fill="none" xmlns="http://www.w3.org/2000/svg">
<rect width="579" height="110" rx="15" fill="#D9C8E8"/>
<path d="M138.16 26.7801V75.0201C138.16 78.2601 136.99 81.0201 134.65 83.3001C132.37 85.5801 129.64 86.7201 126.46 86.7201H111.7C109.9 86.7201 109 85.8201 109 84.0201V73.6701C109 71.8701 109.9 70.9701 111.7 70.9701H120.61C121.81 70.9701 122.41 70.3701 122.41 69.1701V26.7801C122.41 24.98 123.31 24.08 125.11 24.08H135.46C137.26 24.08 138.16 24.98 138.16 26.7801Z" fill="black"/>
<path d="M180.556 84.0201C180.556 85.8201 179.656 86.7201 177.856 86.7201H167.506C165.706 86.7201 164.806 85.8201 164.806 84.0201V72.7701C164.806 71.57 164.206 70.9701 163.006 70.9701H160.036C158.836 70.9701 158.236 71.57 158.236 72.7701V84.0201C158.236 85.8201 157.336 86.7201 155.536 86.7201H145.186C143.386 86.7201 142.486 85.8201 142.486 84.0201V30.83C142.486 28.97 143.146 27.38 144.466 26.06C145.786 24.74 147.376 24.08 149.236 24.08H173.806C175.666 24.08 177.256 24.74 178.576 26.06C179.896 27.38 180.556 28.97 180.556 30.83V84.0201ZM164.806 58.37V41.63C164.806 40.43 164.206 39.83 163.006 39.83H160.036C158.836 39.83 158.236 40.43 158.236 41.63V58.37C158.236 59.57 158.836 60.17 160.036 60.17H163.006C164.206 60.17 164.806 59.57 164.806 58.37Z" fill="black"/>
<path d="M245.24 84.0201C245.24 85.8201 244.34 86.7201 242.54 86.7201H232.19C230.39 86.7201 229.49 85.8201 229.49 84.0201V41.63C229.49 40.43 228.89 39.83 227.69 39.83H224.72C223.52 39.83 222.92 40.43 222.92 41.63V84.0201C222.92 85.8201 222.02 86.7201 220.22 86.7201H209.87C208.07 86.7201 207.17 85.8201 207.17 84.0201V41.63C207.17 40.43 206.57 39.83 205.37 39.83H202.4C201.2 39.83 200.6 40.43 200.6 41.63V84.0201C200.6 85.8201 199.7 86.7201 197.9 86.7201H187.55C185.75 86.7201 184.85 85.8201 184.85 84.0201V35.78C184.85 32.6 185.99 29.87 188.27 27.5901C190.55 25.25 193.31 24.08 196.55 24.08H211.22C214.82 24.08 217.79 25.46 220.13 28.22C222.47 25.46 225.44 24.08 229.04 24.08H233.54C236.78 24.08 239.54 25.25 241.82 27.5901C244.1 29.87 245.24 32.6 245.24 35.78V84.0201Z" fill="black"/>
<path d="M265.287 84.0201C265.287 85.8201 264.387 86.7201 262.587 86.7201H252.237C250.437 86.7201 249.537 85.8201 249.537 84.0201V26.7801C249.537 24.98 250.437 24.08 252.237 24.08H262.587C264.387 24.08 265.287 24.98 265.287 26.7801V84.0201Z" fill="black"/>
<path d="M304.946 84.0201C304.946 85.8201 304.046 86.7201 302.246 86.7201H281.276C278.036 86.7201 275.276 85.5801 272.996 83.3001C270.716 81.0201 269.576 78.2601 269.576 75.0201V35.78C269.576 32.6 270.716 29.87 272.996 27.5901C275.276 25.25 278.036 24.08 281.276 24.08H302.246C304.046 24.08 304.946 24.98 304.946 26.7801V37.1301C304.946 38.93 304.046 39.83 302.246 39.83H287.126C285.926 39.83 285.326 40.43 285.326 41.63V46.13C285.326 47.33 285.926 47.93 287.126 47.93H302.246C304.046 47.93 304.946 48.83 304.946 50.63V60.98C304.946 62.78 304.046 63.68 302.246 63.68H287.126C285.926 63.68 285.326 64.28 285.326 65.48V69.1701C285.326 70.3701 285.926 70.9701 287.126 70.9701H302.246C304.046 70.9701 304.946 71.8701 304.946 73.6701V84.0201Z" fill="black"/>
<path d="M332.145 40.1372C332.872 38.6286 335.021 38.6286 335.748 40.1372L339.823 48.5904C340.019 48.998 340.348 49.3269 340.756 49.5234L349.209 53.5985C350.718 54.3258 350.718 56.4744 349.209 57.2016L340.756 61.2767C340.348 61.4732 340.019 61.8021 339.823 62.2098L335.748 70.6629C335.021 72.1716 332.872 72.1716 332.145 70.6629L328.07 62.2098C327.873 61.8021 327.544 61.4732 327.137 61.2767L318.683 57.2016C317.175 56.4744 317.175 54.3258 318.683 53.5985L327.137 49.5234C327.544 49.3269 327.873 48.998 328.07 48.5904L332.145 40.1372Z" fill="black"/>
<path d="M392.106 84.0201C392.106 85.8201 391.206 86.7201 389.406 86.7201H365.646C363.846 86.7201 362.946 85.8201 362.946 84.0201V26.7801C362.946 24.98 363.846 24.08 365.646 24.08H375.996C377.796 24.08 378.696 24.98 378.696 26.7801V69.1701C378.696 70.3701 379.296 70.9701 380.496 70.9701H389.406C391.206 70.9701 392.106 71.8701 392.106 73.6701V84.0201Z" fill="black"/>
<path d="M425.593 84.0201C425.593 85.8201 424.693 86.7201 422.893 86.7201H399.133C397.333 86.7201 396.433 85.8201 396.433 84.0201V26.7801C396.433 24.98 397.333 24.08 399.133 24.08H409.483C411.283 24.08 412.183 24.98 412.183 26.7801V69.1701C412.183 70.3701 412.783 70.9701 413.983 70.9701H422.893C424.693 70.9701 425.593 71.8701 425.593 73.6701V84.0201Z" fill="black"/>
<path d="M467.989 75.0201C467.989 78.2601 466.849 81.0201 464.569 83.3001C462.289 85.5801 459.529 86.7201 456.289 86.7201H441.619C438.379 86.7201 435.619 85.5801 433.339 83.3001C431.059 81.0201 429.919 78.2601 429.919 75.0201V35.78C429.919 32.6 431.059 29.87 433.339 27.5901C435.619 25.25 438.379 24.08 441.619 24.08H456.289C459.529 24.08 462.289 25.25 464.569 27.5901C466.849 29.87 467.989 32.6 467.989 35.78V75.0201ZM452.239 69.1701V41.63C452.239 40.43 451.639 39.83 450.439 39.83H447.469C446.269 39.83 445.669 40.43 445.669 41.63V69.1701C445.669 70.3701 446.269 70.9701 447.469 70.9701H450.439C451.639 70.9701 452.239 70.3701 452.239 69.1701Z" fill="black"/>
<path d="M510.352 26.7801V75.0201C510.352 78.2601 509.212 81.0201 506.932 83.3001C504.652 85.5801 501.892 86.7201 498.652 86.7201H474.982C473.182 86.7201 472.282 85.8201 472.282 84.0201V73.6701C472.282 71.8701 473.182 70.9701 474.982 70.9701H492.802C494.002 70.9701 494.602 70.3701 494.602 69.1701V67.64C494.602 66.44 494.002 65.84 492.802 65.84L483.982 65.93C480.742 65.93 477.982 64.7901 475.702 62.51C473.422 60.17 472.282 57.41 472.282 54.23V26.7801C472.282 24.98 473.182 24.08 474.982 24.08H485.332C487.132 24.08 488.032 24.98 488.032 26.7801V48.38C488.032 49.58 488.632 50.18 489.832 50.18H492.802C494.002 50.18 494.602 49.58 494.602 48.38V26.7801C494.602 24.98 495.502 24.08 497.302 24.08H507.652C509.452 24.08 510.352 24.98 510.352 26.7801Z" fill="black"/>
<path d="M552.715 75.0201C552.715 78.2601 551.576 81.0201 549.296 83.3001C547.016 85.5801 544.256 86.7201 541.016 86.7201H517.346C515.546 86.7201 514.646 85.8201 514.646 84.0201V26.7801C514.646 24.98 515.546 24.08 517.346 24.08H541.016C544.256 24.08 547.016 25.25 549.296 27.5901C551.576 29.87 552.715 32.6 552.715 35.78V75.0201ZM536.965 69.1701V41.63C536.965 40.43 536.365 39.83 535.165 39.83H532.195C530.995 39.83 530.396 40.43 530.396 41.63V69.1701C530.396 70.3701 530.995 70.9701 532.195 70.9701H535.165C536.365 70.9701 536.965 70.3701 536.965 69.1701Z" fill="black"/>
<path d="M89.4966 46.727C89.3115 48.5381 89.4139 50.3475 89.6996 52.1424C90.0301 54.2212 90.5243 56.2748 90.7417 58.3697C90.9231 60.1143 90.8944 61.8231 90.6231 63.6576C90.0805 67.3444 88.228 71.0994 85.6174 74.0067C83.7794 76.0532 81.5157 77.7348 79.2911 79.3357C77.1909 80.8485 75.0006 82.2427 72.7027 83.4358C68.7445 85.4912 64.4485 86.9234 59.9531 86.9484C51.0773 86.8999 42.7766 81.8026 36.4234 75.9723C33.5019 73.2915 31.2434 69.8257 30.1617 65.9987C29.6515 64.1912 29.3801 62.2561 29.3389 60.6265C29.285 58.4417 29.4916 56.7312 29.8239 54.4746C30.0953 52.6347 30.4132 50.8074 30.4906 48.946C30.566 47.1349 30.3109 45.3435 29.9282 43.5792C29.4286 41.2848 28.6938 39.0677 28.3866 36.7318C28.1081 34.6045 28.0632 32.4018 28.2842 30.4415C28.4656 28.8191 28.7837 27.2758 29.4143 25.8833C29.691 25.2724 29.7737 25.1412 30.2192 24.5644C30.3361 24.4117 30.8536 23.995 31.0493 23.9393C32.1418 23.6232 33.351 24.2698 34.2602 24.7945C35.6993 25.6245 37.0055 26.6864 38.2595 27.7717C39.7294 29.0437 41.1236 30.3966 42.5195 31.7477C43.9569 33.1438 45.274 34.5902 47.4318 34.6603C48.3068 34.6891 49.1477 34.3926 50.0047 34.2451C50.9876 34.0763 51.9793 33.9613 52.9711 33.8661C55.4345 33.6272 57.9121 33.5193 60.3879 33.505H60.4868C64.0263 33.5193 67.6863 33.656 71.1 34.4716C73.0998 34.9496 74.8138 34.3118 76.2709 32.9248C77.4531 31.7981 78.6102 30.6445 79.8033 29.5287C81.1185 28.2999 82.4661 27.0943 83.9124 26.02C85.003 25.2095 86.2661 24.286 87.6137 23.9681C88.6054 23.7344 89.3312 23.9734 89.7895 24.5644C90.598 25.6121 90.9718 26.6523 91.3059 28.0125C92.2438 31.8144 91.9707 36.3564 90.8639 40.5141C90.3194 42.5604 89.7105 44.6106 89.4966 46.727Z" fill="white"/>
<path d="M90.8659 40.514C90.3213 42.5604 89.7132 44.6109 89.499 46.7275C89.3141 48.5383 89.4166 50.3475 89.7025 52.1418C90.0327 54.2206 90.526 56.2751 90.7446 58.3702C90.9251 60.1146 90.8968 61.8228 90.626 63.6575C90.0826 67.3448 88.2302 71.0994 85.6203 74.0073C83.7814 76.0538 81.5179 77.7349 79.2934 79.3351C77.193 80.8491 75.0037 82.2432 72.7049 83.4361C68.7468 85.4908 64.4502 86.9238 59.9556 86.9482C51.0794 86.8995 42.7789 81.8023 36.4251 75.9729C33.5037 73.2914 31.2455 69.8253 30.1643 65.9979C29.6533 64.1915 29.3823 62.2556 29.3406 60.6269C29.2867 58.4416 29.4942 56.7308 29.826 54.474C30.097 52.6351 30.4151 50.807 30.4933 48.9467C30.5687 47.1347 30.3126 45.3431 29.9311 43.5797C29.4308 41.2851 28.6962 39.0675 28.3887 36.7325C28.1098 34.6052 28.0653 32.4022 28.2864 30.442C28.4683 28.8189 28.7865 27.2751 29.416 25.8839C29.6939 25.2718 29.7761 25.1411 30.2209 24.564C30.3383 24.4118 30.856 23.9951 31.0514 23.9399C32.1433 23.6231 33.3527 24.2701 34.2627 24.7947C35.7011 25.6251 37.0075 26.686 38.2612 27.7713C39.7321 29.044 41.1261 30.3961 42.5214 31.7483C43.9598 33.1436 45.2756 34.5903 47.434 34.6604C48.309 34.6887 49.1502 34.392 50.0076 34.2451C50.9905 34.0766 51.9813 33.962 52.9735 33.8664C55.4365 33.6276 57.9145 33.5197 60.3896 33.5049H60.4894C64.0284 33.5197 67.6885 33.6559 71.102 34.4715C73.1013 34.9502 74.8162 34.3112 76.2736 32.9252C77.4558 31.7982 78.6126 30.6443 79.8057 29.5294C81.1202 28.2998 82.4683 27.0946 83.9148 26.0201C85.0054 25.2098 86.2688 24.2863 87.6155 23.9682C88.6077 23.735 89.3331 23.9735 89.7914 24.564C90.6003 25.6115 90.9738 26.6524 91.3082 28.0126C92.2463 31.8144 91.9727 36.3563 90.8659 40.514ZM91.5778 47.8196C91.6006 47.6146 91.6358 47.4138 91.6625 47.2101C91.6706 47.1414 91.6762 47.0902 91.6815 47.0537V47.0484C91.6908 47.0134 91.7003 46.9702 91.7112 46.9164C91.8326 46.3231 91.9713 45.7339 92.1196 45.1475C92.8046 42.4594 93.5151 39.8156 93.7954 37.0453C94.061 34.4244 94.0785 31.7725 93.7859 29.1532C93.5501 27.0568 93.1078 24.9578 92.3326 22.992C91.8298 21.7181 91.1086 20.312 89.9531 19.5071C87.594 17.8598 84.202 20.6329 82.4467 22.039C80.7656 23.3858 79.1977 24.8741 77.6459 26.3665C76.3653 27.6014 74.9686 29.4821 73.1163 29.7612C72.1496 29.9067 71.2921 29.6385 70.3606 29.4593C69.3508 29.2665 68.3262 29.1463 67.3043 29.0426C65.363 28.8458 63.4163 28.7326 61.4669 28.6841C61.3982 28.6823 61.3281 28.6813 61.2592 28.6787C60.8091 28.6678 60.3559 28.6611 59.9058 28.657C59.5201 28.6611 59.1359 28.6664 58.753 28.6759C58.6924 28.6777 58.6331 28.6787 58.5737 28.6813C55.198 28.7622 51.833 29.0426 48.5193 29.7153C46.4553 30.1359 45.1218 29.0345 43.7442 27.6998C42.4176 26.415 41.095 25.1209 39.7226 23.8858C38.3691 22.6632 36.9685 21.4687 35.4301 20.4818C34.3193 19.7713 32.9239 18.9854 31.5583 19.0232C28.5709 19.1068 27.3399 23.5113 26.806 25.7936C25.6224 30.8492 25.8192 36.2107 26.8965 41.2649C27.1728 42.5619 27.5611 43.8291 27.8752 45.1153C27.9884 45.5777 28.0963 46.0427 28.1878 46.5091C28.1906 46.5226 28.1959 46.5455 28.1959 46.5455L28.2122 46.6277L28.2217 46.714C28.2634 46.989 28.3024 47.2628 28.3335 47.5378C28.3402 47.6106 28.3618 47.9422 28.3672 47.9422C28.3711 48.0339 28.3727 48.1229 28.3727 48.2146C28.3741 48.3979 28.3672 48.58 28.366 48.7633V48.8119C28.3632 48.8239 28.3618 48.8388 28.3604 48.855C28.2769 49.688 28.169 50.5159 28.0464 51.345C27.348 55.9894 26.8371 60.6026 27.6284 65.2781C28.3943 69.7863 30.132 74.095 33.0211 77.6688C34.7964 79.8623 36.9697 81.7241 39.1928 83.4484C41.412 85.1699 43.763 86.7298 46.253 88.0334C50.4674 90.2431 55.1604 91.7704 59.9501 91.8001H59.961C64.0945 91.7746 68.1415 90.5666 71.8584 88.814C76.4516 86.6489 80.8248 83.6546 84.6051 80.2721C91.6896 73.9319 94.1149 64.2372 92.5173 55.0402C92.179 53.0867 91.7449 51.1858 91.5507 49.2068C91.5629 49.2567 91.5277 48.6513 91.5293 48.5099C91.5305 48.4371 91.5467 48.1661 91.5467 48.1269C91.556 48.0245 91.5655 47.922 91.5778 47.8196Z" fill="black"/>
<path d="M81.6431 62.2381C77.9023 62.1608 73.9585 63.2048 70.7423 65.077C70.0757 65.465 69.8135 63.1131 70.4585 62.7394C73.7465 60.8241 77.8196 59.7335 81.6431 59.8125C82.4067 59.8287 82.3815 62.2525 81.6431 62.2381Z" fill="black"/>
<path d="M82.4606 67.8097C78.8186 67.0067 74.7043 67.2401 71.1898 68.435C70.3776 68.7117 70.2483 66.3202 70.9058 66.0976C74.5317 64.8632 78.6983 64.5542 82.4606 65.3841C83.2692 65.5638 83.0858 67.9482 82.4606 67.8097Z" fill="black"/>
<path d="M49.2663 65.0769C46.0501 63.2047 42.1064 62.1608 38.3656 62.238C37.6201 62.2525 37.6092 59.8269 38.3656 59.8126C42.1891 59.7335 46.2623 60.8241 49.5503 62.7393C50.2024 63.1185 49.9238 65.4615 49.2663 65.0769Z" fill="black"/>
<path d="M48.8171 68.435C45.3046 67.2402 41.1884 67.0068 37.5481 67.8098C36.9139 67.9499 36.7468 65.5621 37.5481 65.3842C41.3104 64.5542 45.477 64.8632 49.1011 66.0974C49.7676 66.3239 49.6221 68.71 48.8171 68.435Z" fill="black"/>
<path d="M77.7191 51.0644C74.3394 49.5029 70.0777 49.7959 67.0574 51.9574C66.4376 52.4012 66.1141 51.0195 66.0728 50.6871C65.9865 50.0061 66.0063 48.8957 66.6316 48.4502C69.9196 46.0946 74.4922 45.8684 78.1449 47.5572C79.1456 48.019 78.8186 51.573 77.7191 51.0644Z" fill="black"/>
<path d="M53.9108 50.82C53.8712 51.1452 53.5371 52.5484 52.9262 52.0903C49.9617 49.8569 45.7051 49.449 42.2895 50.9296C41.1504 51.4238 40.8737 47.8501 41.8637 47.4206C45.5525 45.8234 50.1215 46.1467 53.352 48.5813C53.9702 49.0467 53.9971 50.1336 53.9108 50.82Z" fill="black"/>
<path d="M72.9776 74.1251C70.9706 75.5751 68.5469 77.0952 65.983 77.1454C62.623 77.2101 60.8408 74.3947 59.9927 71.2863C59.5183 73.0706 58.7241 74.7881 57.3498 75.9776C54.2162 78.6889 49.7748 76.1086 47.0313 74.1251C46.2443 73.5557 46.6682 70.6574 47.3887 71.1804C49.2699 72.5405 51.4906 73.9815 53.8893 74.0856C55.1092 74.1394 56.2844 73.755 57.1502 72.8817C57.5168 72.5116 57.9032 71.9422 58.0756 71.6168C58.2284 71.333 58.3613 71.0366 58.4816 70.7384C58.6128 70.4149 58.6613 70.2621 58.6991 70.1382C58.8482 69.6461 58.9722 69.1482 59.0745 68.6433C59.0745 68.6433 59.0745 68.6416 59.0764 68.6362V68.6343C59.0764 68.6326 59.0782 68.629 59.0782 68.6254C59.0799 68.6164 59.0818 68.6057 59.0854 68.5912C59.0871 68.5824 59.0908 68.5696 59.0925 68.5518C59.0908 68.5518 59.0908 68.5499 59.0908 68.5499C57.7594 68.0918 56.8664 66.7172 55.934 65.6841C55.1865 64.8542 54.8775 63.9126 55.0194 62.7699C55.2062 61.2876 56.3004 60.5133 57.7235 60.4396C57.7397 60.4396 57.754 60.4378 57.7703 60.4378H57.7863C59.2867 60.4378 60.794 60.3874 62.2925 60.4378C63.7388 60.4863 64.8565 61.2769 65.0433 62.7699C65.1852 63.9126 64.8762 64.8542 64.1288 65.6841C63.1837 66.7335 62.2799 68.1296 60.9198 68.5679H60.9181V68.5696C60.9181 68.5696 60.9181 68.5715 60.9198 68.5732V68.5769C60.9215 68.5805 60.9215 68.5824 60.9215 68.5858C60.9234 68.5877 60.9234 68.5877 60.9234 68.5895V68.5931C60.9234 68.5967 60.9252 68.6002 60.9252 68.6038C60.9467 68.708 60.9666 68.8104 60.9882 68.9129C61.051 69.1985 61.1192 69.4807 61.1982 69.7609C61.2378 69.9065 61.2809 70.0484 61.3258 70.1922C61.3294 70.2047 61.3384 70.2335 61.3457 70.2587C61.342 70.2497 61.3384 70.2407 61.3348 70.2318C61.3457 70.2621 61.3529 70.2837 61.3564 70.2946C61.3583 70.2965 61.3583 70.2999 61.36 70.3018C61.3743 70.3414 61.3888 70.3809 61.4031 70.4185C61.8021 71.4822 62.2386 72.3932 63.1424 73.1388C66.0495 75.5355 70.146 72.9681 72.6201 71.1804C73.3513 70.6503 73.752 73.5646 72.9776 74.1251Z" fill="black"/>
</svg>
