<?xml version="1.0" encoding="UTF-8"?><svg id="Layer_2" xmlns="http://www.w3.org/2000/svg" viewBox="0 0 511.5 540"><defs><style>.cls-1{fill:#fff;}</style></defs><g id="Layer_1-2"><g><g><path class="cls-1" d="M16.63,101.42c-.01,.16-.03,.3-.04,.46,.03-.38,.09-2.5,.04-.46Z"/><path class="cls-1" d="M16.66,108.4c-.01-.16-.01-.25-.01-.29,0,.09,.01,.2,.01,.29Z"/><path class="cls-1" d="M469.13,355.74c.04-.22,.05-.26,0,0h0Z"/><path class="cls-1" d="M493.45,91.99c-1.56-6.33-4-12.65-7.98-19.03-8.12-13.03-19.84-23.22-33.87-29.46-32.16-14.28-69.33-1.65-89.21,26.44-.99,1.52-2.38,2.38-4.17,2.56-18.9-4.05-38.23-5.97-57.47-7.34-48.63-3.49-99.07-3.41-146.54,8.64-1.8-.18-3.19-1.04-4.18-2.56-11.19-16.44-28.06-28.79-47.86-32.41-31.69-5.78-64.86,10.33-79.06,39.52-3.38,6.96-5.34,13.64-6.04,18.95-.18,1.37-.34,2.76-.46,4.13v.12c-.05,2.17-.1,4.37,.03,6.55v.03c.1,.3,.51,4.01,.61,4.65,.16,.99,.36,2.12,.94,4.4,4.01,15.91,14.23,30.02,27.52,39.87,8.41,6.25,7.17,23.04,3.64,31.45-1.74,4.14-2.2,5.4-3.46,10.15-.56,2.07-1.07,4.17-1.54,6.27-.21,.92-.39,1.85-.59,2.77-.03,.14-.05,.27-.08,.38,.01-.05,.03-.1,.01-.14-.05,.18-.1,.49-.13,.68,.01-.03,.03-.05,.04-.09-.01,.1-.04,.23-.05,.36-3.42,20.15-3.7,35.64-3.84,56.22-.07,9.33,.01,18.67,.03,28,0,4.22,.04,8.43,.16,12.65,.05,1.93,.13,3.84,.22,5.77,.03,.48,.05,1.2,.09,1.81,.01,.1,.01,.17,.01,.22,0,.08,0,.14,.01,.22,0,.05,.01,.12,.01,.17,.51,7.35,1.22,14.68,2.24,22,.47,3.37,1,6.74,1.6,10.1,.01,0,.56,2.88,.69,3.51,.35,1.72,.73,3.42,1.12,5.13,1.57,6.92,3.46,13.77,5.62,20.54,.09,.27,.21,.64,.31,.96,.01,.03,.03,.05,.04,.09,0,.03,.01,.06,.03,.09,.04,.1,.07,.21,.1,.31,.01,.01,.01,.03,.01,.04,.01,.03,.03,.05,.03,.08,.03,.08,.07,.17,.09,.25,.13,.39,.27,.78,.42,1.17,.57,1.55,1.15,3.11,1.74,4.66,1.18,3.07,2.43,6.12,3.76,9.12,9.84,22.34,24.73,43.7,44.53,60.49,21.28,18.05,46.91,30.97,73.7,38.59,32.94,9.37,67.63,12.18,101.76,11.12,31.47-.98,63.44-5.61,92.62-17.91,23.72-10,45.14-24.84,61.36-44.5,4.01-4.86,7.72-9.96,11.14-15.25,3.72-5.75,4.95-7.91,8.14-14.32,3.02-6.09,5.71-12.35,8.11-18.72,.53-1.42,1.05-2.85,1.56-4.3,0,0,0-.01,.01-.03,0-.01,0-.03,.01-.05h0s.01-.03,.01-.04c.01-.03,.03-.06,.04-.1-.01,.01-.01,.03-.03,.04,.16-.49,.59-1.77,.74-2.26,1.02-3.18,1.95-6.35,2.82-9.55,1.02-3.74,1.95-7.5,2.8-11.29,.33-1.43,.64-2.88,.94-4.32,.07-.33,.39-1.94,.62-3.02,.01-.01,.01-.04,.01-.06,.01-.03,.01-.04,.01-.06h-.01s0-.01,.01-.03c.01-.04,.03-.07,.03-.1-.01-.01,0-.03,0-.04,.01-.04,.03-.08,.03-.13v-.03c.14-.77,.36-2.08,.42-2.32,.17-1,.34-1.99,.49-2.99,.25-1.51,.47-3.02,.69-4.53,.53-3.58,.99-7.16,1.39-10.75,.44-3.93,.82-7.87,1.13-11.82,.12-1.38,.21-2.77,.3-4.15,0,.03,0,.04-.01,.05,0-.14,.2-3.12,.23-3.84,.38-8.16,.46-16.32,.48-24.48,.07-19.29,.48-38.63-.56-57.91-.01,0-.33-4.78-.39-5.67-.2-2.37-.42-4.74-.66-7.09-.49-4.59-1.08-9.19-1.87-13.75-.05-.31-.09-.53-.1-.69,.1,.4,.17,.66,.21,.82-.05-.29-.2-.98-.25-1.09h0c-.08-.33-.16-.68-.26-1.13-.2-.91-.39-1.83-.6-2.75-.48-2.08-1-4.17-1.57-6.22-.94-3.33-1.61-5.28-3.32-9.25-2.19-5.09-3.03-11.56-2.36-17.58,.46-5.36,2.1-10.69,6.01-13.86,7.29-5.88,13.69-13.16,18.29-21.36,4.58-8.2,7.15-17.01,8.04-24.94,.6-5.26,.09-11.06-1.33-16.78ZM144.38,214.52c12.8-5.99,27.33-6.78,40.56-1.63,9.7,3.79,7.15,38.28-4.11,33.89-9.01-3.51-22.6-2.94-32.33,1.61-10.69,5.01-13.64-29.43-4.11-33.88Zm207.25,203.52c-16.3,6.57-34.31,12.27-52.12,10.58-21.76-2.07-36.22-16.62-43.74-34.99-3.94,10.3-10.01,19.68-19.13,26.28-22.48,16.26-53.45,7.51-76.72-1.87-7.76-3.12-5.62-30.71,3.29-27.11,15.01,6.05,31.27,10.91,47.64,9.68,8.75-.66,16.96-3.38,23.9-8.86,2.66-2.11,4.5-4.11,6.85-7.35,.46-.64,2.08-3.29,2.16-3.29h0c.7-1.31,1.35-2.64,1.95-3.98,.39-.91,.74-1.82,1.12-2.73,.05-.12,.14-.36,.25-.64,0,0,.01-.01,.01-.03,.01-.01,.01-.03,.01-.05,.04-.05,.07-.13,.09-.22,.03-.08,.05-.14,.06-.21-.03,.07-.06,.14-.09,.22,.22-.77,.77-2.55,.92-3.15,.27-1.04,.47-2.1,.72-3.14-3.61-.01-7.21-.07-10.8-.21-20.4-.77-23.2-26.96-18.96-42.54,2.46-9.05,9.11-15.67,18.69-16.14,5.35-.26,10.78,0,16.13,0,12.99,0,29.53-3.12,36.6,10.86,7.6,15.07,5.05,46.09-15.92,47.78-.16,.01-.33,.03-.49,.04h-.17c-3.72,0-7.46,.05-11.19,.09,.13,.56,.25,1.13,.38,1.69,.3,1.28,.68,2.54,1.03,3.8,.06,.27,.16,.55,.25,.82-.04-.12-.09-.22-.13-.34-.38-.96,.12,.43,.31,.94-.05-.2-.12-.39-.18-.59,.22,.56,.42,1.13,.64,1.68,.62,1.51,1.29,2.98,1.99,4.45,.16,.34,.83,1.54,.99,1.85-.03-.03-.05-.07-.07-.09,.03,.07,.05,.1,.08,.13h.01c.26,.47,.55,.91,.83,1.34,1,1.44,2,2.88,3.12,4.23,2.3,2.76,4.01,4.33,7.35,6.6,20.36,13.73,48.29,5.73,69.04-2.64,9.01-3.63,10.95,24.03,3.29,27.11Zm11.43-169.64c-9.74-4.54-23.33-5.13-32.33-1.61-11.36,4.43-13.67-30.16-4.11-33.89,13.22-5.15,27.78-4.36,40.56,1.63,9.66,4.52,6.46,38.83-4.11,33.88Z"/><path d="M351.63,418.05c-16.3,6.57-34.31,12.27-52.12,10.58-21.76-2.07-36.22-16.62-43.74-34.99-3.94,10.3-10.01,19.68-19.13,26.28-22.48,16.26-53.45,7.51-76.72-1.87-7.76-3.12-5.62-30.71,3.29-27.11,15.01,6.05,31.27,10.91,47.64,9.68,8.75-.66,16.96-3.38,23.9-8.86,2.66-2.11,4.5-4.11,6.85-7.35,.46-.64,2.08-3.29,2.16-3.29h0c.7-1.31,1.35-2.64,1.95-3.98,.39-.91,.74-1.82,1.12-2.73,.05-.12,.14-.36,.25-.64,0,0,.01-.01,.01-.03,.01-.01,.01-.03,.01-.05,.04-.05,.07-.13,.09-.22,.03-.08,.05-.14,.06-.21-.03,.07-.06,.14-.09,.22,.22-.77,.77-2.55,.92-3.15,.27-1.04,.47-2.1,.72-3.14-3.61-.01-7.21-.07-10.8-.21-20.4-.77-23.2-26.96-18.96-42.54,2.46-9.05,9.11-15.67,18.69-16.14,5.35-.26,10.78,0,16.13,0,12.99,0,29.53-3.12,36.6,10.86,7.6,15.07,5.05,46.09-15.92,47.78-.16,.01-.33,.03-.49,.04h-.17c-3.72,0-7.46,.05-11.19,.09,.13,.56,.25,1.13,.38,1.69,.3,1.28,.68,2.54,1.03,3.8,.06,.27,.16,.55,.25,.82-.04-.12-.09-.22-.13-.34-.38-.96,.12,.43,.31,.94-.05-.2-.12-.39-.18-.59,.22,.56,.42,1.13,.64,1.68,.62,1.51,1.29,2.98,1.99,4.45,.16,.34,.83,1.54,.99,1.85-.03-.03-.05-.07-.07-.09,.03,.07,.05,.1,.08,.13h.01c.26,.47,.55,.91,.83,1.34,1,1.44,2,2.88,3.12,4.23,2.3,2.76,4.01,4.33,7.35,6.6,20.36,13.73,48.29,5.73,69.04-2.64,9.01-3.63,10.95,24.03,3.29,27.11Z"/><g><path d="M484.95,187.61c-.42-2.12-.89-4.23-1.42-6.34,29.22-31.99,34.91-81.08,20.03-121.44C489.98,22.94,453.38-4.54,413.13,.63c-22.91,2.95-42.99,15.72-56.88,33.84,.66,.13,1.31,.27,1.98,.42-1.39,.86-2.79,1.7-4.18,2.56,.72-1,1.44-2,2.2-2.98-29.65-6.14-60.37-7.8-90.55-8.69-16.67-.5-33.34,.09-49.96,1.3-19.99,1.46-40.05,3.84-59.54,8.63,.76,1,1.48,2.02,2.19,3.05-1.39-.86-2.77-1.71-4.17-2.56,.66-.17,1.31-.33,1.98-.48C131.4,2.3,86.08-10.5,48.76,10.63,9.34,32.96-5.52,83.1,1.8,125.76c3.76,21.98,13.13,42.39,28.58,58.04-8.59,33.75-7.29,70.5-7.2,104.7,.1,34.49,2.82,69.08,12.98,102.22,8.68,28.39,22.04,55.57,41.68,78.02,19.34,22.1,43.64,39.15,70.73,50.4,32.1,13.33,66.89,19.25,101.49,20.55,36.04,1.35,72.45-1.68,106.96-12.55,27.56-8.7,52.35-23.01,72.88-43.4,19.81-19.67,33.97-44.67,43.12-70.91,11.27-32.35,16.04-66.25,17.36-100.38,.74-18.85,.62-37.8,.43-56.65-.22-22.84-1.38-45.75-5.86-68.21Zm-10.78,103.65c-.03,8.16-.1,16.32-.48,24.48-.04,.72-.23,3.7-.23,3.84,.01-.01,.01-.03,.01-.05-.09,1.38-.18,2.77-.3,4.15-.31,3.94-.69,7.89-1.13,11.82-.4,3.59-.86,7.17-1.39,10.75-.22,1.51-.44,3.02-.69,4.53-.16,1-.33,1.99-.49,2.99-.05,.23-.27,1.55-.42,2.32v.03c0,.05-.01,.09-.03,.13,0,.01-.01,.03,0,.04,0,.04-.01,.06-.03,.1-.01,.01-.01,.03-.01,.03h.01s0,.04-.01,.06c0,.03,0,.05-.01,.06-.23,1.08-.56,2.69-.62,3.02-.3,1.44-.61,2.89-.94,4.32-.85,3.79-1.78,7.55-2.8,11.29-.87,3.2-1.81,6.38-2.82,9.55-.16,.49-.59,1.77-.74,2.26,.01-.01,.01-.03,.03-.04-.01,.04-.03,.08-.04,.1,0,.01,0,.03-.01,.03h0s-.01,.05-.01,.06c-.01,.01-.01,.03-.01,.03-.51,1.44-1.03,2.88-1.56,4.3-2.39,6.37-5.09,12.63-8.11,18.72-3.19,6.4-4.41,8.56-8.14,14.32-3.42,5.3-7.13,10.4-11.14,15.25-16.22,19.67-37.64,34.51-61.36,44.5-29.18,12.3-61.15,16.93-92.62,17.91-34.13,1.07-68.82-1.74-101.76-11.12-26.79-7.63-52.42-20.54-73.7-38.59-19.8-16.79-34.69-38.15-44.53-60.49-1.33-3.01-2.58-6.05-3.76-9.12-.6-1.55-1.17-3.11-1.74-4.66-.14-.39-.29-.78-.42-1.17-.03-.08-.07-.17-.09-.25,0-.03-.01-.05-.03-.08,0-.01,0-.03-.01-.04-.04-.1-.06-.21-.1-.31-.01-.03-.03-.07-.03-.09-.01-.04-.03-.06-.04-.09-.1-.33-.22-.69-.31-.96-2.16-6.77-4.05-13.62-5.62-20.54-.39-1.71-.77-3.41-1.12-5.13-.13-.64-.68-3.51-.69-3.51-.6-3.36-1.13-6.73-1.6-10.1-1.02-7.32-1.73-14.64-2.24-22,0-.05-.01-.12-.01-.17-.01-.08-.01-.14-.01-.22,0-.05,0-.12-.01-.22-.04-.61-.07-1.33-.09-1.81-.09-1.93-.17-3.84-.22-5.77-.12-4.22-.16-8.44-.16-12.65-.01-9.33-.09-18.67-.03-28,.14-20.58,.42-36.07,3.84-56.22,.01-.13,.04-.26,.05-.36-.01,.04-.03,.06-.04,.09,.03-.18,.08-.49,.13-.68,.01,.04,0,.09-.01,.14,.03-.1,.05-.23,.08-.38,.2-.92,.38-1.85,.59-2.77,.47-2.11,.98-4.2,1.54-6.27,1.26-4.75,1.72-6.01,3.46-10.15,3.53-8.41,4.76-25.2-3.64-31.45-13.29-9.85-23.51-23.96-27.52-39.87-.57-2.28-.78-3.41-.94-4.4-.1-.64-.51-4.35-.61-4.65v-.03c-.13-2.17-.08-4.37-.03-6.55v-.12c-.01,.16-.03,.3-.04,.46,.03-.38,.09-2.5,.04-.46,.12-1.37,.27-2.76,.46-4.13,.7-5.31,2.66-11.99,6.04-18.95,14.2-29.18,47.37-45.3,79.06-39.52,19.8,3.62,36.67,15.97,47.86,32.41,.99,1.52,2.38,2.38,4.18,2.56,47.47-12.05,97.91-12.13,146.54-8.64,19.24,1.37,38.57,3.29,57.47,7.34,1.78-.18,3.18-1.04,4.17-2.56,19.89-28.09,57.05-40.71,89.21-26.44,14.03,6.23,25.75,16.43,33.87,29.46,3.98,6.38,6.42,12.7,7.98,19.03,1.42,5.71,1.93,11.52,1.33,16.78-.9,7.93-3.46,16.74-8.04,24.94-4.59,8.2-11,15.48-18.29,21.36-3.92,3.18-5.56,8.5-6.01,13.86-.68,6.03,.17,12.5,2.36,17.58,1.71,3.97,2.38,5.92,3.32,9.25,.57,2.06,1.09,4.14,1.57,6.22,.21,.91,.4,1.84,.6,2.75,.1,.46,.18,.81,.26,1.12h0c.05,.13,.2,.82,.25,1.11-.04-.16-.1-.42-.21-.82,.01,.16,.05,.38,.1,.69,.79,4.56,1.38,9.15,1.87,13.75,.25,2.36,.47,4.73,.66,7.09,.07,.9,.38,5.67,.39,5.67,1.04,19.28,.62,38.62,.56,57.91Z"/><path d="M16.63,101.42c-.01,.16-.03,.3-.04,.46,.03-.38,.09-2.5,.04-.46Z"/><path d="M16.65,108.11c0,.09,.01,.2,.01,.29-.01-.16-.01-.25-.01-.29Z"/><path d="M40.28,314.23c-.01-.1-.01-.26-.03-.48,0,.05,.01,.12,.01,.17,0,.12,.01,.22,.01,.31Z"/><path d="M43.71,207.91s0,.09-.01,.14h0c-.01,.09-.03,.18-.05,.3-.01,0-.01,.01,0,.03-.03,.09-.04,.16-.07,.21,.03-.18,.08-.49,.13-.68Z"/><path d="M158.39,38.75c-1.39-.86-2.77-1.71-4.17-2.56,.66-.17,1.31-.33,1.98-.48,.76,1,1.48,2.02,2.19,3.05Z"/><path d="M358.23,34.88c-1.39,.86-2.79,1.7-4.18,2.56,.72-1,1.44-2,2.2-2.98,.66,.13,1.31,.27,1.98,.42Z"/><path d="M461.07,386.95s-.03,.08-.04,.1c.01-.03,.01-.04,.01-.06,.01-.01,.01-.03,.03-.04Z"/><path d="M469,356.42s0,.04-.01,.06v-.06h.01Z"/><path d="M469.09,355.96c-.03,.12-.04,.21-.07,.29,0-.05,.01-.1,.03-.16,.01-.04,.03-.09,.04-.13Z"/><path d="M469.13,355.74c.04-.22,.05-.26,0,0h0Z"/><path d="M470.58,206.14s.01-.01,0-.03c-.01-.06-.03-.13-.04-.2v-.05c.05,.12,.2,.81,.25,1.09-.04-.16-.1-.42-.21-.82Z"/></g></g><g><path d="M180.83,246.79c-9.01-3.51-22.6-2.94-32.33,1.61-10.69,5.01-13.64-29.43-4.11-33.88,12.8-5.99,27.33-6.78,40.56-1.63,9.7,3.79,7.15,38.28-4.11,33.89Z"/><path d="M363.06,248.41c-9.74-4.54-23.33-5.13-32.33-1.61-11.36,4.43-13.67-30.16-4.11-33.89,13.22-5.15,27.78-4.36,40.56,1.63,9.66,4.52,6.46,38.83-4.11,33.88Z"/></g><g><g><path d="M264.52,373.97c-.2-.51-.69-1.9-.31-.94,.04,.12,.09,.22,.13,.34h0c.07,.21,.13,.4,.18,.6Z"/><path d="M267.97,381.41s-.05-.06-.08-.13c.01,.03,.04,.07,.07,.09,.01,.01,.01,.03,.01,.04Z"/></g><g><path d="M247.26,373.24c-.01,.07-.04,.13-.06,.21-.03,.09-.05,.17-.09,.22,0-.01,.01-.04,.01-.06,.03-.05,.04-.09,.05-.14,.03-.08,.06-.16,.09-.22Z"/><path d="M247.31,373.09c.12-.34,.17-.48,0,0h0Z"/></g></g></g></g></svg>