<svg xmlns="http://www.w3.org/2000/svg" viewBox="0 0 392.97 414.86"><defs><style>.cls-1{fill:#fff;}</style></defs><g id="Layer_2" data-name="Layer 2"><g id="Layer_1-2" data-name="Layer 1"><path class="cls-1" d="M12.77,77.92l0,.35C12.76,78,12.81,76.35,12.77,77.92Z"/><path class="cls-1" d="M12.8,83.28c0-.12,0-.19,0-.22S12.8,83.21,12.8,83.28Z"/><path class="cls-1" d="M360.41,273.3c0-.17,0-.2,0,0Z"/><path class="cls-1" d="M379.1,70.67A49.54,49.54,0,0,0,373,56.05a58.59,58.59,0,0,0-26-22.63c-24.71-11-53.26-1.27-68.54,20.31a4.16,4.16,0,0,1-3.2,2c-14.52-3.11-29.37-4.59-44.15-5.64C193.7,47.38,155,47.44,118.48,56.7a4.16,4.16,0,0,1-3.21-2c-8.6-12.63-21.56-22.12-36.77-24.9-24.35-4.44-49.83,7.94-60.74,30.36a49.26,49.26,0,0,0-4.64,14.56c-.14,1-.26,2.12-.35,3.17V78c0,1.67-.08,3.36,0,5v0c.08.23.39,3.08.47,3.57.12.76.28,1.63.72,3.38,3.08,12.22,10.93,23.06,21.14,30.63,6.46,4.8,5.51,17.7,2.8,24.16a45.16,45.16,0,0,0-2.66,7.8c-.43,1.59-.82,3.2-1.18,4.82-.16.71-.3,1.42-.45,2.13,0,.11,0,.21-.06.29a.22.22,0,0,0,0-.11,4.76,4.76,0,0,0-.1.52l0-.07c0,.08,0,.18,0,.28-2.63,15.48-2.84,27.38-2.95,43.19-.05,7.17,0,14.34,0,21.51,0,3.24,0,6.48.12,9.72,0,1.48.1,3,.17,4.43,0,.37,0,.92.07,1.39a1.23,1.23,0,0,1,0,.17,1,1,0,0,0,0,.17s0,.09,0,.13c.39,5.65.94,11.28,1.72,16.9q.54,3.89,1.23,7.76s.43,2.21.53,2.7c.27,1.32.56,2.63.86,3.94q1.81,8,4.32,15.78l.24.74,0,.07a.19.19,0,0,0,0,.07c0,.08,0,.16.08.24a0,0,0,0,1,0,0,.14.14,0,0,1,0,.06l.07.19c.1.3.21.6.32.9.44,1.19.88,2.39,1.34,3.58q1.37,3.54,2.89,7a129.38,129.38,0,0,0,34.21,46.47c16.35,13.87,36,23.79,56.62,29.65,25.31,7.2,52,9.36,78.18,8.54,24.18-.75,48.74-4.31,71.16-13.76,18.22-7.68,34.68-19.08,47.14-34.19a124.61,124.61,0,0,0,8.56-11.72,88.51,88.51,0,0,0,6.25-11A156.35,156.35,0,0,0,353,300.75q.62-1.63,1.2-3.3v0a.08.08,0,0,1,0,0h0s0,0,0,0l0-.08,0,0c.12-.38.45-1.36.57-1.74.78-2.44,1.5-4.88,2.17-7.34q1.17-4.31,2.15-8.67c.25-1.1.49-2.21.72-3.32.05-.25.3-1.49.48-2.32a.07.07,0,0,0,0-.05.09.09,0,0,0,0-.05h0v0a.24.24,0,0,0,0-.08s0,0,0,0a.3.3,0,0,0,0-.1v0c.11-.59.28-1.6.32-1.78.13-.77.26-1.53.38-2.3.19-1.16.36-2.32.53-3.48.41-2.75.76-5.5,1.07-8.26q.51-4.53.87-9.08c.09-1.06.16-2.13.23-3.19,0,0,0,0,0,0s.15-2.4.18-3c.29-6.27.35-12.54.37-18.81,0-14.82.37-29.68-.43-44.49,0,0-.25-3.67-.3-4.36-.15-1.82-.32-3.64-.51-5.45-.38-3.53-.83-7.06-1.44-10.56,0-.24-.07-.41-.08-.53l.16.63a8.52,8.52,0,0,0-.19-.84h0c-.06-.24-.12-.51-.2-.86-.15-.7-.3-1.41-.46-2.11-.37-1.6-.77-3.2-1.21-4.78a48.64,48.64,0,0,0-2.55-7.11,27.62,27.62,0,0,1-1.81-13.51c.35-4.12,1.61-8.21,4.62-10.65a57.49,57.49,0,0,0,14.05-16.41,51.8,51.8,0,0,0,6.18-19.16A37,37,0,0,0,379.1,70.67ZM110.92,164.81a39.45,39.45,0,0,1,31.16-1.25c7.45,2.91,5.49,29.41-3.16,26-6.92-2.7-17.36-2.26-24.84,1.24C105.87,194.69,103.6,168.23,110.92,164.81ZM270.14,321.17c-12.52,5.05-26.36,9.43-40,8.13-16.72-1.59-27.83-12.77-33.6-26.88-3,7.91-7.69,15.12-14.7,20.19-17.27,12.49-41.06,5.77-58.94-1.44-6-2.4-4.32-23.59,2.53-20.83,11.53,4.65,24,8.38,36.6,7.44A33.08,33.08,0,0,0,180.35,301a25.94,25.94,0,0,0,5.26-5.65c.35-.49,1.6-2.53,1.66-2.53h0c.54-1,1-2,1.5-3,.3-.7.57-1.4.86-2.1,0-.09.11-.28.19-.49v0s0,0,0,0a.54.54,0,0,0,.07-.17,1.42,1.42,0,0,0,.05-.16c0,.05-.05.11-.07.17.17-.59.59-2,.71-2.42.21-.8.36-1.61.55-2.41-2.77,0-5.54,0-8.3-.16-15.67-.59-17.82-20.71-14.57-32.68,1.89-6.95,7-12,14.36-12.4,4.11-.2,8.28,0,12.39,0,10,0,22.69-2.4,28.12,8.34C229,256.77,227,280.6,210.92,281.9l-.38,0h-.13c-2.86,0-5.73,0-8.6.07.1.43.19.87.29,1.3.23,1,.52,1.95.79,2.92.05.21.12.42.19.63,0-.09-.07-.17-.1-.26-.29-.74.09.33.24.72,0-.15-.09-.3-.14-.45.17.43.32.87.49,1.29.48,1.16,1,2.29,1.53,3.42.12.26.64,1.18.76,1.42l-.05-.07a.29.29,0,0,0,.06.1h0c.2.35.42.69.64,1,.77,1.11,1.54,2.21,2.4,3.25a23.64,23.64,0,0,0,5.65,5.07c15.64,10.55,37.1,4.4,53-2C274.53,297.55,276,318.8,270.14,321.17Zm8.78-130.33c-7.48-3.49-17.92-3.94-24.84-1.24-8.73,3.4-10.5-23.17-3.16-26a39.45,39.45,0,0,1,31.16,1.25C289.5,168.28,287,194.64,278.92,190.84Z"/><path d="M270.14,321.17c-12.52,5.05-26.36,9.43-40,8.13-16.72-1.59-27.83-12.77-33.6-26.88-3,7.91-7.69,15.12-14.7,20.19-17.27,12.49-41.06,5.77-58.94-1.44-6-2.4-4.32-23.59,2.53-20.83,11.53,4.65,24,8.38,36.6,7.44A33.08,33.08,0,0,0,180.35,301a25.94,25.94,0,0,0,5.26-5.65c.35-.49,1.6-2.53,1.66-2.53h0c.54-1,1-2,1.5-3,.3-.7.57-1.4.86-2.1,0-.09.11-.28.19-.49v0s0,0,0,0a.54.54,0,0,0,.07-.17,1.42,1.42,0,0,0,.05-.16c0,.05-.05.11-.07.17.17-.59.59-2,.71-2.42.21-.8.36-1.61.55-2.41-2.77,0-5.54,0-8.3-.16-15.67-.59-17.82-20.71-14.57-32.68,1.89-6.95,7-12,14.36-12.4,4.11-.2,8.28,0,12.39,0,10,0,22.69-2.4,28.12,8.34C229,256.77,227,280.6,210.92,281.9l-.38,0h-.13c-2.86,0-5.73,0-8.6.07.1.43.19.87.29,1.3.23,1,.52,1.95.79,2.92.05.21.12.42.19.63,0-.09-.07-.17-.1-.26-.29-.74.09.33.24.72,0-.15-.09-.3-.14-.45.17.43.32.87.49,1.29.48,1.16,1,2.29,1.53,3.42.12.26.64,1.18.76,1.42l-.05-.07a.29.29,0,0,0,.06.1h0c.2.35.42.69.64,1,.77,1.11,1.54,2.21,2.4,3.25a23.64,23.64,0,0,0,5.65,5.07c15.64,10.55,37.1,4.4,53-2C274.53,297.55,276,318.8,270.14,321.17Z"/><path d="M372.57,144.13c-.32-1.63-.68-3.25-1.09-4.87C393.93,114.68,398.3,77,386.87,46,376.43,17.62,348.31-3.49,317.39.48c-17.6,2.27-33,12.08-43.7,26l1.52.32-3.21,2c.55-.77,1.11-1.54,1.69-2.29-22.78-4.72-46.38-6-69.57-6.68a375.14,375.14,0,0,0-38.38,1C150.38,21.92,135,23.75,120,27.43q.87,1.16,1.68,2.34l-3.2-2,1.52-.37C101,1.77,66.13-8.07,37.46,8.17,7.17,25.32-4.24,63.84,1.38,96.62c2.89,16.89,10.09,32.57,22,44.59-6.6,25.93-5.6,54.16-5.53,80.44.08,26.5,2.17,53.07,10,78.53,6.67,21.81,16.93,42.69,32,59.94a146.78,146.78,0,0,0,54.34,38.72c24.66,10.24,51.39,14.79,78,15.79,27.69,1,55.66-1.29,82.17-9.64,21.17-6.68,40.22-17.68,56-33.34,15.22-15.11,26.1-34.32,33.13-54.48,8.66-24.85,12.32-50.9,13.34-77.12.57-14.48.48-29,.33-43.52C376.9,179,376,161.38,372.57,144.13Zm-8.28,79.63c0,6.27-.08,12.54-.37,18.81,0,.55-.18,2.84-.18,3s0,0,0,0c-.07,1.06-.14,2.13-.23,3.19q-.36,4.54-.87,9.08c-.31,2.76-.66,5.51-1.07,8.26-.17,1.16-.34,2.32-.53,3.48-.12.77-.25,1.53-.38,2.3,0,.18-.21,1.19-.32,1.78v0a.3.3,0,0,1,0,.1s0,0,0,0a.24.24,0,0,1,0,.08v0h0a.09.09,0,0,1,0,.05.07.07,0,0,1,0,.05c-.18.83-.43,2.07-.48,2.32-.23,1.11-.47,2.22-.72,3.32q-1,4.37-2.15,8.67c-.67,2.46-1.39,4.9-2.17,7.34-.12.38-.45,1.36-.57,1.74l0,0,0,.08s0,0,0,0h0a.08.08,0,0,0,0,0v0q-.59,1.67-1.2,3.3a156.35,156.35,0,0,1-6.23,14.38,88.51,88.51,0,0,1-6.25,11,124.61,124.61,0,0,1-8.56,11.72C319.46,353,303,364.36,284.78,372c-22.42,9.45-47,13-71.16,13.76-26.22.82-52.87-1.34-78.18-8.54-20.58-5.86-40.27-15.78-56.62-29.65a129.38,129.38,0,0,1-34.21-46.47q-1.53-3.47-2.89-7c-.46-1.19-.9-2.39-1.34-3.58-.11-.3-.22-.6-.32-.9l-.07-.19a.14.14,0,0,0,0-.06,0,0,0,0,0,0,0c0-.08-.05-.16-.08-.24a.19.19,0,0,1,0-.07l0-.07-.24-.74q-2.49-7.8-4.32-15.78c-.3-1.31-.59-2.62-.86-3.94-.1-.49-.52-2.7-.53-2.7q-.69-3.87-1.23-7.76c-.78-5.62-1.33-11.25-1.72-16.9,0,0,0-.09,0-.13a1,1,0,0,1,0-.17,1.23,1.23,0,0,0,0-.17c0-.47,0-1-.07-1.39-.07-1.48-.13-2.95-.17-4.43-.09-3.24-.12-6.48-.12-9.72,0-7.17-.07-14.34,0-21.51.11-15.81.32-27.71,2.95-43.19,0-.1,0-.2,0-.28l0,.07a4.76,4.76,0,0,1,.1-.52.22.22,0,0,1,0,.11c0-.08,0-.18.06-.29.15-.71.29-1.42.45-2.13.36-1.62.75-3.23,1.18-4.82a45.16,45.16,0,0,1,2.66-7.8c2.71-6.46,3.66-19.36-2.8-24.16C24.91,113.07,17.06,102.23,14,90c-.44-1.75-.6-2.62-.72-3.38-.08-.49-.39-3.34-.47-3.57v0c-.1-1.67-.06-3.36,0-5v-.09l0,.35c0-.29.07-1.92,0-.35.09-1,.21-2.12.35-3.17a49.26,49.26,0,0,1,4.64-14.56C28.67,37.77,54.15,25.39,78.5,29.83c15.21,2.78,28.17,12.27,36.77,24.9a4.16,4.16,0,0,0,3.21,2c36.47-9.26,75.22-9.32,112.58-6.64,14.78,1,29.63,2.53,44.15,5.64a4.16,4.16,0,0,0,3.2-2C293.69,32.15,322.24,22.45,347,33.42a58.59,58.59,0,0,1,26,22.63,49.54,49.54,0,0,1,6.13,14.62,37,37,0,0,1,1,12.89,51.8,51.8,0,0,1-6.18,19.16,57.49,57.49,0,0,1-14.05,16.41c-3,2.44-4.27,6.53-4.62,10.65a27.62,27.62,0,0,0,1.81,13.51,48.64,48.64,0,0,1,2.55,7.11c.44,1.58.84,3.18,1.21,4.78.16.7.31,1.41.46,2.11.08.35.14.62.2.86h0a8.52,8.52,0,0,1,.19.84l-.16-.63c0,.12,0,.29.08.53.61,3.5,1.06,7,1.44,10.56.19,1.81.36,3.63.51,5.45.05.69.29,4.36.3,4.36C364.66,194.08,364.34,208.94,364.29,223.76Z"/><path d="M12.77,77.92l0,.35C12.76,78,12.81,76.35,12.77,77.92Z"/><path d="M12.79,83.06c0,.07,0,.15,0,.22C12.79,83.16,12.79,83.09,12.79,83.06Z"/><path d="M30.94,241.41c0-.08,0-.2,0-.37,0,0,0,.09,0,.13S30.94,241.34,30.94,241.41Z"/><path d="M33.58,159.73a.22.22,0,0,1,0,.11h0c0,.06,0,.13,0,.22s0,0,0,0a1,1,0,0,1-.05.16A4.76,4.76,0,0,1,33.58,159.73Z"/><path d="M121.68,29.77l-3.2-2,1.52-.37Q120.87,28.59,121.68,29.77Z"/><path d="M275.21,26.8l-3.21,2c.55-.77,1.11-1.54,1.69-2.29Z"/><path d="M354.22,297.28l0,.08a.09.09,0,0,0,0-.05Z"/><path d="M360.31,273.82a.09.09,0,0,1,0,.05v-.05Z"/><path d="M360.38,273.47c0,.09,0,.16-.05.22a.5.5,0,0,1,0-.12Z"/><path d="M360.41,273.3c0-.17,0-.2,0,0Z"/><path d="M361.53,158.37s0,0,0,0l0-.15v0a8.52,8.52,0,0,1,.19.84Z"/><path d="M138.92,189.6c-6.92-2.7-17.36-2.26-24.84,1.24-8.21,3.85-10.48-22.61-3.16-26a39.45,39.45,0,0,1,31.16-1.25C149.53,166.47,147.57,193,138.92,189.6Z"/><path d="M278.92,190.84c-7.48-3.49-17.92-3.94-24.84-1.24-8.73,3.4-10.5-23.17-3.16-26a39.45,39.45,0,0,1,31.16,1.25C289.5,168.28,287,194.64,278.92,190.84Z"/><path d="M203.22,287.31c-.15-.39-.53-1.46-.24-.72,0,.09.07.17.1.26h0C203.13,287,203.18,287.16,203.22,287.31Z"/><path d="M205.87,293a.29.29,0,0,1-.06-.1l.05.07A0,0,0,0,1,205.87,293Z"/><path d="M190,286.75a1.42,1.42,0,0,1-.05.16.54.54,0,0,1-.07.17.43.43,0,0,0,0-.05.49.49,0,0,0,0-.11C189.91,286.86,189.94,286.8,190,286.75Z"/><path d="M190,286.63Z"/></g></g></svg>