<svg xmlns="http://www.w3.org/2000/svg" viewBox="0 0 388.86 412.51"><defs><style>.cls-1{fill:#fff;}</style></defs><g id="Layer_2" data-name="Layer 2"><g id="Layer_1-2" data-name="Layer 1"><path class="cls-1" d="M15.94,178.5c.11,2.86-.27-3.34,0,0Z"/><path class="cls-1" d="M21.39,94.29a1.15,1.15,0,0,1,0,.14,1.62,1.62,0,0,1,0,.19A2.93,2.93,0,0,1,21.39,94.29Z"/><path class="cls-1" d="M37.21,44.48a5.28,5.28,0,0,1-.28.63C36.56,45.57,37.13,44.52,37.21,44.48Z"/><path class="cls-1" d="M366.54,229.27a0,0,0,0,1,0,0v0A.06.06,0,0,0,366.54,229.27Zm6.77-81.06c-.07-2.14-.15-4.27-.25-6.41,0-.08,0-.29,0-.57s0-.37,0-.58,0-.6,0-.89h0v-.07a.34.34,0,0,0,0-.1c0-.09,0-.17,0-.25a.61.61,0,0,0,0-.14c0-.18,0-.32,0-.41v.13c-.17-2.75-.37-5.51-.61-8.25q-.78-9.24-2-18.42-1.14-8.78-2.67-17.48a.08.08,0,0,0,0,0s0,0,0-.08v0s0-.06,0-.09,0-.1,0-.17c-.14-.71-.4-2.13-.45-2.38-.27-1.36-.54-2.72-.83-4.07q-.82-3.94-1.76-7.85c-1.17-4.89-2.46-9.74-3.92-14.54-.34-1.12-.71-2.23-1.06-3.35-.06-.2-.12-.38-.16-.52.21.56.3.82.34.88a14.55,14.55,0,0,0-.52-1.53s0,.16.12.45h0c-.73-2-1.46-4-2.25-6-.27-.67-.54-1.34-.83-2l-.09-.21c-.11-.26-.21-.51-.33-.76,0,0,0,0,0,0-.3-.69-.61-1.38-.93-2.06s-.66-1.41-1-2.11-.73-1.49-1.12-2.24c-.09-.18-.18-.36-.28-.54h0s-.19-.28-.38-.61c-.09-.14-.19-.31-.28-.48l-.54-.9-.2-.34-.15-.25-.16-.26-.19-.3c-.8-1.18-1.67-2.28-2.56-3.38-.44-.55-2.59-2.51-.31-.51a15.6,15.6,0,0,0-1.31-1.13c-.79-.54-1.64-1-2.43-1.56a2.2,2.2,0,0,0-.26-.15h0l-.08,0s0,0,0,0h0l0,0-.06,0a4,4,0,0,0-.94-.23,25.88,25.88,0,0,0-4.22.12c-5.64.64-14.33,7.37-19.8,12A232.3,232.3,0,0,0,298,67.54c-6.16,6.64-12.08,13.52-18.29,20.11-4.45,4.72-9.42,8.71-16.31,8.51a27.09,27.09,0,0,1-7.6-1.85l-1-.3h0l-.08,0-.06,0h-.1l-1.31-.36c-19-5-39.07-4.94-58.58-4.94s-38.92.71-57.94,5.55a25.88,25.88,0,0,1-19.27-2.68c-4.42-2.53-7.86-6.67-11.36-10.32C99.32,74.09,92.6,66.92,85.57,60S71,46.32,62.7,40.89c-2.85-1.85-8.18-4.69-9.93-5.16A17.21,17.21,0,0,0,49,35.14c-.72,0-1.4.07-2.11.09a3.47,3.47,0,0,0-.81.19l.22-.11-.36.15H46c-.44.21-.86.43-1.27.67-.22.12-.43.25-.64.39s-.41.28-.62.42c-.41.3-.78.63-1.18,1,1.35-1.62-1.76,1.36-.13.1l.11-.08c-1.88,2.23-3.46,4.52-5.12,6.91a3.3,3.3,0,0,1-.21.3l-.3.6c-.4.8-.82,1.59-1.22,2.39-.85,1.72-1.64,3.47-2.39,5.22-.82,1.91-1.58,3.84-2.31,5.78-.39,1-.75,2-1.12,3.08l-.06.17a3.46,3.46,0,0,0,.12-.52,11.34,11.34,0,0,0-.5,1.49c0-.07.14-.33.37-.94-2.82,10.1-5.76,20-7.81,30.35-.12.57-.23,1.13-.34,1.7a1.62,1.62,0,0,1,0,.19h0a.43.43,0,0,1,0,.11.37.37,0,0,0,0,.12h0c0,.09,0,.18-.05.28h0q0,.15-.06.33c-.25,1.42-.5,2.84-.74,4.26q-.72,4.37-1.34,8.73-1.28,9-2.14,18.13c-.34,3.63-.61,7.27-.88,10.91,0,.26,0,.49,0,.68,0-.33,0-.51,0-.59,0,.26-.12,1.55-.12,1.73,0-.08,0-.35.09-.94-.06,1.31-.13,2.62-.19,3.93q-.42,9.59-.37,19.17c0,3.74.1,7.49.23,11.23.06,1.6.14,3.2.21,4.8,0,.4,0,.73,0,1s0,.45.06.73c.5,6.32,1.06,12.62,1.89,18.91,1.5,11.37,3.49,22.7,5.29,34q.75,4.8,1.56,9.59l.72,4.11c0,.21.07.41.09.56-.1-.49-.15-.72-.17-.77a.51.51,0,0,0,0,.1,1.3,1.3,0,0,1,0,.13v0c0,.06,0,.13,0,.2s0,.22.06.34l0,.15a.11.11,0,0,0,0,.05,2.23,2.23,0,0,1,0,.23l.09.4a2.14,2.14,0,0,0,0-.25v0l0,.12c1.07,5.45,2.2,10.9,3.55,16.28.79,3.15,1.64,6.3,2.57,9.42.4,1.34.83,2.67,1.23,4l.24.82-.13-.34a1.33,1.33,0,0,1-.06-.12,2.69,2.69,0,0,0,.11.38l0,.08a1.87,1.87,0,0,0,.08.25,1.21,1.21,0,0,1,0,.14l.07.21,0,.05h0s0,0,0,0a.29.29,0,0,0,0-.09,1.23,1.23,0,0,1,0-.16,1.11,1.11,0,0,1,.07.16l.16.44c1.94,5.4,4.08,10.69,6.53,15.87A137.71,137.71,0,0,0,59.27,324c17.37,20.79,40.61,38.54,66.57,47,22.12,7.18,45.9,6.47,68.86,6.44,8.59,0,17.19.12,25.77-.25,22.75-1,45.14-5.36,65.35-16.22,20.55-11.05,37.8-27.78,50.74-47.11a143.56,143.56,0,0,0,14-26.41q1.77-4.25,3.35-8.57c.34-.94.68-1.87,1-2.81l0-.06a0,0,0,0,0,0,0,.36.36,0,0,0,0-.11,1.09,1.09,0,0,0,.05-.14v0l0,0c.22-.71.66-2,.7-2.15,1.72-5.33,3.25-10.71,4.65-16.13q2.22-8.61,4-17.31c.64-3,1.24-6.08,1.83-9.13,0-.27.1-.5.14-.69a.49.49,0,0,0,0,.12l0-.09c.05-.3.12-.68.16-.91v0l0,.14,0,.05c0-.19.06-.4.11-.65.28-1.6.57-3.2.85-4.8,2.3-13.33,4.33-26.7,5.33-40.2l.18-2.31v-.15h0s0,0,0,0h0v0h0s0,0,0,0v-.1a1.23,1.23,0,0,0,0-.2c0-.1,0-.22,0-.34a1.64,1.64,0,0,1,0,.22c0-.12,0-.24,0-.37.08-1.61.16-3.22.22-4.83.12-3.23.21-6.45.25-9.68Q373.59,157.08,373.31,148.21Zm-56.65,102.9c4.26.09,4.12,13.58,0,13.5a113.19,113.19,0,0,0-59,15.8c-3.66,2.19-5.16-10.87-1.58-13C273.79,256.8,295.91,250.67,316.66,251.11Zm-79.32-85.9c19.14-12.26,45-12.62,64.28,0,5.34,3.5,2.75,22.88-2.37,19.52-17.87-11.72-41.76-11.38-59.54,0C234.44,188.1,232.05,168.6,237.34,165.21Zm-150,0c19.5-11.3,44.89-11,64.28,0,5.48,3.09,3.22,22.68-2.37,19.52-17.89-10.11-41.54-10.43-59.54,0C84.13,188,82,168.33,87.34,165.21Zm-15,85.9c20.75-.44,42.87,5.69,60.58,16.29,3.63,2.16,2,15.17-1.57,13a113.25,113.25,0,0,0-59-15.8C68.14,264.7,68.09,251.2,72.3,251.11Zm-4.43,44.51c-3.5.8-4.46-12.48,0-13.5,20.37-4.62,43-2.88,62.59,4,3.71,1.29,2.87,14.57-1.58,13A114,114,0,0,0,67.87,295.62Zm199,40c-12.54,2.89-25.82,4.58-38.55,1.9-16.07-3.38-27.65-13.9-33.75-27.63a47.27,47.27,0,0,1-15.57,20c-16.3,11.73-38.38,10-56.87,5.76-7.2-1.65-5.52-22.86,0-21.6,19.38,4.46,45.18,6.45,59.45-9.52a40.34,40.34,0,0,0,3-3.78c.46-.67.9-1.36,1.33-2.05.08-.12.13-.21.17-.26a1,1,0,0,0-.08.2,1.19,1.19,0,0,0,.13-.25h0c0-.12.15-.3.27-.55.65-1.29,1.24-2.6,1.81-3.94a8.11,8.11,0,0,0,.31-.82h0l.21-.57-.06.13c.08-.23.16-.46.2-.61.24-.92.47-1.84.72-2.75a1.26,1.26,0,0,1,.07-.25v0c0-.33.08-.79.12-1.23-7.69-2.38-12.76-10.23-18.06-16.12a19.31,19.31,0,0,1-5.09-16.22c1-8.25,7.13-12.56,15-13H182c8.34,0,16.73-.28,25.08,0,8,.27,14.26,4.67,15.3,13a19.31,19.31,0,0,1-5.09,16.22c-5.3,5.89-10.37,13.74-18.06,16.12v0c.05.43.09.87.12,1.19v0a1.26,1.26,0,0,1,.07.25c.27,1,.53,2,.79,3,0,.09.06.2.09.32a.69.69,0,0,1,.05.13l.15.41.06.19s0,0,0,0a.19.19,0,0,0,0,.07h0v0c.06.16.12.31.19.47.57,1.34,1.16,2.65,1.81,3.94.12.25.22.43.27.55h0a1.19,1.19,0,0,0,.13.25,1,1,0,0,0-.08-.2c0,.05.09.14.17.26.43.69.87,1.38,1.33,2.05a40.34,40.34,0,0,0,3,3.78c14.27,16,40.07,14,59.45,9.52C272.44,312.79,274,334,266.85,335.66Zm54.25-40a114,114,0,0,0-61,3.49c-4.49,1.57-5.24-11.74-1.58-13,19.6-6.85,42.22-8.58,62.6-4C325.59,283.14,324.55,296.41,321.1,295.62Zm45.23-65.21h0s0,0,0-.08A.31.31,0,0,0,366.33,230.41ZM33.46,278.32v0Z"/><path d="M266.85,335.66c-12.54,2.89-25.82,4.58-38.55,1.9-16.07-3.38-27.65-13.9-33.75-27.63a47.27,47.27,0,0,1-15.57,20c-16.3,11.73-38.38,10-56.87,5.76-7.2-1.65-5.52-22.86,0-21.6,19.38,4.46,45.18,6.45,59.45-9.52a40.34,40.34,0,0,0,3-3.78c.46-.67.9-1.36,1.33-2.05.08-.12.13-.21.17-.26a1,1,0,0,0-.08.2,1.19,1.19,0,0,0,.13-.25h0c0-.12.15-.3.27-.55.65-1.29,1.24-2.6,1.81-3.94a8.11,8.11,0,0,0,.31-.82h0l.21-.57-.06.13c.08-.23.16-.46.2-.61.24-.92.47-1.84.72-2.75a1.26,1.26,0,0,1,.07-.25v0c0-.33.08-.79.12-1.23-7.69-2.38-12.76-10.23-18.06-16.12a19.31,19.31,0,0,1-5.09-16.22c1-8.25,7.13-12.56,15-13H182c8.34,0,16.73-.28,25.08,0,8,.27,14.26,4.67,15.3,13a19.31,19.31,0,0,1-5.09,16.22c-5.3,5.89-10.37,13.74-18.06,16.12v0c.05.43.09.87.12,1.19v0a1.26,1.26,0,0,1,.07.25c.27,1,.53,2,.79,3,0,.09.06.2.09.32a.69.69,0,0,1,.05.13l.15.41.06.19s0,0,0,0a.19.19,0,0,0,0,.07h0v0c.06.16.12.31.19.47.57,1.34,1.16,2.65,1.81,3.94.12.25.22.43.27.55h0a1.19,1.19,0,0,0,.13.25,1,1,0,0,0-.08-.2c0,.05.09.14.17.26.43.69.87,1.38,1.33,2.05a40.34,40.34,0,0,0,3,3.78c14.27,16,40.07,14,59.45,9.52C272.44,312.79,274,334,266.85,335.66Z"/><path d="M373,181.27v.08h0s0,0,0,0h0a0,0,0,0,1,0,0s0,0,0,0S373,181.26,373,181.27Zm0,.23v-.15c-.06.82-.11,1.64-.18,2.46Zm-6.5,48.14c0-.09,0-.17.05-.23l0,.05Zm-14-184.2h0ZM33.4,278a1.11,1.11,0,0,1,.07.16l-.09-.23A.19.19,0,0,0,33.4,278Zm-7.74-31v0l0-.17C25.64,246.93,25.65,247,25.66,247.07ZM21.33,94.63c0-.07,0-.13,0-.2a1.62,1.62,0,0,1,0,.19Z"/><path d="M378.49,64.89c-4.25-18.5-9.7-39.28-21.39-54.69C353.37,5.29,348.58.81,342.2.09c-7.76-.87-16,4.43-22,8.8-16.88,12.41-30.52,29-44.54,44.4-2.84,3.12-4.95,6.36-8.91,7.46-4.28,1.19-8.36-.85-12.41-2a143.44,143.44,0,0,0-27.25-4.36c-22.73-1.81-46.81-1.89-69.46.71-4.66.54-9.31,1.24-13.91,2.21-4,.86-8,2.42-12.16,2.61-11.16.51-17.35-8.75-24.33-16-7.88-8.24-15.86-16.41-24.33-24-7.2-6.5-15-13.3-24-17.16-6.46-2.76-13.47-4-19.53.4s-10,11-13.44,17.43C15.57,39.71,10.72,62.08,6.79,83.35A416.66,416.66,0,0,0,.06,165.5C.5,192.56,4.62,219,8.94,245.63c4.12,25.42,9.38,51,20.62,74.35,12.84,26.7,32.75,49.36,56.82,66.56C108,402,132.87,410.12,159.27,411.87c11.79.79,23.62.63,35.43.61,20.72,0,41.35-.07,61.6-5.06,27.06-6.66,49.92-20.58,69.37-40.41C361,331,374,281.67,382.34,233.34,392,177.63,391.14,120.11,378.49,64.89Zm-5,101.06c0,3.23-.13,6.45-.25,9.68-.06,1.61-.14,3.22-.22,4.83,0,.13,0,.25,0,.37a1.64,1.64,0,0,0,0-.22c0,.12,0,.24,0,.34a1.52,1.52,0,0,1,0,.23v.07s0,0,0,0a0,0,0,0,0,0,0h0s0,0,0,0h0c0,.06,0,.11,0,.16l-.18,2.31c-1,13.5-3,26.87-5.33,40.2-.28,1.6-.57,3.2-.85,4.8-.05.25-.08.46-.11.65l0-.05,0-.14a.06.06,0,0,1,0,0v0a.07.07,0,0,1,0,.05c0,.23-.11.61-.16.91a1.62,1.62,0,0,0,0,.19s0,.06,0,.08a.25.25,0,0,1,0-.08c0-.06,0-.12,0-.22,0,.19-.09.42-.14.69-.59,3.05-1.19,6.09-1.83,9.13q-1.81,8.7-4,17.31c-1.4,5.42-2.93,10.8-4.65,16.13,0,.13-.48,1.44-.7,2.15a.14.14,0,0,1,0,.07,1.09,1.09,0,0,1-.05.14.36.36,0,0,1,0,.11,0,0,0,0,1,0,0l0,.06c-.33.94-.67,1.87-1,2.81q-1.58,4.32-3.35,8.57a143.56,143.56,0,0,1-14,26.41c-12.94,19.33-30.19,36.06-50.74,47.11-20.21,10.86-42.6,15.25-65.35,16.22-8.58.37-17.18.25-25.77.25-23,0-46.74.74-68.86-6.44-26-8.43-49.2-26.18-66.57-47a137.71,137.71,0,0,1-19.11-29.46c-2.45-5.18-4.59-10.47-6.53-15.87l-.16-.44a1.11,1.11,0,0,0-.07-.16,1.23,1.23,0,0,0,0,.16.29.29,0,0,1,0,.09s0,0,0,0v0c0,.06,0,0,0-.07l-.07-.21a.58.58,0,0,1,0-.14,1.87,1.87,0,0,1-.08-.25.26.26,0,0,1,0-.08,2.69,2.69,0,0,1-.11-.38l.06.12.13.34-.24-.82c-.4-1.34-.83-2.67-1.23-4-.93-3.12-1.78-6.27-2.57-9.42-1.35-5.38-2.48-10.83-3.55-16.28l0-.12v0a2.14,2.14,0,0,1,0,.25l-.09-.4c0-.07,0-.15,0-.23a.11.11,0,0,1,0-.05l0-.15c0-.12,0-.24-.06-.34s0-.14,0-.2v0a1.3,1.3,0,0,0,0-.13.51.51,0,0,1,0-.1c0,.05.07.28.17.77,0-.15-.05-.35-.09-.56l-.72-4.11q-.81-4.78-1.56-9.59c-1.8-11.34-3.79-22.67-5.29-34-.83-6.29-1.39-12.59-1.89-18.91,0-.28,0-.52-.06-.73.11,2.86-.27-3.34,0,0,0-.25,0-.58,0-1-.07-1.6-.15-3.2-.21-4.8-.13-3.74-.21-7.49-.23-11.23q-.06-9.59.37-19.17c.06-1.31.13-2.62.19-3.93,0,.59-.07.86-.09.94,0-.18.08-1.47.12-1.73,0,.08,0,.26,0,.59,0-.19,0-.42,0-.68.27-3.64.54-7.28.88-10.91q.87-9.09,2.14-18.13.62-4.36,1.34-8.73c.24-1.42.49-2.84.74-4.26q0-.18.06-.33h0c0-.1,0-.19.05-.28l0-.13a.43.43,0,0,0,0-.11h0a2.93,2.93,0,0,1,.06-.33,1.15,1.15,0,0,1,0,.14c.11-.57.22-1.13.34-1.7,2.05-10.31,5-20.25,7.81-30.35-.23.61-.34.87-.37.94a11.34,11.34,0,0,1,.5-1.49,3.46,3.46,0,0,1-.12.52l.06-.17c.37-1,.73-2.06,1.12-3.08.73-1.94,1.49-3.87,2.31-5.78.75-1.75,1.54-3.5,2.39-5.22.4-.8.82-1.59,1.22-2.39l.3-.6c-.37.46.2-.59.28-.63a5.28,5.28,0,0,1-.28.63,3.3,3.3,0,0,0,.21-.3c1.66-2.39,3.24-4.68,5.12-6.91l-.11.08c-1.63,1.26,1.48-1.72.13-.1.4-.32.77-.65,1.18-1,.21-.14.41-.29.62-.42s.42-.27.64-.39c.41-.24.83-.46,1.27-.67h-.05l.36-.15-.22.11a3.47,3.47,0,0,1,.81-.19c.71,0,1.39-.11,2.11-.09a17.21,17.21,0,0,1,3.77.59c1.75.47,7.08,3.31,9.93,5.16C71,46.32,78.5,53.1,85.57,60s13.75,14.05,20.56,21.14c3.5,3.65,6.94,7.79,11.36,10.32a25.88,25.88,0,0,0,19.27,2.68c19-4.84,38.37-5.55,57.94-5.55s39.57-.09,58.58,4.94l1.31.36h.1l.06,0,.08,0a.21.21,0,0,1,.1,0,.32.32,0,0,1-.09,0l1,.3a27.09,27.09,0,0,0,7.6,1.85c6.89.2,11.86-3.79,16.31-8.51C286,81.06,291.87,74.18,298,67.54a232.3,232.3,0,0,1,20.48-20.2c5.47-4.62,14.16-11.35,19.8-12a25.88,25.88,0,0,1,4.22-.12,4,4,0,0,1,.94.23l.06,0,0,0h0s0,0,0,0l.08,0h0a2.2,2.2,0,0,1,.26.15c.79.54,1.64,1,2.43,1.56a15.6,15.6,0,0,1,1.31,1.13c-2.28-2-.13,0,.31.51.89,1.1,1.76,2.2,2.56,3.38l.19.3.16.26.15.25a3.79,3.79,0,0,1,.2.34l.54.9.28.48c.19.33.34.56.38.61a0,0,0,0,0,0,0v0c.1.18.19.37.28.55.39.75.76,1.49,1.12,2.24s.68,1.4,1,2.11.63,1.37.93,2.06c0,0,0,0,0,0,.12.25.23.51.33.76l.09.21c.29.67.56,1.34.83,2,.79,2,1.52,4,2.25,6h0c-.08-.29-.12-.42-.12-.45a14.55,14.55,0,0,1,.52,1.53c0-.06-.13-.32-.34-.88,0,.14.1.32.16.52.35,1.12.72,2.23,1.06,3.35,1.46,4.8,2.75,9.65,3.92,14.54q.93,3.9,1.76,7.85c.29,1.35.56,2.71.83,4.07.05.25.31,1.67.45,2.38,0,.07,0,.12,0,.17s0,.07,0,.09a.08.08,0,0,1,0,0s0,.06,0,.08a.08.08,0,0,1,0,0q1.53,8.72,2.67,17.48,1.19,9.18,2,18.42c.24,2.74.44,5.5.61,8.25v-.13c0,.09,0,.23,0,.41a.61.61,0,0,1,0,.14c0,.08,0,.16,0,.25a.34.34,0,0,1,0,.1v.07h0c0,.11,0,.22,0,.35,0-.12,0-.23,0-.34,0,.29,0,.6,0,.89s0,.41,0,.58,0,.49,0,.57c.1,2.14.18,4.27.25,6.41Q373.58,157.07,373.48,166Z"/><path d="M15.94,178.5c.11,2.86-.27-3.34,0,0Z"/><path d="M16.05,137.6c0,.08,0,.26,0,.59,0,.06,0,.12,0,.17v0c0,.59-.07.86-.09.94C15.93,139.15,16,137.86,16.05,137.6Z"/><path d="M21.31,94.74a.37.37,0,0,0,0,.12c0,.09,0,.19-.05.29h0c0-.1,0-.19.05-.28Z"/><path d="M21.39,94.29a1.15,1.15,0,0,1,0,.14,1.62,1.62,0,0,1,0,.19A2.93,2.93,0,0,1,21.39,94.29Z"/><path d="M25.69,247.32l-.09-.4a2.23,2.23,0,0,0,0-.23.11.11,0,0,1,0-.05l0-.15c0-.12,0-.24-.06-.34s0-.14,0-.2v0a1.3,1.3,0,0,0,0-.13.51.51,0,0,1,0-.1c0,.05.07.28.17.77l.07.35s0,0,0,.06,0,.16,0,.22A2.14,2.14,0,0,1,25.69,247.32Z"/><path d="M29.65,61.83a3.46,3.46,0,0,1-.12.52,0,0,0,0,0,0,0c-.23.61-.34.87-.37.94A11.34,11.34,0,0,1,29.65,61.83Z"/><path d="M33.43,278.27l-.07-.21a1.21,1.21,0,0,0,0-.14,1.87,1.87,0,0,1-.08-.25l0-.08a2.69,2.69,0,0,1-.11-.38,1.33,1.33,0,0,0,.06.12l.13.34s0,.08,0,.12l.06.18a.19.19,0,0,0,0,.07,1.23,1.23,0,0,0,0,.16.29.29,0,0,1,0,.09s0,0,0,0v0C33.49,278.4,33.47,278.37,33.43,278.27Z"/><path d="M37.21,44.48a5.28,5.28,0,0,1-.28.63C36.56,45.57,37.13,44.52,37.21,44.48Z"/><path d="M42.28,37.88l0,0-.11.08C40.52,39.24,43.63,36.26,42.28,37.88Z"/><path d="M46.3,35.31l-.22.11h0l0,0h-.05Z"/><path d="M254.93,94a.32.32,0,0,1-.09,0l-.09,0,.08,0A.21.21,0,0,1,254.93,94Z"/><path d="M354.9,275.93h0a0,0,0,0,1,0,0Z"/><path d="M355,275.6a.14.14,0,0,1,0,.07v0Z"/><path d="M359.75,62.51c0-.06-.13-.32-.34-.88l-.06-.2c-.08-.29-.12-.42-.12-.45A14.55,14.55,0,0,1,359.75,62.51Z"/><path d="M366.55,229.23v0a.07.07,0,0,1,0,.05c0,.23-.11.61-.16.91a1.62,1.62,0,0,0,0,.19s0,.06,0,.08a.25.25,0,0,1,0-.08c0-.06,0-.12,0-.22a.5.5,0,0,0,0-.12s0-.08,0-.11v0a.09.09,0,0,0,0-.05l0-.14a.52.52,0,0,0,0-.11c0-.09,0-.17.05-.23l0-.14A.06.06,0,0,1,366.55,229.23Z"/><path d="M367.65,94.64v0A.08.08,0,0,1,367.65,94.64Z"/><path d="M372.93,139.18s0-.06,0-.09a1.28,1.28,0,0,0,0-.19v-.13C372.92,138.86,372.92,139,372.93,139.18Z"/><path d="M373,140.1c0-.12,0-.23,0-.34s0,0,0,0h0C373,139.86,373,140,373,140.1Z"/><path d="M373,181.35h0c0,.06,0,.11,0,.16Z"/><path d="M373,180.61c0,.12,0,.24,0,.34a1.52,1.52,0,0,1,0,.23v0c0-.1,0-.21,0-.32A1.64,1.64,0,0,0,373,180.61Z"/><path d="M149.25,184.73c-17.89-10.11-41.54-10.43-59.54,0-5.58,3.24-7.75-16.4-2.37-19.52,19.5-11.3,44.89-11,64.28,0C157.1,168.3,154.84,187.89,149.25,184.73Z"/><path d="M299.25,184.73c-17.87-11.72-41.76-11.38-59.54,0-5.27,3.37-7.66-16.13-2.37-19.52,19.14-12.26,45-12.62,64.28,0C307,168.71,304.37,188.09,299.25,184.73Z"/><path d="M203,298.65a1.19,1.19,0,0,1-.13-.25h0l0,0h0A1,1,0,0,1,203,298.65Z"/><path d="M186.1,298.4a1.19,1.19,0,0,1-.13.25,1,1,0,0,1,.08-.2h0l0,0Z"/><path d="M316.66,264.61a113.19,113.19,0,0,0-59,15.8c-3.66,2.19-5.16-10.87-1.58-13,17.71-10.6,39.83-16.73,60.58-16.29C320.92,251.2,320.78,264.69,316.66,264.61Z"/><path d="M321.1,295.62a114,114,0,0,0-61,3.49c-4.49,1.57-5.24-11.74-1.58-13,19.6-6.85,42.22-8.58,62.6-4C325.59,283.14,324.55,296.41,321.1,295.62Z"/><path d="M131.31,280.41a113.25,113.25,0,0,0-59-15.8c-4.16.09-4.21-13.41,0-13.5,20.75-.44,42.87,5.69,60.58,16.29C136.51,269.56,134.91,282.57,131.31,280.41Z"/><path d="M128.88,299.11a114,114,0,0,0-61-3.49c-3.5.8-4.46-12.48,0-13.5,20.37-4.62,43-2.88,62.59,4C134.17,287.38,133.33,300.66,128.88,299.11Z"/></g></g></svg>