<?xml version="1.0" encoding="UTF-8"?><svg id="Layer_2" xmlns="http://www.w3.org/2000/svg" viewBox="0 0 509.13 540.14"><defs><style>.cls-1{fill:#fff;}</style></defs><g id="Layer_1-2"><g><g><path d="M20.87,233.75c.13,3.71-.35-4.39,0,0h0Z"/><path d="M38.82,80.95s-.04,.21-.13,.55c-.33,.92-.48,1.32-.54,1.41,.03-.17,.55-1.78,.67-1.96Z"/><path d="M48.72,58.25c-.01,.08-.13,.33-.37,.83-.5,.6,.26-.77,.37-.83Z"/><path d="M55.35,49.58c-.05,.05-.12,.1-.17,.14-2.15,1.66,1.92-2.23,.17-.14Z"/><path d="M454.6,49.71c-.2-.19-.43-.36-.64-.54,.09,.07,.29,.24,.64,.54Z"/><path d="M33.23,321.69s.03,.09,.04,.21c-.03-.12-.04-.2-.04-.21Z"/><path d="M20.98,180.94s0,.05-.01,.08c-.04,.64-.08,1.03-.1,1.24,.03-.77,.21-3.47,.12-1.32Z"/><path d="M33.58,323.46c.03,.2,.04,.31,.04,.38-.05-.26-.22-1.18-.31-1.73,.05,.18,.1,.43,.17,.77l.04,.24s.01,.03,.01,.04c0,.03,.01,.05,.01,.08,.01,.08,.03,.16,.04,.22Z"/><path d="M43.64,363.8c.54,1.83-.24-.41-.33-.81,.07,.1,.16,.34,.31,.76,0,.03,.01,.04,.01,.05Z"/><path d="M60.15,46.44c.13-.05,.29-.12,.47-.2-.09,.04-.17,.08-.25,.12-.01,0-.03,.01-.04,.01-.07,.03-.13,.05-.18,.07Z"/><path d="M333.9,123.16c.07,.03,.14,.04,.22,.07-.03,0-.05-.01-.08-.01-.05-.01-.09-.03-.14-.04-.04-.01-.08-.03-.13-.04-.03,0-.05-.01-.08-.03h.03c.05,.01,.12,.04,.18,.05Z"/><path d="M470.34,79.85c.1,.17,.59,1.64,.65,1.94-.07-.13-.18-.43-.39-1.01,0-.03-.01-.05-.03-.08-.03-.08-.04-.14-.07-.2-.12-.43-.17-.62-.17-.65Z"/><path d="M479.91,300.11c.01-.05,.01-.07,.03-.05,0,.05-.18,1.07-.29,1.6,0-.07,.01-.14,.03-.24,.01-.05,.03-.1,.03-.16,.01-.08,.03-.13,.03-.14v-.03c.01-.05,.01-.07,.01-.07,.01-.05,.03-.12,.04-.18,.01-.05,.03-.1,.03-.14,.01-.07,.03-.12,.03-.16,.01-.09,.03-.16,.04-.22,.01-.09,.04-.16,.04-.21Z"/><path d="M481.21,123.05c.01,.07,.03,.12,.03,.17-.01-.07-.03-.13-.04-.2-.01-.1-.03-.21-.05-.31,.03,.12,.04,.24,.07,.34Z"/><path d="M488.25,181.94c.01,.14,.03,.29,.04,.5,0-.09-.01-.2-.03-.29,0-.08-.01-.14-.01-.21Z"/><path d="M488.38,236.5c-.01,.16-.01,.31-.03,.44,0,.09-.01,.18-.03,.26,.01-.13,.01-.27,.03-.42,.01-.09,.03-.2,.03-.29Z"/><g><path d="M495.54,84.97c-5.55-24.24-12.69-51.45-27.99-71.61-4.88-6.43-11.17-12.3-19.52-13.24-10.16-1.14-20.99,5.79-28.77,11.51-22.1,16.25-39.97,37.96-58.32,58.14-3.72,4.1-6.49,8.34-11.67,9.78-5.6,1.56-10.95-1.13-16.25-2.61-11.61-3.22-23.7-4.75-35.68-5.71-29.76-2.36-61.29-2.46-90.94,.94-6.1,.71-12.2,1.61-18.21,2.89-5.26,1.13-10.53,3.16-15.92,3.4-14.61,.68-22.72-11.46-31.86-21.02-10.32-10.79-20.78-21.48-31.86-31.49-9.43-8.51-19.67-17.42-31.46-22.46-8.47-3.63-17.65-5.2-25.57,.52-7.93,5.71-13.07,14.4-17.61,22.82-13.54,25.14-19.9,54.43-25.03,82.27C2.37,144.51-.51,180.76,.07,216.72c.58,35.42,5.97,70.03,11.63,104.91,5.39,33.3,12.28,66.77,27,97.37,16.81,34.96,42.88,64.63,74.4,87.14,28.29,20.22,60.87,30.88,95.44,33.18,15.44,1.02,30.93,.81,46.39,.8,27.13,0,54.13-.09,80.65-6.63,35.42-8.73,65.36-26.96,90.83-52.91,46.26-47.15,63.28-111.76,74.2-175.03,12.58-72.95,11.52-148.28-5.05-220.57Zm-6.56,132.32c-.05,4.23-.16,8.46-.31,12.69-.08,2.11-.18,4.22-.29,6.32-.01,.17-.01,.33-.03,.48,.01-.09,.03-.2,.03-.29-.01,.16-.01,.31-.03,.44,0,.09-.01,.18-.03,.26v.13c-.08,1.11-.16,2.23-.25,3.34-1.32,17.69-3.97,35.18-6.99,52.65-.35,2.1-.73,4.19-1.1,6.28-.04,.18-.07,.34-.08,.5,.01-.05,.01-.07,.03-.05,0,.05-.18,1.07-.29,1.6,0-.07,.01-.14,.03-.24-.05,.25-.12,.55-.18,.9-.79,3.99-1.56,7.97-2.4,11.95-1.6,7.58-3.33,15.15-5.26,22.65-1.83,7.1-3.85,14.15-6.09,21.13-.05,.18-.75,2.23-1.01,3.05-.01,.07-.04,.12-.07,.18,0,.03-.01,.07-.03,.09,0,.01-.01,.01-.01,.03s-.01,.01,0,.03h-.01c-.42,1.23-.85,2.44-1.3,3.64-1.39,3.77-2.84,7.52-4.39,11.22-5.64,13.53-10.87,23.52-18.28,34.59-16.96,25.3-39.53,47.2-66.45,61.67-26.45,14.23-55.76,19.98-85.55,21.25-11.25,.47-22.48,.33-33.73,.33h-.01c-30.07,.03-61.2,.96-90.17-8.45-33.99-11.03-64.4-34.28-87.15-61.49-10.12-12.11-18.42-24.7-25.02-38.59-3.22-6.77-6.01-13.72-8.55-20.77-.16-.43-.29-.79-.39-1.06,.54,1.83-.24-.41-.33-.81,.07,.1,.16,.34,.31,.76-.08-.3-.21-.71-.37-1.23-.54-1.75-1.1-3.5-1.62-5.26-1.2-4.08-2.32-8.2-3.35-12.33-1.77-7.06-3.26-14.17-4.66-21.3-.01-.05-.03-.1-.04-.16,.03,.2,.04,.31,.04,.38-.05-.26-.22-1.18-.31-1.73,.05,.18,.1,.43,.17,.77-.04-.25-.1-.56-.16-.93-.3-1.79-.63-3.57-.93-5.37-.71-4.18-1.39-8.37-2.06-12.56-2.34-14.85-4.96-29.68-6.93-44.59-1.07-8.22-1.82-16.47-2.46-24.75-.03-.37-.05-.68-.08-.94,.13,3.71-.35-4.39,0,0-.01-.34-.03-.76-.05-1.31-.09-2.1-.2-4.19-.27-6.28-.18-4.9-.28-9.8-.3-14.69-.05-8.37,.12-16.75,.48-25.11,.07-1.73,.17-3.46,.25-5.19v-.14c-.04,.64-.08,1.03-.1,1.24,.03-.77,.21-3.47,.12-1.32,.01-.25,.04-.55,.07-.89,.35-4.75,.71-9.52,1.15-14.27,.76-7.94,1.69-15.86,2.8-23.74,.54-3.82,1.13-7.63,1.75-11.43,.31-1.86,.64-3.72,.96-5.59,.03-.14,.05-.27,.08-.42h0c.03-.14,.05-.26,.07-.38,.04-.24,.08-.42,.1-.58-.01,.08-.03,.17-.04,.26,.16-.82,.33-1.65,.48-2.47,2.7-13.5,6.55-26.52,10.24-39.75,.01-.07,.04-.12,.04-.17-.33,.92-.48,1.32-.54,1.41,.03-.17,.55-1.78,.67-1.96,0,.04-.04,.21-.13,.55,.01-.03,.03-.05,.04-.09,.5-1.34,.97-2.68,1.48-4.03,.94-2.54,1.95-5.05,3.02-7.56,.98-2.3,2.02-4.58,3.13-6.84,.51-1.05,1.06-2.08,1.6-3.13,.16-.31,.29-.58,.39-.79-.5,.6,.26-.77,.37-.83-.01,.08-.13,.33-.37,.83,.07-.08,.16-.21,.28-.39,2.17-3.13,4.24-6.14,6.7-9.06,.01-.01,.03-.03,.03-.04-.05,.05-.12,.1-.17,.14-2.15,1.66,1.92-2.23,.17-.14,.51-.41,1.01-.84,1.55-1.23,1.09-.77,2.21-1.43,3.43-1.98-.07,.03-.13,.05-.18,.07,.13-.05,.29-.12,.47-.2-.09,.04-.17,.08-.25,.12,.34-.1,.75-.22,1.02-.22,.93-.03,1.82-.14,2.75-.12,1.66,.05,3.34,.34,4.95,.77,2.29,.6,9.27,4.32,13,6.76,10.89,7.11,20.69,15.99,29.94,25.08,9.19,9.01,18,18.38,26.92,27.68,4.58,4.77,9.09,10.2,14.87,13.51,7.67,4.4,16.69,5.68,25.22,3.51,24.92-6.35,50.25-7.27,75.86-7.27s51.82-.13,76.71,6.47c.63,.17,1.27,.34,1.9,.52,0,0,.01,0,.03,.01h.04s.05,.01,.07,.03c.01,0,.03,0,.04,.01h.03c.05,.01,.12,.04,.18,.05,.07,.03,.14,.04,.22,.07-.03,0-.05-.01-.08-.01,.37,.12,.77,.24,.92,.29,3.23,1.07,6.49,2.32,9.95,2.42,9.02,.26,15.53-4.96,21.34-11.14,8.14-8.64,15.9-17.64,23.95-26.35,8.59-9.3,17.22-18.32,26.83-26.44,7.16-6.05,18.54-14.86,25.91-15.71,1.9-.21,3.63-.24,5.54-.14,.33,.01,.85,.17,1.22,.3-.1-.05-.25-.1-.42-.18,.2,.08,.41,.14,.59,.25,.05,.03,.09,.04,.1,.04,0,0,.01,0,.01,.01h.01s.01,0,.03,.01c.03,.01,.04,.01,.05,.03,.1,.05,.2,.1,.29,.17,1.03,.71,2.13,1.32,3.17,2.04,.13,.09,.25,.21,.38,.33,0,.05,1.39,1.34,1.75,1.81,1.17,1.45,2.3,2.89,3.35,4.43,.52,.77,2.59,4.44,2.46,4.07,2.24,4.3,4.28,8.64,6.06,13.12,1.03,2.61,1.99,5.22,2.93,7.86,.01,.04,.03,.07,.04,.09-.12-.43-.17-.62-.17-.65,.1,.17,.59,1.64,.65,1.94-.07-.13-.18-.43-.39-1.01,.05,.17,.12,.37,.18,.6,.46,1.47,.93,2.92,1.37,4.39,1.92,6.28,3.61,12.64,5.13,19.01,.83,3.43,1.6,6.86,2.32,10.31,.38,1.77,.73,3.55,1.09,5.32,.04,.21,.2,1.05,.37,1.89,.01,.05,.03,.1,.04,.17,.01,.09,.03,.17,.04,.25,.03,.12,.04,.24,.07,.34,.01,.07,.03,.12,.03,.17,.05,.26,.08,.46,.1,.59,.01,.05,.03,.08,.03,.12s.01,.08,.01,.1,.01,.04,.01,.04c1.34,7.59,2.5,15.23,3.5,22.89,1.03,8.01,1.89,16.05,2.57,24.11,.29,3.46,.55,6.93,.77,10.4v.1s.01,.09,.01,.14c0,.07,0,.13,.01,.21h0c.01,.16,.03,.3,.04,.51,0-.09-.01-.2-.03-.29,.05,1.1,.17,3.21,.18,3.54,.13,2.79,.24,5.59,.33,8.39,.24,7.74,.31,15.48,.21,23.22Z"/><path d="M488.98,217.29c-.05,4.23-.16,8.46-.31,12.69-.08,2.11-.18,4.22-.29,6.32-.01,.17-.01,.33-.03,.48-.01,.14-.01,.29-.03,.42v.13c-.08,1.11-.16,2.23-.25,3.34-1.32,17.69-3.97,35.18-6.99,52.65-.35,2.1-.73,4.19-1.1,6.28-.04,.18-.07,.34-.08,.5,0,.05-.03,.12-.04,.21-.01,.07-.03,.13-.04,.22,0,.04-.01,.09-.03,.16,0,.04-.01,.09-.03,.14-.01,.07-.03,.13-.04,.18,0,0,0,.01-.01,.07v.03s-.01,.07-.03,.14c0,.05-.01,.1-.03,.16-.05,.25-.12,.55-.18,.9-.79,3.99-1.56,7.97-2.4,11.95-1.6,7.58-3.33,15.15-5.26,22.65-1.83,7.1-3.85,14.15-6.09,21.13-.05,.18-.75,2.23-1.01,3.05-.01,.07-.04,.12-.07,.18,0,.03-.01,.07-.03,.09,0,.01-.01,.01-.01,.03s-.01,.01,0,.03h-.01c-.42,1.23-.85,2.44-1.3,3.64-1.39,3.77-2.84,7.52-4.39,11.22-5.64,13.53-10.87,23.52-18.28,34.59-16.96,25.3-39.53,47.2-66.45,61.67-26.45,14.23-55.76,19.98-85.55,21.25-11.25,.47-22.48,.33-33.73,.33h-.01c-30.07,.03-61.2,.96-90.17-8.45-33.99-11.03-64.4-34.28-87.15-61.49-10.12-12.11-18.42-24.7-25.02-38.59-3.22-6.77-6.01-13.72-8.55-20.77-.16-.43-.29-.79-.39-1.06,0-.01-.01-.03-.01-.05-.08-.3-.21-.71-.37-1.23-.54-1.75-1.1-3.5-1.62-5.26-1.2-4.08-2.32-8.2-3.35-12.33-1.77-7.06-3.26-14.17-4.66-21.3-.01-.05-.03-.1-.04-.16-.01-.07-.03-.14-.04-.22,0-.03-.01-.05-.01-.08,0-.01,0-.03-.01-.04l-.04-.24c-.04-.25-.1-.56-.16-.93-.3-1.79-.63-3.57-.93-5.37-.71-4.18-1.39-8.37-2.06-12.56-2.34-14.85-4.96-29.68-6.93-44.59-1.07-8.22-1.82-16.47-2.46-24.75-.03-.37-.05-.68-.08-.94-.01-.34-.03-.76-.05-1.31-.09-2.1-.2-4.19-.27-6.28-.18-4.9-.28-9.8-.3-14.69-.05-8.37,.12-16.75,.48-25.11,.07-1.73,.17-3.46,.25-5.19v-.14s.01-.05,.01-.08c.01-.25,.04-.55,.07-.89,.35-4.75,.71-9.52,1.15-14.27,.76-7.94,1.69-15.86,2.8-23.74,.54-3.82,1.13-7.63,1.75-11.43,.31-1.86,.64-3.72,.96-5.59,.03-.14,.05-.27,.08-.42h0c.03-.14,.05-.26,.07-.38,.04-.24,.08-.42,.1-.58-.01,.08-.03,.17-.04,.26,.16-.82,.33-1.65,.48-2.47,2.7-13.5,6.55-26.52,10.24-39.75,.01-.07,.04-.12,.04-.17,.01-.03,.03-.05,.04-.09,.5-1.34,.97-2.68,1.48-4.03,.94-2.54,1.95-5.05,3.02-7.56,.98-2.3,2.02-4.58,3.13-6.84,.51-1.05,1.06-2.08,1.6-3.13,.16-.31,.29-.58,.39-.79,.07-.08,.16-.21,.28-.39,2.17-3.13,4.24-6.14,6.7-9.06,.01-.01,.03-.03,.03-.04,.51-.41,1.01-.84,1.55-1.23,1.09-.77,2.21-1.43,3.43-1.98,.01,0,.03-.01,.04-.01,.34-.1,.75-.22,1.02-.22,.93-.03,1.82-.14,2.75-.12,1.66,.05,3.34,.34,4.95,.77,2.29,.6,9.27,4.32,13,6.76,10.89,7.11,20.69,15.99,29.94,25.08,9.19,9.01,18,18.38,26.92,27.68,4.58,4.77,9.09,10.2,14.87,13.51,7.67,4.4,16.69,5.68,25.22,3.51,24.92-6.35,50.25-7.27,75.86-7.27s51.82-.13,76.71,6.47c.63,.17,1.27,.34,1.9,.52,0,0,.01,0,.03,.01h.04s.05,.01,.07,.03c.01,0,.03,0,.04,.01,.03,.01,.05,.03,.08,.03,.05,.01,.09,.03,.13,.04,.05,.01,.09,.03,.14,.04,.37,.12,.77,.24,.92,.29,3.23,1.07,6.49,2.32,9.95,2.42,9.02,.26,15.53-4.96,21.34-11.14,8.14-8.64,15.9-17.64,23.95-26.35,8.59-9.3,17.22-18.32,26.83-26.44,7.16-6.05,18.54-14.86,25.91-15.71,1.9-.21,3.63-.24,5.54-.14,.33,.01,.85,.17,1.22,.3-.1-.05-.25-.1-.42-.18,.2,.08,.41,.14,.59,.25,.05,.03,.09,.04,.1,.04,0,0,.01,0,.01,.01h.01s.01,0,.03,.01c.03,.01,.04,.01,.05,.03,.1,.05,.2,.1,.29,.17,1.03,.71,2.13,1.32,3.17,2.04,.13,.09,.25,.21,.38,.33,0,.05,1.39,1.34,1.75,1.81,1.17,1.45,2.3,2.89,3.35,4.43,.52,.77,2.59,4.44,2.46,4.07,2.24,4.3,4.28,8.64,6.06,13.12,1.03,2.61,1.99,5.22,2.93,7.86,.01,.04,.03,.07,.04,.09,.03,.05,.04,.12,.07,.2,.01,.03,.03,.05,.03,.08,.05,.17,.12,.37,.18,.6,.46,1.47,.93,2.92,1.37,4.39,1.92,6.28,3.61,12.64,5.13,19.01,.83,3.43,1.6,6.86,2.32,10.31,.38,1.77,.73,3.55,1.09,5.32,.04,.21,.2,1.05,.37,1.89,.01,.05,.03,.1,.04,.17,.01,.09,.03,.17,.04,.25,.03,.1,.04,.21,.05,.31,.01,.07,.03,.13,.04,.2,.05,.26,.08,.46,.1,.59,.01,.05,.03,.08,.03,.12s.01,.08,.01,.1,.01,.04,.01,.04c1.34,7.59,2.5,15.23,3.5,22.89,1.03,8.01,1.89,16.05,2.57,24.11,.29,3.46,.55,6.93,.77,10.4v.1s.01,.09,.01,.14c0,.07,0,.13,.01,.21h0c0,.08,.01,.14,.01,.22,.05,1.1,.17,3.21,.18,3.54,.13,2.79,.24,5.59,.33,8.39,.24,7.74,.31,15.48,.21,23.22Z"/><path d="M20.87,233.75c.13,3.71-.35-4.39,0,0h0Z"/><path d="M20.98,180.94s0,.05-.01,.08c-.04,.64-.08,1.03-.1,1.24,.03-.77,.21-3.47,.12-1.32Z"/><path d="M33.23,321.69s.03,.09,.04,.21c-.03-.12-.04-.2-.04-.21Z"/><path d="M33.62,323.84c-.05-.26-.22-1.18-.31-1.73,.05,.18,.1,.43,.17,.77l.04,.24s.01,.03,.01,.04c0,.03,.01,.05,.01,.08,.01,.08,.03,.16,.04,.22,.03,.2,.04,.31,.04,.38Z"/><path d="M38.82,80.95s-.04,.21-.13,.55c-.33,.92-.48,1.32-.54,1.41,.03-.17,.55-1.78,.67-1.96Z"/><path d="M43.31,362.99c.07,.1,.16,.34,.31,.76,0,.03,.01,.04,.01,.05,.54,1.83-.24-.41-.33-.81Z"/><path d="M48.72,58.25c-.01,.08-.13,.33-.37,.83-.5,.6,.26-.77,.37-.83Z"/><path d="M55.35,49.58c-.05,.05-.12,.1-.17,.14-2.15,1.66,1.92-2.23,.17-.14Z"/><path d="M60.62,46.24c-.09,.04-.17,.08-.25,.12-.01,0-.03,.01-.04,.01-.07,.03-.13,.05-.18,.07,.13-.05,.29-.12,.47-.2Z"/><path d="M334.12,123.22s-.05-.01-.08-.01c-.05-.01-.09-.03-.14-.04-.04-.01-.08-.03-.13-.04-.03,0-.05-.01-.08-.03h.03c.05,.01,.12,.04,.18,.05,.07,.03,.14,.04,.22,.07Z"/><path d="M470.99,81.79c-.07-.13-.18-.43-.39-1.01,0-.03-.01-.05-.03-.08-.03-.08-.04-.14-.07-.2-.12-.43-.17-.62-.17-.65,.1,.17,.59,1.64,.65,1.94Z"/><path d="M479.94,300.06c0,.05-.18,1.07-.29,1.6,0-.07,.01-.14,.03-.24,.01-.05,.03-.1,.03-.16,.01-.08,.03-.13,.03-.14v-.03c.01-.05,.01-.07,.01-.07,.01-.05,.03-.12,.04-.18,.01-.05,.03-.1,.03-.14,.01-.07,.03-.12,.03-.16,.01-.09,.03-.16,.04-.22,.01-.09,.04-.16,.04-.21,.01-.05,.01-.07,.03-.05Z"/><path d="M481.23,123.22c-.01-.07-.03-.13-.04-.2-.01-.1-.03-.21-.05-.31,.03,.12,.04,.24,.07,.34,.01,.07,.03,.12,.03,.17Z"/><path d="M488.29,182.43c0-.09-.01-.2-.03-.29,0-.08-.01-.14-.01-.21,.01,.14,.03,.29,.04,.5Z"/><path d="M488.38,236.5c-.01,.16-.01,.31-.03,.44,0,.09-.01,.18-.03,.26,.01-.13,.01-.27,.03-.42,.01-.09,.03-.2,.03-.29Z"/></g></g><g><path class="cls-1" d="M20.87,233.75c.13,3.71-.35-4.39,0,0h0Z"/><path class="cls-1" d="M38.82,80.95s-.04,.21-.13,.55c-.33,.92-.48,1.32-.54,1.41,.03-.17,.55-1.78,.67-1.96Z"/><path class="cls-1" d="M48.72,58.25c-.01,.08-.13,.33-.37,.83-.5,.6,.26-.77,.37-.83Z"/><path class="cls-1" d="M55.35,49.58c-.05,.05-.12,.1-.17,.14-2.15,1.66,1.92-2.23,.17-.14Z"/><path class="cls-1" d="M454.6,49.71c-.2-.19-.43-.36-.64-.54,.09,.07,.29,.24,.64,.54Z"/><path class="cls-1" d="M33.23,321.69s.03,.09,.04,.21c-.03-.12-.04-.2-.04-.21Z"/><path class="cls-1" d="M20.98,180.94s0,.05-.01,.08c-.04,.64-.08,1.03-.1,1.24,.03-.77,.21-3.47,.12-1.32Z"/><path class="cls-1" d="M33.62,323.84c-.05-.26-.22-1.18-.31-1.73,.05,.18,.1,.43,.17,.77l.04,.24s.01,.03,.01,.04c0,.03,.01,.05,.01,.08,.01,.08,.03,.16,.04,.22,.03,.2,.04,.31,.04,.38Z"/><path class="cls-1" d="M43.31,362.99c.07,.1,.16,.34,.31,.76,0,.03,.01,.04,.01,.05,.54,1.83-.24-.41-.33-.81Z"/><path class="cls-1" d="M60.62,46.24c-.09,.04-.17,.08-.25,.12-.01,0-.03,.01-.04,.01-.07,.03-.13,.05-.18,.07,.13-.05,.29-.12,.47-.2Z"/><path class="cls-1" d="M334.12,123.22s-.05-.01-.08-.01c-.05-.01-.09-.03-.14-.04-.04-.01-.08-.03-.13-.04-.03,0-.05-.01-.08-.03h.03c.05,.01,.12,.04,.18,.05,.07,.03,.14,.04,.22,.07Z"/><path class="cls-1" d="M470.99,81.79c-.07-.13-.18-.43-.39-1.01,0-.03-.01-.05-.03-.08-.03-.08-.04-.14-.07-.2-.12-.43-.17-.62-.17-.65,.1,.17,.59,1.64,.65,1.94Z"/><path class="cls-1" d="M479.94,300.06c0,.05-.18,1.07-.29,1.6,0-.07,.01-.14,.03-.24,.01-.05,.03-.1,.03-.16,.01-.08,.03-.13,.03-.14v-.03c.01-.05,.01-.07,.01-.07,.01-.05,.03-.12,.04-.18,.01-.05,.03-.1,.03-.14,.01-.07,.03-.12,.03-.16,.01-.09,.03-.16,.04-.22,.01-.09,.04-.16,.04-.21,.01-.04,.01-.05,.01-.05h.01Z"/><path class="cls-1" d="M481.23,123.22c-.01-.07-.03-.13-.04-.2-.01-.1-.03-.21-.05-.31,.03,.12,.04,.24,.07,.34,.01,.07,.03,.12,.03,.17Z"/><path class="cls-1" d="M488.29,182.43c0-.09-.01-.2-.03-.29,0-.08-.01-.14-.01-.21,.01,.14,.03,.29,.04,.5Z"/><path class="cls-1" d="M488.38,236.5c-.01,.16-.01,.31-.03,.44,0,.09-.01,.18-.03,.26,.01-.13,.01-.27,.03-.42,.01-.09,.03-.2,.03-.29Z"/><g><path class="cls-1" d="M488.98,217.29c-.05,4.23-.16,8.46-.31,12.69-.08,2.11-.18,4.22-.29,6.32-.01,.17-.01,.33-.03,.48-.01,.14-.01,.29-.03,.42v.13c-.08,1.11-.16,2.23-.25,3.34-1.32,17.69-3.97,35.18-6.99,52.65-.35,2.1-.73,4.19-1.1,6.28-.04,.16-.07,.3-.07,.45,0,0,0,.01-.01,.05,0,.05-.03,.12-.04,.21-.01,.07-.03,.13-.04,.22,0,.04-.01,.09-.03,.16,0,.04-.01,.09-.03,.14-.01,.07-.03,.13-.04,.18,0,0,0,.01-.01,.07v.03s-.01,.07-.03,.14c0,.05-.01,.1-.03,.16-.05,.25-.12,.55-.18,.9-.79,3.99-1.56,7.97-2.4,11.95-1.6,7.58-3.33,15.15-5.26,22.65-1.83,7.1-3.85,14.15-6.09,21.13-.05,.18-.75,2.23-1.01,3.05-.01,.07-.04,.12-.07,.18,0,.03-.01,.07-.03,.09,0,.01-.01,.01-.01,.03s-.01,.01,0,.03h-.01c-.42,1.23-.85,2.44-1.3,3.64-1.39,3.77-2.84,7.52-4.39,11.22-5.64,13.53-10.87,23.52-18.28,34.59-16.96,25.3-39.53,47.2-66.45,61.67-26.45,14.23-55.76,19.98-85.55,21.25-11.25,.47-22.48,.33-33.73,.33h-.01c-30.07,.03-61.2,.96-90.17-8.45-33.99-11.03-64.4-34.28-87.15-61.49-10.12-12.11-18.42-24.7-25.02-38.59-3.22-6.77-6.01-13.72-8.55-20.77-.16-.43-.29-.79-.39-1.06,0-.01-.01-.03-.01-.05-.08-.3-.21-.71-.37-1.23-.54-1.75-1.1-3.5-1.62-5.26-1.2-4.08-2.32-8.2-3.35-12.33-1.77-7.06-3.26-14.17-4.66-21.3-.01-.05-.03-.1-.04-.16-.01-.07-.03-.14-.04-.22,0-.03-.01-.05-.01-.08,0-.01,0-.03-.01-.04l-.04-.24c-.04-.25-.1-.56-.16-.93-.3-1.79-.63-3.57-.93-5.37-.71-4.18-1.39-8.37-2.06-12.56-2.34-14.85-4.96-29.68-6.93-44.59-1.07-8.22-1.82-16.47-2.46-24.75-.03-.37-.05-.68-.08-.94-.01-.34-.03-.76-.05-1.31-.09-2.1-.2-4.19-.27-6.28-.18-4.9-.28-9.8-.3-14.69-.05-8.37,.12-16.75,.48-25.11,.07-1.73,.17-3.46,.25-5.19v-.14s.01-.05,.01-.08c.01-.25,.04-.55,.07-.89,.35-4.75,.71-9.52,1.15-14.27,.76-7.94,1.69-15.86,2.8-23.74,.54-3.82,1.13-7.63,1.75-11.43,.31-1.86,.64-3.72,.96-5.59,.03-.14,.05-.27,.08-.42h0c.03-.14,.05-.26,.07-.38,.04-.24,.08-.42,.1-.58-.01,.08-.03,.17-.04,.26,.16-.82,.33-1.65,.48-2.47,2.7-13.5,6.55-26.52,10.24-39.75,.01-.07,.04-.12,.04-.17,.01-.03,.03-.05,.04-.09,.5-1.34,.97-2.68,1.48-4.03,.94-2.54,1.95-5.05,3.02-7.56,.98-2.3,2.02-4.58,3.13-6.84,.51-1.05,1.06-2.08,1.6-3.13,.16-.31,.29-.58,.39-.79,.07-.08,.16-.21,.28-.39,2.17-3.13,4.24-6.14,6.7-9.06,.01-.01,.03-.03,.03-.04,.51-.41,1.01-.84,1.55-1.23,1.09-.77,2.21-1.43,3.43-1.98,.01,0,.03-.01,.04-.01,.34-.1,.75-.22,1.02-.22,.93-.03,1.82-.14,2.75-.12,1.66,.05,3.34,.34,4.95,.77,2.29,.6,9.27,4.32,13,6.76,10.89,7.11,20.69,15.99,29.94,25.08,9.19,9.01,18,18.38,26.92,27.68,4.58,4.77,9.09,10.2,14.87,13.51,7.67,4.4,16.69,5.68,25.22,3.51,24.92-6.35,50.25-7.27,75.86-7.27s51.82-.13,76.71,6.47c.63,.17,1.27,.34,1.9,.52,0,0,.01,0,.03,.01h.04s.05,.01,.07,.03c.01,0,.03,0,.04,.01,.03,.01,.05,.03,.08,.03,.05,.01,.09,.03,.13,.04,.05,.01,.09,.03,.14,.04,.37,.12,.77,.24,.92,.29,3.23,1.07,6.49,2.32,9.95,2.42,9.02,.26,15.53-4.96,21.34-11.14,8.14-8.64,15.9-17.64,23.95-26.35,8.59-9.3,17.22-18.32,26.83-26.44,7.16-6.05,18.54-14.86,25.91-15.71,1.9-.21,3.63-.24,5.54-.14,.33,.01,.85,.17,1.22,.3-.1-.05-.25-.1-.42-.18,.2,.08,.41,.14,.59,.25,.05,.03,.09,.04,.1,.04,0,0,.01,0,.01,.01h.01s.01,0,.03,.01c.03,.01,.04,.01,.05,.03,.1,.05,.2,.1,.29,.17,1.03,.71,2.13,1.32,3.17,2.04,.13,.09,.25,.21,.38,.33,0,.05,1.39,1.34,1.75,1.81,1.17,1.45,2.3,2.89,3.35,4.43,.52,.77,2.59,4.44,2.46,4.07,2.24,4.3,4.28,8.64,6.06,13.12,1.03,2.61,1.99,5.22,2.93,7.86,.01,.04,.03,.07,.04,.09,.03,.05,.04,.12,.07,.2,.01,.03,.03,.05,.03,.08,.05,.17,.12,.37,.18,.6,.46,1.47,.93,2.92,1.37,4.39,1.92,6.28,3.61,12.64,5.13,19.01,.83,3.43,1.6,6.86,2.32,10.31,.38,1.77,.73,3.55,1.09,5.32,.04,.21,.2,1.05,.37,1.89,.01,.05,.03,.1,.04,.17,.01,.09,.03,.17,.04,.25,.03,.1,.04,.21,.05,.31,.01,.07,.03,.13,.04,.2,.05,.26,.08,.46,.1,.59,.01,.05,.03,.08,.03,.12s.01,.08,.01,.1,.01,.04,.01,.04c1.34,7.59,2.5,15.23,3.5,22.89,1.03,8.01,1.89,16.05,2.57,24.11,.29,3.46,.55,6.93,.77,10.4v.1s.01,.09,.01,.14c0,.07,0,.13,.01,.21h0c0,.08,.01,.14,.01,.22,.05,1.1,.17,3.21,.18,3.54,.13,2.79,.24,5.59,.33,8.39,.24,7.74,.31,15.48,.21,23.22Z"/><path class="cls-1" d="M20.87,233.75c.13,3.71-.35-4.39,0,0h0Z"/><path class="cls-1" d="M20.98,180.94s0,.05-.01,.08c-.04,.64-.08,1.03-.1,1.24,.03-.77,.21-3.47,.12-1.32Z"/><path class="cls-1" d="M33.23,321.69s.03,.09,.04,.21c-.03-.12-.04-.2-.04-.21Z"/><path class="cls-1" d="M33.62,323.84c-.05-.26-.22-1.18-.31-1.73,.05,.18,.1,.43,.17,.77l.04,.24s.01,.03,.01,.04c0,.03,.01,.05,.01,.08,.01,.08,.03,.16,.04,.22,.03,.2,.04,.31,.04,.38Z"/><path class="cls-1" d="M38.82,80.95s-.04,.21-.13,.55c-.33,.92-.48,1.32-.54,1.41,.03-.17,.55-1.78,.67-1.96Z"/><path class="cls-1" d="M43.31,362.99c.07,.1,.16,.34,.31,.76,0,.03,.01,.04,.01,.05,.54,1.83-.24-.41-.33-.81Z"/><path class="cls-1" d="M48.72,58.25c-.01,.08-.13,.33-.37,.83-.5,.6,.26-.77,.37-.83Z"/><path class="cls-1" d="M55.35,49.58c-.05,.05-.12,.1-.17,.14-2.15,1.66,1.92-2.23,.17-.14Z"/><path class="cls-1" d="M60.62,46.24c-.09,.04-.17,.08-.25,.12-.01,0-.03,.01-.04,.01-.07,.03-.13,.05-.18,.07,.13-.05,.29-.12,.47-.2Z"/><path class="cls-1" d="M334.12,123.22s-.05-.01-.08-.01c-.05-.01-.09-.03-.14-.04-.04-.01-.08-.03-.13-.04-.03,0-.05-.01-.08-.03h.03c.05,.01,.12,.04,.18,.05,.07,.03,.14,.04,.22,.07Z"/><path class="cls-1" d="M470.99,81.79c-.07-.13-.18-.43-.39-1.01,0-.03-.01-.05-.03-.08-.03-.08-.04-.14-.07-.2-.12-.43-.17-.62-.17-.65,.1,.17,.59,1.64,.65,1.94Z"/><path class="cls-1" d="M479.94,300.06c0,.05-.18,1.07-.29,1.6,0-.07,.01-.14,.03-.24,.01-.05,.03-.1,.03-.16,.01-.08,.03-.13,.03-.14v-.03c.01-.05,.01-.07,.01-.07,.01-.05,.03-.12,.04-.18,.01-.05,.03-.1,.03-.14,.01-.07,.03-.12,.03-.16,.01-.09,.03-.16,.04-.22,.01-.09,.04-.16,.04-.21,.01-.04,.01-.05,.01-.05h.01Z"/><path class="cls-1" d="M481.23,123.22c-.01-.07-.03-.13-.04-.2-.01-.1-.03-.21-.05-.31,.03,.12,.04,.24,.07,.34,.01,.07,.03,.12,.03,.17Z"/><path class="cls-1" d="M488.29,182.43c0-.09-.01-.2-.03-.29,0-.08-.01-.14-.01-.21,.01,.14,.03,.29,.04,.5Z"/><path class="cls-1" d="M488.38,236.5c-.01,.16-.01,.31-.03,.44,0,.09-.01,.18-.03,.26,.01-.13,.01-.27,.03-.42,.01-.09,.03-.2,.03-.29Z"/></g></g><g><path d="M392.15,231.68c-25.53-7.54-56.67-2.36-76.06,16.38-8.03,7.76-11.26-17.7-5.88-22.89,21.21-20.52,53.41-28.44,81.94-20.01,8.82,2.61,6.28,28.36,0,26.52Z"/><path d="M194.11,248.06c-19.38-18.74-50.51-23.92-76.04-16.38-6.36,1.87-8.76-23.94,0-26.52,28.53-8.43,60.73-.51,81.94,20.01,5.46,5.28,2.08,30.6-5.89,22.89Z"/></g><g><path d="M336.69,420.63c-14.23,7.32-30.99,14.5-47.4,12.78-18.66-1.95-29.29-15.54-34.75-31.99-2.84,8.64-7.23,16.68-13.84,22.78-19.29,17.78-48.29,6.74-68.33-3.58-6.08-3.13-3.82-24.77,2.61-21.47,13.2,6.81,28.03,13.16,43.23,12.13,7.57-.51,14.85-3.34,20.16-8.88,2.49-2.59,4.45-5.66,5.6-7.99,.77-1.58,1.45-3.2,2.1-4.83,.68-1.7,.37-.97,.42-1.15,.24-.76,.47-1.52,.68-2.28,.48-1.76,.89-3.52,1.26-5.29,.03-.1,0,.08-.01,.25,.03-.17,.07-.44,.13-.89,.1-.72,.22-1.43,.33-2.15,.21-1.57,.38-3.14,.54-4.71,.04-.51,.08-1.01,.12-1.52-.01,2.54,.21-2.3,.03-.35-.01,.12-.01,.22-.03,.34,0-.42,.01-.84,.03-1.26-10.7-2.67-17.57-13.42-24.77-21.41-5.46-6.05-7.71-12.92-6.66-21.24,1.35-10.8,9.32-16.45,19.69-16.98,.12,0,.22-.01,.34-.01h.12c10.93,0,21.92-.37,32.84,0,10.54,.35,18.68,6.11,20.05,17,1.03,8.31-1.22,15.19-6.66,21.24-7.25,8.04-14.17,18.88-24.99,21.46,.01,.33,.03,.65,.03,.98-.25-2.03,.04,2.53,.01,.24,.31,2.93,.59,5.83,1.05,8.73,.03,.14,.04,.26,.05,.37-.04-.13-.07-.16-.07-.16,0,.07,.07,.43,.12,.59,0-.05-.01-.16-.03-.3,.04,.13,.08,.3,.13,.54,.17,.76,.33,1.51,.51,2.27,.35,1.47,.76,2.93,1.22,4.37,0,0,.01,.03,.03,.08,.13,.34,.62,1.72,.73,2.02,.31,.75,.62,1.49,.96,2.24,.55,1.24,1.72,3.46,1.83,3.64,1.68,2.79,3.69,5.46,6.11,7.62,17.4,15.5,44.36,4.35,61.9-4.69,6.51-3.34,8.6,18.38,2.61,21.47Z"/><g><path d="M259.51,371.61c0,.05,0,.12,.01,.18v.05c.03,2.29-.26-2.27-.01-.24Z"/><path d="M260.68,381.38c-.05-.16-.12-.52-.12-.59,0,0,.03,.03,.07,.16,0,.01,.01,.04,.01,.07,0,.01,.01,.04,.01,.07,.01,.14,.03,.25,.03,.3Z"/></g><path d="M249.52,371.84h0c.01-.13,.01-.24,.03-.35,.18-1.95-.04,2.89-.03,.35Z"/></g><g><path d="M421.15,320.29c-26.58-.56-54.57,7.12-77.26,20.7-4.78,2.87-6.74-14.25-2.07-17.05,23.2-13.88,52.16-21.91,79.33-21.33,5.56,.12,5.38,17.8,0,17.68Z"/><path d="M426.95,360.91c-25.81-5.85-55.02-4.12-79.88,4.56-5.89,2.06-6.86-15.37-2.07-17.05,25.65-8.96,55.28-11.23,81.95-5.19,5.89,1.34,4.53,18.7,0,17.68Z"/><path d="M165.36,340.99c-22.69-13.58-50.67-21.26-77.26-20.7-5.43,.12-5.51-17.56,0-17.68,27.18-.58,56.14,7.45,79.33,21.33,4.74,2.84,2.66,19.88-2.07,17.05Z"/><path d="M162.19,365.47c-24.86-8.68-54.09-10.41-79.89-4.56-4.58,1.03-5.84-16.35,0-17.68,26.68-6.05,56.3-3.77,81.95,5.19,4.87,1.7,3.77,19.09-2.06,17.05Z"/></g></g></g></svg>