<?xml version="1.0" encoding="UTF-8"?><svg id="Layer_2" xmlns="http://www.w3.org/2000/svg" viewBox="0 0 504.4 540"><defs><style>.cls-1{fill:#fff;}</style></defs><g id="Layer_1-2"><g><g><path class="cls-1" d="M471.01,205.67c-1.37,13.43-.61,26.85,1.51,40.17,2.45,15.42,6.12,30.65,7.73,46.19,1.35,12.94,1.13,25.62-.88,39.22-4.02,27.35-17.77,55.2-37.13,76.77-13.63,15.18-30.43,27.65-46.93,39.53-15.58,11.22-31.83,21.56-48.87,30.41-29.36,15.25-61.23,25.87-94.57,26.05-65.84-.36-127.41-38.17-174.53-81.42-21.67-19.88-38.42-45.59-46.45-73.98-3.78-13.41-5.8-27.76-6.1-39.85-.4-16.21,1.13-28.89,3.6-45.63,2.01-13.65,4.37-27.2,4.94-41.01,.56-13.43-1.33-26.72-4.17-39.81-3.71-17.02-9.16-33.46-11.43-50.79-2.07-15.78-2.4-32.12-.76-46.66,1.35-12.03,3.71-23.48,8.38-33.81,2.05-4.53,2.67-5.5,5.97-9.78,.87-1.13,4.7-4.22,6.16-4.64,8.1-2.35,17.07,2.45,23.82,6.34,10.68,6.16,20.36,14.03,29.67,22.08,10.9,9.44,21.24,19.47,31.6,29.49,10.66,10.36,20.43,21.08,36.44,21.6,6.49,.21,12.73-1.99,19.08-3.08,7.29-1.25,14.65-2.11,22-2.81,18.27-1.77,36.65-2.57,55.02-2.68h.73c26.25,.11,53.4,1.12,78.72,7.17,14.83,3.54,27.55-1.19,38.36-11.47,8.77-8.36,17.35-16.91,26.2-25.19,9.76-9.12,19.75-18.06,30.48-26.03,8.09-6.01,17.46-12.86,27.45-15.22,7.36-1.73,12.74,.04,16.14,4.42,6,7.77,8.77,15.49,11.25,25.58,6.96,28.2,4.93,61.89-3.28,92.73-4.04,15.18-8.56,30.39-10.14,46.09Z"/><g><path d="M16.41,204.93s-.02-.08-.05-.17c0-.05-.03-.12-.04-.21,0-.06-.02-.13-.03-.22h0c-.07-.5-.09-.7-.09-.74,.04,.16,.21,1.22,.21,1.34Z"/><path d="M263.08,71.83c-.51-.01-1.03-.02-1.54-.04-3.34-.08-6.7-.13-10.04-.16-2.86,.03-5.71,.07-8.55,.14-.45,0-.89,.02-1.33,.04,.43-.14,.87-.2,1.33-.2h1.98c4.67,0,9.36,0,14.04-.02h2.57c.54,0,1.06,.08,1.54,.24Z"/><path d="M486.43,213.77c.17-1.52,.43-3.01,.63-4.52,.06-.51,.1-.89,.14-1.16v-.04c.07-.26,.14-.58,.22-.98,.9-4.4,1.93-8.77,3.03-13.12,5.08-19.94,10.35-39.55,12.43-60.1,1.97-19.44,2.1-39.11-.07-58.54-1.75-15.55-5.03-31.12-10.78-45.7-3.73-9.45-9.08-19.88-17.65-25.85-17.5-12.22-42.66,8.35-55.68,18.78-12.47,9.99-24.1,21.03-35.61,32.1-9.5,9.16-19.86,23.11-33.6,25.18-7.17,1.08-13.53-.91-20.44-2.24-7.49-1.43-15.09-2.32-22.67-3.09-14.4-1.46-28.84-2.3-43.3-2.66-.51-.01-1.03-.02-1.54-.04-3.34-.08-6.7-.13-10.04-.16-2.86,.03-5.71,.07-8.55,.14-.45,0-.89,.02-1.33,.04-25.04,.6-50,2.68-74.58,7.67-15.31,3.12-25.2-5.05-35.42-14.95-9.84-9.53-19.65-19.13-29.83-28.29-10.04-9.07-20.43-17.93-31.84-25.25C61.71,5.72,51.36-.11,41.23,.17,19.07,.79,9.94,33.46,5.98,50.39c-8.78,37.5-7.32,77.27,.67,114.76,2.05,9.62,4.93,19.02,7.26,28.56,.84,3.43,1.64,6.88,2.32,10.34,.02,.1,.04,.19,.06,.27-.07-.49-.09-.69-.09-.73,.04,.16,.21,1.22,.21,1.34,0-.02-.02-.08-.05-.17,.04,.23,.07,.51,.12,.81,.31,2.04,.6,4.07,.83,6.11,.05,.54,.21,3,.25,3,.03,.68,.04,1.34,.04,2.02,.01,1.36-.04,2.71-.05,4.07v.36c-.02,.09-.03,.2-.04,.32-.62,6.18-1.42,12.32-2.33,18.47-5.18,34.45-8.97,68.67-3.1,103.35,5.68,33.44,18.57,65.4,40,91.91,13.17,16.27,29.29,30.08,45.78,42.87,16.46,12.77,33.9,24.34,52.37,34.01,31.26,16.39,66.07,27.72,101.6,27.94h.08c30.66-.19,60.68-9.15,88.25-22.15,34.07-16.06,66.51-38.27,94.55-63.36,52.55-47.03,70.54-118.94,58.69-187.16-2.51-14.49-5.73-28.59-7.17-43.27,.09,.37-.17-4.12-.16-5.17,0-.54,.13-2.55,.13-2.84,.07-.76,.14-1.52,.23-2.28Zm-5.28-54.19c-4.04,15.18-8.55,30.39-10.14,46.09-1.37,13.43-.61,26.85,1.51,40.16,2.45,15.42,6.11,30.66,7.73,46.2,1.34,12.94,1.13,25.61-.88,39.22-4.03,27.35-17.77,55.2-37.13,76.77-13.64,15.18-30.43,27.65-46.93,39.52-15.58,11.23-31.82,21.57-48.87,30.42-29.36,15.24-61.23,25.87-94.57,26.05-65.84-.36-127.41-38.17-174.54-81.41-21.67-19.89-38.42-45.6-46.44-73.99-3.79-13.4-5.8-27.76-6.11-39.84-.4-16.21,1.14-28.9,3.6-45.64,2.01-13.64,4.37-27.2,4.95-41,.56-13.44-1.34-26.73-4.17-39.81-3.71-17.02-9.16-33.47-11.44-50.79-2.07-15.78-2.4-32.12-.76-46.66,1.35-12.04,3.71-23.49,8.38-33.81,2.06-4.54,2.67-5.51,5.97-9.79,.87-1.13,4.71-4.22,6.16-4.63,8.1-2.35,17.07,2.45,23.82,6.34,10.67,6.16,20.36,14.03,29.66,22.08,10.91,9.44,21.25,19.47,31.6,29.5,10.67,10.35,20.43,21.08,36.44,21.6,6.49,.21,12.73-1.99,19.09-3.08,7.29-1.25,14.64-2.1,22-2.81,18.27-1.77,36.65-2.57,55.01-2.68h.74c26.25,.11,53.4,1.12,78.72,7.17,14.83,3.55,27.55-1.19,38.36-11.47,8.77-8.36,17.35-16.92,26.2-25.19,9.75-9.12,19.75-18.06,30.48-26.03,8.09-6.01,17.46-12.86,27.45-15.22,7.36-1.73,12.74,.04,16.14,4.42,6,7.77,8.77,15.49,11.25,25.58,6.96,28.2,4.93,61.89-3.28,92.73Z"/></g></g><g><path d="M412.76,320.72c-27.75-.57-57,7.17-80.86,21.06-4.94,2.88-6.89-14.57-2.11-17.34,24.39-14.21,54.6-22.3,82.96-21.71,5.66,.12,5.48,18.1,0,17.99Z"/><path d="M418.82,362.05c-27.01-5.96-57.53-4.22-83.6,4.64-6.02,2.05-6.98-15.69-2.11-17.34,26.89-9.16,57.8-11.45,85.71-5.29,6,1.33,4.64,19.02,0,17.99Z"/><path d="M172.6,341.78c-23.86-13.89-53.11-21.63-80.86-21.06-5.53,.11-5.61-17.89,0-17.99,28.36-.59,58.57,7.5,82.96,21.71,4.84,2.81,2.77,20.19-2.11,17.34Z"/><path d="M169.26,366.69c-26.06-8.86-56.59-10.59-83.59-4.64-4.7,1.04-5.94-16.67,0-17.99,27.91-6.16,58.81-3.86,85.69,5.29,4.94,1.68,3.86,19.38-2.11,17.34Z"/></g><g><path d="M383.65,237.84c-25.07-11.58-56.68-9.41-79.08,6.62-4.6,3.29-7-6.96-7.3-9.42-.64-5.05-.49-13.29,4.14-16.59,24.39-17.47,58.31-19.15,85.4-6.62,7.42,3.42,5,29.79-3.16,26.01Z"/><path d="M207.05,236.03c-.29,2.41-2.77,12.82-7.3,9.42-21.99-16.57-53.56-19.59-78.9-8.61-8.45,3.67-10.5-22.84-3.16-26.03,27.36-11.85,61.25-9.45,85.22,8.61,4.58,3.45,4.78,11.52,4.14,16.61Z"/></g><g><path d="M348.48,408.9c-14.89,10.76-32.87,22.03-51.88,22.4-24.92,.48-38.14-20.4-44.43-43.46-3.52,13.23-9.41,25.98-19.6,34.8-23.24,20.11-56.19,.97-76.54-13.74-5.84-4.22-2.69-25.72,2.65-21.84,13.95,10.09,30.43,20.78,48.22,21.55,9.05,.4,17.77-2.45,24.19-8.93,2.72-2.75,5.58-6.97,6.86-9.38,1.13-2.11,2.12-4.3,3.01-6.52,.97-2.4,1.33-3.53,1.61-4.45,1.11-3.65,2.03-7.34,2.79-11.09,0,0,0-.01,.01-.05h0s.01-.05,.01-.08c.01-.07,.03-.15,.05-.25,.01-.07,.04-.16,.05-.29-.01,0-.01-.01-.01-.01-9.88-3.4-16.5-13.59-23.42-21.26-5.54-6.16-7.84-13.14-6.78-21.62,1.39-11,9.5-16.74,20.06-17.29,.12,0,.23-.01,.35-.01h.12c11.13,0,22.31-.37,33.43,0,10.73,.36,19.02,6.22,20.4,17.3,1.05,8.48-1.24,15.46-6.78,21.62-7.01,7.78-13.71,18.14-23.8,21.39h-.01s0,.03,.01,.04v.03s.01,.04,.01,.07t.01,.03v.03s.01,.05,.01,.08c.16,.77,.31,1.53,.47,2.29,.47,2.12,.97,4.21,1.56,6.29,.29,1.08,.61,2.13,.95,3.2,.03,.09,.09,.31,.15,.49-.03-.07-.05-.13-.08-.2,.08,.23,.13,.39,.16,.47,.01,.01,.01,.04,.03,.05,.11,.29,.21,.59,.32,.87,2.96,7.89,6.2,14.65,12.9,20.18,21.56,17.78,51.95-1.27,70.3-14.53,5.42-3.93,8.4,17.69,2.65,21.84Z"/><path d="M245.48,367.56c-.01,.13-.04,.23-.05,.29-.03,.11-.04,.19-.05,.25,0,.03-.01,.05-.01,.07v-.05s.01-.07,.03-.11c.01-.05,.03-.11,.03-.16,.01-.09,.03-.19,.05-.31,0,0,0,.01,.01,.01Z"/><g><path d="M259.04,367.68s0,.03,0,.04c-.01-.01-.01-.03-.01-.03h0s.01-.01,.01-.01Z"/><path d="M262.28,380.46s.01,.01,0,.03c-.03-.08-.08-.24-.16-.47,.03,.07,.05,.13,.08,.2,.03,.04,.04,.09,.05,.13,0,.04,.01,.08,.03,.11Z"/></g></g></g></g></svg>