<svg xmlns="http://www.w3.org/2000/svg" viewBox="0 0 388.7 412.58"><defs><style>.cls-1{fill:#fff;}</style></defs><g id="Layer_2" data-name="Layer 2"><g id="Layer_1-2" data-name="Layer 1"><path class="cls-1" d="M21.45,94.14l-.12.66Q21.38,94.53,21.45,94.14Z"/><path class="cls-1" d="M29.54,62.45l-.06.17c0,.07-.05.13-.07.19C28.62,64.9,30.22,60.18,29.54,62.45Z"/><path class="cls-1" d="M33.1,277.28a4.84,4.84,0,0,1,.24.59C33.77,279.34,33.17,277.6,33.1,277.28Z"/><path class="cls-1" d="M343.18,35.38c-1-.56,1.9.28,0,0Z"/><path class="cls-1" d="M347.29,38.07l-.16-.13C345.88,36.41,348.91,39.35,347.29,38.07Z"/><path class="cls-1" d="M37.12,45l.2-.31Z"/><path class="cls-1" d="M373.31,174.09c-.06,1.61-.12,3.22-.2,4.83,0,.26-.13,2.2-.17,3a1.48,1.48,0,0,1,0,.21.22.22,0,0,1,0,.08h0c-.23,3.22-.49,6.45-.81,9.66-1.24,12.59-3.31,25.11-5.59,37.56a.13.13,0,0,1,0,.06.09.09,0,0,1,0,.05v0l0,.14v.06a.13.13,0,0,1,0,.06.36.36,0,0,1,0,.1c-.16.85-.48,2.51-.49,2.61-.3,1.53-.6,3.05-.91,4.57-.5,2.49-1,5-1.57,7.45-1.36,6.16-2.86,12.29-4.54,18.37-4.95,17.83-12.61,37-23.76,53.07-13.09,18.87-30.31,35.11-50.74,45.77-19.84,10.35-41.72,14.52-63.93,15.47-8.59.37-17.18.25-25.77.25-22.54,0-45.68.64-67.49-6-25.46-7.75-48.46-25-65.79-44.88a141.54,141.54,0,0,1-20-29.37c-2.36-4.73-4.46-9.57-6.34-14.5-.51-1.32-1-2.66-1.47-4l-.31-.84c-.06-.23-.16-.54-.28-.94-1-3.13-1.91-6.24-2.75-9.4-1.33-4.92-2.48-9.89-3.52-14.88-.28-1.35-.56-2.72-.82-4.08,0-.24-.24-1.29-.38-2,0-.07,0-.13,0-.18l0-.19h0l0-.13v0s0,0,0-.05a.18.18,0,0,1,0-.05.13.13,0,0,1,0-.06h0v0c-.47-2.69-.93-5.37-1.38-8.06-1.82-11.11-3.55-22.23-5.28-33.35q-1.44-9.33-2.27-18.74c-.19-2.19-.36-4.4-.51-6.6,0,0,0-.05,0-.15v-.06a1,1,0,0,1,0-.18,1.79,1.79,0,0,1,0-.23s0,0,0-.05v0c-.05-.88-.12-2.14-.13-2.35-.1-2.13-.17-4.27-.23-6.41q-.27-9.62,0-19.23c.06-2.65.15-5.31.27-8,.05-1.15.1-2.29.17-3.44a1.21,1.21,0,0,1,0-.19c.06-.81.25-3.86.29-4.32.91-12.07,2.35-24.12,4.38-36.06.16-.93.32-1.86.49-2.79a0,0,0,0,1,0,0s0,0,0,0a.13.13,0,0,1,0-.06.08.08,0,0,1,0,0s0,0,0-.06,0,0,0,0a0,0,0,0,1,0,0,.3.3,0,0,0,0-.1c.14-.68.41-2.17.46-2.43q.81-4,1.71-8,1.71-7.51,3.83-14.94c.66-2.29,1.39-4.56,2.1-6.84a1.21,1.21,0,0,0,.05-.18c0-.06,0-.12.07-.19l.06-.17c0-.06.05-.13.07-.2.37-1,.73-2.06,1.12-3.08a118.22,118.22,0,0,1,4.7-11c.32-.65,2-3.49,2-3.6s0,0-.09.09c.62-1,1.25-2,2-3s1.7-2.16,2.57-3.23c.1-.12.26-.29.42-.45l-.24.2c.18-.17.37-.33.56-.49l.12-.1h0a.13.13,0,0,1,.06-.05l0,0h0a4.46,4.46,0,0,1,.43-.33c.8-.52,1.57-1,2.42-1.5.18-.09.58-.23.8-.32l-.55.13.69-.19-.1,0c.51-.1,1-.16,1.54-.21a22.64,22.64,0,0,1,10.91,2c9.44,3.93,17.92,10.18,25.85,16.54a285.17,285.17,0,0,1,22.39,20.1c4,3.91,7.55,7.65,12.93,9.52,6,2.1,11.24,1.9,17.33.28,18.73-5,38.5-5,57.73-5s38.68.31,57.42,5.13l1,.29-.18-.07.29.1h0l.18.06H254l1,.34c2.81.91,5.52,1.84,8.51,1.62,6.45-.47,10.72-4.25,15-8.64C285,71,290.84,65.37,297.93,59.26c7.72-6.65,15.8-13,24.64-18.14,6.57-3.78,12.82-6.95,20.49-5.76l.12,0,.15.08a13.88,13.88,0,0,1,1.33.68c.85.57,1.66,1.17,2.47,1.8l.05.07c.42.5.87,1,1.29,1.48A41.7,41.7,0,0,1,351,43c.43.65.82,1.33,1.25,2-1-2.22,1.5,2.27,0,0l.07.14c.77,1.64,1.65,3.23,2.41,4.88,1.79,3.87,3.21,7.85,4.71,11.83-.18-.6-.24-.84-.24-.87a15.1,15.1,0,0,1,.49,1.48,3.39,3.39,0,0,1-.19-.46.36.36,0,0,0,0-.09q0,.13.09.3c.35,1.12.71,2.23,1.05,3.35.72,2.34,1.39,4.69,2,7.05q2.22,8.28,3.94,16.69c.19.9.37,1.81.55,2.72,0,.16.15.8.28,1.44,0,0,0-.06,0-.09q.07.39.12.66,0,.1,0,.18a0,0,0,0,1,0,0,1.66,1.66,0,0,1,.05.26.52.52,0,0,1,0,.11s0,0,0,.06,0,0,0,0,0,.06,0,.08a0,0,0,0,0,0,0q.62,3.57,1.19,7.14,1.51,9.69,2.55,19.45c.61,5.72,1.08,11.44,1.48,17.18,0,.19,0,.37,0,.52-.06-1.73.1.89.1,1.19,0-.07,0-.32-.08-.86q0,.34,0,.84c.07,1.6.15,3.19.21,4.79.15,3.75.25,7.51.29,11.26Q373.61,165.21,373.31,174.09Z"/><path d="M21.25,95.25a.25.25,0,0,0,0,.08.3.3,0,0,0,0-.1S21.25,95.24,21.25,95.25Z"/><path d="M380.22,73c-4-19.88-9.46-40.39-20-57.92-3-5-7-10.63-12.39-13.21-7.34-3.53-15.4-1.21-22.46,1.89-19.13,8.4-35.31,24.33-50,38.79-3,3-5.72,6.86-9.65,8.15-4.25,1.4-8.41-.65-12.45-1.79a139,139,0,0,0-25.49-4.29,373,373,0,0,0-68.32.2c-8.77.87-17,2.85-25.61,4.68C121.34,52.14,114.39,42.7,106.26,35A241.31,241.31,0,0,0,79.63,12.83c-8-5.59-17-11.09-26.81-12.6C37.41-2.15,28.69,14.14,23.3,25.9,13.91,46.39,9.07,69.07,5.45,91.2A413.54,413.54,0,0,0,.27,172.79c1,26.16,5.12,51.93,9.48,77.7,4.23,25,9.84,50.1,21.45,72.84a176.92,176.92,0,0,0,57.4,64.82C109.9,402.81,134.28,410.36,160,412c11.56.73,23.15.58,34.73.56h0c20.24,0,40.4,0,60.22-4.73,26.7-6.3,49.41-19.63,68.86-38.85,35.05-34.62,48.83-82,57.43-129.18C391.32,184.42,391.4,128.2,380.22,73Zm-6.91,101.14c-.06,1.61-.12,3.22-.2,4.83,0,.26-.13,2.2-.17,3a1.48,1.48,0,0,1,0,.21.22.22,0,0,1,0,.08h0c-.23,3.22-.49,6.45-.81,9.66-1.24,12.59-3.31,25.11-5.59,37.56a.13.13,0,0,1,0,.06.09.09,0,0,1,0,.05v0l0,.14v.06a.13.13,0,0,1,0,.06.36.36,0,0,1,0,.1c-.16.85-.48,2.51-.49,2.61-.3,1.53-.6,3.05-.91,4.57-.5,2.49-1,5-1.57,7.45-1.36,6.16-2.86,12.29-4.54,18.37-4.95,17.83-12.61,37-23.76,53.07-13.09,18.87-30.31,35.11-50.74,45.77-19.84,10.35-41.72,14.52-63.93,15.47-8.59.37-17.18.25-25.77.25-22.54,0-45.68.64-67.49-6-25.46-7.75-48.46-25-65.79-44.88a141.54,141.54,0,0,1-20-29.37c-2.36-4.73-4.46-9.57-6.34-14.5-.51-1.32-1-2.66-1.47-4l-.31-.84c.43,1.47-.17-.27-.24-.59a4.84,4.84,0,0,1,.24.59c-.06-.23-.16-.54-.28-.94-1-3.13-1.91-6.24-2.75-9.4-1.33-4.92-2.48-9.89-3.52-14.88-.28-1.35-.56-2.72-.82-4.08,0-.24-.24-1.29-.38-2,0-.07,0-.13,0-.18l0-.19h0l0-.13v0s0,0,0-.05a.18.18,0,0,1,0-.05.13.13,0,0,1,0-.06h0v0c-.47-2.69-.93-5.37-1.38-8.06-1.82-11.11-3.55-22.23-5.28-33.35q-1.44-9.33-2.27-18.74c-.19-2.19-.36-4.4-.51-6.6,0,0,0-.05,0-.15v-.06a1,1,0,0,1,0-.18,1.79,1.79,0,0,1,0-.23s0,0,0-.05v0c-.05-.88-.12-2.14-.13-2.35-.1-2.13-.17-4.27-.23-6.41q-.27-9.62,0-19.23c.06-2.65.15-5.31.27-8,.05-1.15.1-2.29.17-3.44a1.21,1.21,0,0,1,0-.19c.06-.81.25-3.86.29-4.32.91-12.07,2.35-24.12,4.38-36.06.16-.93.32-1.86.49-2.79a0,0,0,0,1,0,0s0,0,0,0a.13.13,0,0,1,0-.06.08.08,0,0,1,0,0s0,0,0-.06,0,0,0,0a0,0,0,0,1,0,0,.25.25,0,0,1,0-.08s0,0,0,0c.14-.68.41-2.17.46-2.43q.81-4,1.71-8,1.71-7.51,3.83-14.94c.66-2.29,1.39-4.56,2.1-6.84a1.21,1.21,0,0,0,.05-.18c-.79,2.09.81-2.63.13-.36,0-.06.05-.13.07-.2.37-1,.73-2.06,1.12-3.08a118.22,118.22,0,0,1,4.7-11c.32-.65,2-3.49,2-3.6s0,0-.09.09c.62-1,1.25-2,2-3s1.7-2.16,2.57-3.23c.1-.12.26-.29.42-.45l-.24.2c.18-.17.37-.33.56-.49a.53.53,0,0,1,.12-.1h0a.13.13,0,0,1,.06-.05l0,0h0a4.46,4.46,0,0,1,.43-.33c.8-.52,1.57-1,2.42-1.5.18-.09.58-.23.8-.32l-.55.13.69-.19-.1,0c.51-.1,1-.16,1.54-.21a22.64,22.64,0,0,1,10.91,2c9.44,3.93,17.92,10.18,25.85,16.54a285.17,285.17,0,0,1,22.39,20.1c4,3.91,7.55,7.65,12.93,9.52,6,2.1,11.24,1.9,17.33.28,18.73-5,38.5-5,57.73-5s38.68.31,57.42,5.13l1,.29-.18-.07.29.1h0l.18.06H254l1,.34c2.81.91,5.52,1.84,8.51,1.62,6.45-.47,10.72-4.25,15-8.64C285,71,290.84,65.37,297.93,59.26c7.72-6.65,15.8-13,24.64-18.14,6.57-3.78,12.82-6.95,20.49-5.76l.12,0c-1-.56,1.9.28,0,0l.15.08a13.88,13.88,0,0,1,1.33.68c.85.57,1.66,1.17,2.47,1.8-1.25-1.53,1.78,1.41.16.13l-.16-.13.05.07c.42.5.87,1,1.29,1.48A41.7,41.7,0,0,1,351,43c.43.65.82,1.33,1.25,2-1-2.22,1.5,2.27,0,0l.07.14c.77,1.64,1.65,3.23,2.41,4.88,1.79,3.87,3.21,7.85,4.71,11.83-.18-.6-.24-.84-.24-.87a15.1,15.1,0,0,1,.49,1.48,3.39,3.39,0,0,1-.19-.46.36.36,0,0,0,0-.09q0,.13.09.3c.35,1.12.71,2.23,1.05,3.35.72,2.34,1.39,4.69,2,7.05q2.22,8.28,3.94,16.69c.19.9.37,1.81.55,2.72,0,.16.15.8.28,1.44,0,0,0-.06,0-.09q.07.39.12.66,0,.1,0,.18a0,0,0,0,1,0,0,1.66,1.66,0,0,1,.05.26.52.52,0,0,1,0,.11s0,0,0,.06,0,0,0,0,0,.06,0,.08a0,0,0,0,0,0,0q.62,3.57,1.19,7.14,1.51,9.69,2.55,19.45c.61,5.72,1.08,11.44,1.48,17.18,0,.19,0,.37,0,.52-.06-1.73.1.89.1,1.19,0-.07,0-.32-.08-.86q0,.34,0,.84c.07,1.6.15,3.19.21,4.79.15,3.75.25,7.51.29,11.26Q373.61,165.21,373.31,174.09Z"/><path d="M21.33,94.8q0-.27.12-.66Z"/><path d="M25.52,246.16l0-.13v0Z"/><path d="M25.59,246.54c0-.07,0-.13,0-.18l0-.19c0,.06,0,.13,0,.2Z"/><path d="M29.54,62.45l-.06.17c0,.07-.05.13-.07.19C28.62,64.9,30.22,60.18,29.54,62.45Z"/><path d="M33.1,277.28a4.84,4.84,0,0,1,.24.59C33.77,279.34,33.17,277.6,33.1,277.28Z"/><path d="M46.62,35.28l-.1,0h0l-.55.13Z"/><path d="M253.73,84.08a.45.45,0,0,1-.11,0l-.18-.07Z"/><path d="M343.18,35.38c-1-.56,1.9.28,0,0Z"/><path d="M347.29,38.07l-.16-.13C345.88,36.41,348.91,39.35,347.29,38.07Z"/><path d="M352.29,45l0,0C351.25,42.75,353.77,47.24,352.29,45Z"/><path d="M359.73,62.47a3.39,3.39,0,0,1-.19-.46.36.36,0,0,0,0-.09.14.14,0,0,0,0-.06c-.18-.6-.24-.84-.24-.87A15.1,15.1,0,0,1,359.73,62.47Z"/><path d="M366.47,229.67v.06S366.47,229.69,366.47,229.67Z"/><path d="M367.58,94.22a1.29,1.29,0,0,1,0-.19,2.93,2.93,0,0,0-.05-.29c0-.09,0-.18-.05-.27s0-.06,0-.09q.07.39.12.66Q367.57,94.15,367.58,94.22Z"/><path d="M367.65,94.61v0a.28.28,0,0,1,0-.09A.52.52,0,0,1,367.65,94.61Z"/><path d="M373.05,140.3c0-.07,0-.32-.08-.86a1.62,1.62,0,0,0,0-.21.49.49,0,0,1,0-.12C372.89,137.38,373.05,140,373.05,140.3Z"/><path class="cls-1" d="M124.34,175h-3C122.33,175,123.34,175,124.34,175Z"/><path d="M159.11,178.63c-.24,2-3.17,13.39-7.31,9.43-7.86-7.53-17.25-12.57-27.46-13-1,0-2,0-3,0a35.39,35.39,0,0,0-9.45,1.74,51,51,0,0,0-13.19,6.77c-1.37.95-2.68,2-4,3-.31.25-.9.79-1.24,1.11l1-1c-8.12,7.93-11.44-18-6-23.31a54.61,54.61,0,0,1,21.3-13c16.7-5.42,32.68-.35,45.19,11.62C159.27,166.15,159.81,173,159.11,178.63Z"/><path d="M93.38,187.78l-.15.14Z"/><path d="M308.51,181.86c-1,3.9-4.17,9.15-8.12,4.84l-.13-.15.06,0c1.05.87-1-1.1-.06,0-1.21-1-2.36-2.05-3.62-3a44.42,44.42,0,0,0-12.21-6.5c-15.08-5-29.74,1.34-41.38,11-4.37,3.62-7-7.26-7.31-9.43-.66-5.35-.34-12.89,4.15-16.61,13.36-11.06,29.79-16.87,46.74-11.3a47,47,0,0,1,19.75,12.67C310.29,167.64,309.84,176.84,308.51,181.86Z"/><path d="M300.32,186.6l-.06,0C299.31,185.5,301.37,187.47,300.32,186.6Z"/><path d="M199.34,288.54h-.17a16.3,16.3,0,0,1-8.12-2.18c.31.16.63.3.95.45A18.35,18.35,0,0,0,199.34,288.54Z"/><path d="M204.1,287.25l-.18,0v-.32c0-.22,0-.44,0-.66V286C204,286.43,204,286.84,204.1,287.25Z"/><path class="cls-1" d="M192.81,294.36a1,1,0,0,1,.05-.16.69.69,0,0,1,0-.13C193.52,292.62,192.41,295.86,192.81,294.36Z"/><path class="cls-1" d="M190.76,298.88l.12-.15a.76.76,0,0,1-.09.15.25.25,0,0,1,0,.07,1.28,1.28,0,0,1-.1.15.08.08,0,0,1,0,0l.08-.15Z"/><path class="cls-1" d="M194,289.67v-.05C194.32,288.51,193.77,291.71,194,289.67Z"/><path d="M272.81,311.65c-12.06,8.14-25.48,16.09-40.08,18.45s-26.52-4.46-32.72-17.66c-.3-.63-.58-1.26-.84-1.91-3,7.34-7.61,13.93-14.85,17.37-19.42,9.2-43.27-5.78-58.78-16.25-5.66-3.82-2.83-24.45,2.52-20.83,3.86,2.61,7.87,5.24,12,7.65,7.74,4.52,16,8.31,24.63,9.88,6.19,1.12,12.85,1.14,18.4-2a16.62,16.62,0,0,0,5.15-4.12c.82-1,1.54-2,2.26-3.06l.21-.3-.08.15a.08.08,0,0,0,0,0,1.28,1.28,0,0,0,.1-.15.25.25,0,0,0,0-.07.76.76,0,0,0,.09-.15l-.12.15q.39-.74.75-1.47c.5-1.06.9-2.14,1.35-3.21a1,1,0,0,0-.05.16c-.4,1.5.71-1.74.1-.29a.69.69,0,0,0,0,.13c.13-.49.29-1,.43-1.47.28-1,.46-2,.73-3.06-.25,2,.3-1.16,0-.05,0-.12,0-.26.05-.42.08-.64.13-1.3.18-1.95l.17,0c0-.33,0-.65,0-1V286a.13.13,0,0,1,0-.06v-.33c0-.47,0-1,.11-1.68q.06-.61.15-1.29c0-.14.05-.29.07-.44.05-.31.1-.61.16-.92a16.89,16.89,0,0,1,.59-2.25c.1-.29.21-.57.32-.84s.25-.52.38-.76l.21-.35a5,5,0,0,1,.47-.62,3.31,3.31,0,0,1,.26-.27,2.73,2.73,0,0,1,2-.79,3.78,3.78,0,0,1,3.16,2.34c.13.25.25.51.36.77a14.69,14.69,0,0,1,.55,1.7c.07.29.14.59.2.89s.17.9.23,1.34.14,1.17.18,1.7c.05.71.07,1.35.08,1.86v.2c0,.22,0,.44,0,.66v.32l.18,0c.16,1,.33,2.11.4,3.13,0-.25,0-.46,0-.62a14.86,14.86,0,0,0,.3,1.84c.24,1,.53,1.9.81,2.85a.42.42,0,0,0,0,.1c.24.55.44,1.12.68,1.67.38.87.79,1.72,1.25,2.56.06,0,1.32,2,1.66,2.43.57.74,1.86,2.18,2,2.32a26,26,0,0,0,6.17,3.91c12.82,5.38,28.33-1.37,41-8.94,4.39-2.62,8.44-5.34,11.91-7.68,3.73-2.52,5.58,5.47,5.84,7.54C276.62,302.31,276.56,309.12,272.81,311.65Z"/><path d="M190.88,298.73a.76.76,0,0,1-.09.15.25.25,0,0,1,0,.07,1.28,1.28,0,0,1-.1.15.08.08,0,0,1,0,0l.08-.15,0,0Z"/><path d="M192.81,294.36a1,1,0,0,1,.05-.16.69.69,0,0,1,0-.13C193.52,292.62,192.41,295.86,192.81,294.36Z"/><path d="M194,289.67v-.05C194.32,288.51,193.77,291.71,194,289.67Z"/><path d="M194.43,286v-.33c-.08.53-.13,1.07-.17,1.61l.17,0c0-.33,0-.65,0-1,0,1.58,0,.75,0-.2A.13.13,0,0,1,194.43,286Z"/><path d="M222,271.72c-5,5.57-9.83,12.92-16.87,15.69a6.62,6.62,0,0,1-.62.24,4.69,4.69,0,0,1-.6.2,15.69,15.69,0,0,1-3.94.68h-.6a18.35,18.35,0,0,1-7.34-1.72c-.32-.15-.64-.29-.95-.45-4.11-2.3-7.46-6.12-10.64-9.91-1.36-1.62-2.69-3.24-4-4.74a19.35,19.35,0,0,1-5.09-16.22,16.09,16.09,0,0,1,.92-3.78c2.19-5.79,7.52-8.85,14.13-9.19h.35c8.35,0,16.74-.28,25.08,0,7.72.26,13.76,4.32,15.16,12q.09.48.15,1A19.33,19.33,0,0,1,222,271.72Z"/><path d="M203.88,287.85a13.19,13.19,0,0,1-3.94.68A15.69,15.69,0,0,0,203.88,287.85Z"/></g></g></svg>