<?xml version="1.0" encoding="UTF-8"?><svg id="Layer_2" xmlns="http://www.w3.org/2000/svg" viewBox="0 0 508.75 540"><defs><style>.cls-1{fill:#fff;}</style></defs><g id="Layer_1-2"><g><g><path class="cls-1" d="M28.07,123.22c-.05,.29-.1,.58-.16,.86,.04-.24,.09-.52,.16-.86Z"/><path class="cls-1" d="M38.66,81.74c-.03,.07-.05,.14-.08,.22-.04,.09-.07,.17-.09,.25-1.03,2.74,1.06-3.44,.17-.47Z"/><path class="cls-1" d="M43.32,362.92c.07,.1,.16,.35,.31,.77,.56,1.92-.22-.35-.31-.77Z"/><path class="cls-1" d="M449.16,46.31c-1.28-.73,2.49,.37,0,0h0Z"/><path class="cls-1" d="M454.54,49.83c-.07-.05-.14-.1-.21-.17-1.64-2,2.33,1.85,.21,.17Z"/><path class="cls-1" d="M48.58,58.88c.12-.18,.2-.31,.26-.41-.09,.13-.18,.27-.26,.41Z"/><path class="cls-1" d="M488.6,227.86c-.08,2.11-.16,4.21-.26,6.32-.01,.34-.17,2.88-.22,3.86,0,.09,0,.18-.01,.27,0,.04,0,.07-.01,.1h0c-.3,4.23-.64,8.46-1.06,12.66-1.62,16.48-4.33,32.86-7.32,49.16,0,.03,0,.05-.01,.08,0,.03,0,.04-.01,.07v.04c-.01,.05-.03,.12-.04,.18v.05s0,.01-.01,.03c0,.03,0,.05-.01,.08,0,.04-.01,.09-.03,.13-.21,1.11-.63,3.29-.64,3.42-.39,2-.79,3.99-1.19,5.98-.65,3.26-1.35,6.5-2.05,9.75-1.78,8.06-3.74,16.09-5.94,24.04-6.48,23.34-16.5,48.4-31.1,69.46-17.13,24.7-39.67,45.95-66.41,59.91-25.97,13.55-54.6,19-83.67,20.25-11.24,.48-22.49,.33-33.73,.33-29.5,.04-59.79,.84-88.33-7.85-33.32-10.14-63.43-32.72-86.11-58.74-10.33-11.86-19.37-24.85-26.15-38.44-3.09-6.19-5.84-12.53-8.3-18.98-.67-1.73-1.3-3.48-1.92-5.22-.17-.46-.3-.82-.41-1.1-.08-.3-.21-.71-.37-1.23-1.24-4.1-2.5-8.17-3.6-12.3-1.74-6.44-3.25-12.94-4.61-19.48-.37-1.77-.73-3.56-1.07-5.34-.05-.31-.31-1.69-.5-2.66-.03-.09-.04-.17-.05-.24-.01-.08-.03-.17-.04-.25h0c-.01-.08-.03-.12-.04-.18v-.05s-.01-.04-.01-.07c-.01-.04-.01-.07-.01-.07-.01-.03-.01-.05-.01-.08h0s-.01-.04-.01-.04c-.62-3.52-1.22-7.03-1.81-10.55-2.38-14.54-4.65-29.1-6.91-43.65-1.26-8.14-2.24-16.32-2.97-24.53-.25-2.87-.47-5.76-.67-8.64,0,0,0-.07-.01-.2v-.08c-.01-.07-.01-.14-.01-.24-.01-.1-.03-.2-.03-.3,.01-.01,0-.04,0-.07v-.05c-.07-1.15-.16-2.8-.17-3.08-.13-2.79-.22-5.59-.3-8.39-.24-8.39-.24-16.78-.04-25.17,.08-3.47,.2-6.95,.35-10.42,.07-1.51,.13-3,.22-4.5,0-.08,0-.17,.01-.25,.08-1.06,.33-5.05,.38-5.65,1.19-15.8,3.08-31.57,5.73-47.2,.21-1.22,.42-2.43,.64-3.65,0,0,0-.01,.01-.03-.01-.01,0-.03,0-.04,0-.03,0-.05,.01-.08,0-.01,0-.03,.01-.05,.01-.01,.01-.05,.01-.08t.01-.03s-.01-.03,0-.04c.01-.04,.03-.08,.03-.13,.18-.89,.54-2.84,.6-3.18,.71-3.51,1.45-7.02,2.24-10.51,1.49-6.56,3.15-13.09,5.01-19.55,.86-3,1.82-5.97,2.75-8.95,.03-.08,.05-.16,.07-.24,.03-.08,.05-.16,.09-.25,.03-.08,.05-.16,.08-.22,.03-.08,.07-.17,.09-.26,.48-1.35,.96-2.7,1.47-4.03,1.83-4.88,3.83-9.71,6.15-14.38,.42-.85,2.59-4.57,2.59-4.71-.03,0-.05,.04-.12,.12,.81-1.32,1.64-2.64,2.55-3.93,1.06-1.47,2.22-2.83,3.36-4.23,.13-.16,.34-.38,.55-.59-.09,.08-.2,.17-.31,.26,.24-.22,.48-.43,.73-.64,.07-.05,.12-.09,.16-.13,0,0,.01,0,.01-.01,.03-.04,.05-.05,.08-.07,.01-.01,.03-.04,.04-.04t.03-.01h.01c.18-.17,.37-.31,.56-.45,1.05-.68,2.05-1.35,3.17-1.96,.24-.12,.76-.3,1.05-.42-.24,.05-.48,.1-.72,.17,.63-.18,.88-.25,.9-.25-.03,.03-.08,.04-.13,.07,.67-.13,1.35-.21,2.02-.27,5.13-.48,9.87,.82,14.28,2.66,12.36,5.14,23.45,13.32,33.83,21.65,10.3,8.26,20.12,17.19,29.3,26.31,5.18,5.12,9.88,10.01,16.92,12.46,7.92,2.75,14.71,2.49,22.68,.37,24.51-6.52,50.39-6.49,75.56-6.49s50.63,.41,75.15,6.71c.16,.04,.82,.24,1.31,.38-.08-.04-.16-.07-.24-.09,.16,.05,.27,.09,.38,.13h.01c.09,.04,.17,.07,.24,.08,.01,0,.03,0,.04,.01,.01,0,.03,.01,.05,.01,.45,.14,.89,.3,1.34,.44,3.68,1.19,7.22,2.41,11.14,2.12,8.44-.62,14.03-5.56,19.67-11.31,8.38-8.53,16.09-15.85,25.37-23.85,10.1-8.7,20.68-17.07,32.25-23.74,8.6-4.95,16.78-9.1,26.82-7.54,.05,.01,.1,.01,.16,.03,.05,.03,.12,.07,.2,.1,.58,.3,1.19,.52,1.74,.89,1.11,.75,2.17,1.53,3.23,2.36,.01,.03,.04,.07,.07,.09,.55,.65,1.14,1.28,1.69,1.94,1.2,1.47,2.29,3,3.34,4.58,.56,.85,1.07,1.74,1.64,2.59-1.34-2.91,1.96,2.97,.03,.05,.03,.05,.07,.12,.09,.18,1.01,2.15,2.16,4.23,3.15,6.39,2.34,5.07,4.2,10.27,6.16,15.48-.24-.79-.31-1.1-.31-1.14,.09,.17,.58,1.62,.64,1.94-.05-.09-.13-.27-.25-.6-.01-.04-.03-.08-.05-.12,.04,.12,.08,.25,.12,.39,.46,1.47,.93,2.92,1.37,4.38,.94,3.06,1.82,6.14,2.66,9.23,1.94,7.22,3.65,14.51,5.16,21.84,.25,1.18,.48,2.37,.72,3.56,.04,.21,.2,1.05,.37,1.88,0-.04-.01-.08-.01-.12,.07,.34,.12,.63,.16,.86,.01,.09,.03,.17,.04,.24,.01,.01,0,.03,0,.03,.04,.13,.05,.25,.07,.34,.01,.05,.03,.1,.03,.14,0,.03,.01,.05,.01,.08s.01,.04,.01,.05c0,.05,.01,.08,.01,.1s.01,.04,.01,.04c.54,3.12,1.06,6.23,1.56,9.35,1.32,8.46,2.43,16.95,3.34,25.46,.8,7.49,1.41,14.97,1.94,22.49,.01,.25,.04,.48,.05,.68-.08-2.26,.13,1.16,.13,1.56-.03-.09-.04-.42-.1-1.13,.01,.3,.03,.67,.04,1.1,.09,2.09,.2,4.18,.27,6.27,.2,4.91,.33,9.83,.38,14.74,.09,7.75,.01,15.5-.25,23.24Z"/><g><path d="M27.81,124.67s-.01,.08-.01,.1c.01-.04,.03-.08,.03-.13t-.01,.03Z"/><path d="M497.64,95.48c-5.25-26.02-12.38-52.86-26.11-75.81-3.89-6.53-9.19-13.91-16.22-17.29-9.61-4.62-20.16-1.58-29.4,2.47-25.04,10.99-46.22,31.84-65.44,50.77-3.97,3.91-7.49,8.98-12.63,10.67-5.56,1.83-11.01-.85-16.29-2.34-10.85-3.08-22.13-4.61-33.36-5.61-29.21-2.59-60.22-2.62-89.42,.26-11.48,1.14-22.3,3.73-33.52,6.13-16.44,3.52-25.54-8.83-36.18-18.89-10.99-10.37-22.47-20.35-34.85-29.04C93.77,9.48,81.94,2.28,69.13,.31c-20.17-3.12-31.58,18.21-38.64,33.6C18.2,60.72,11.87,90.41,7.13,119.37,1.37,154.53-.95,190.56,.35,226.16c1.24,34.24,6.7,67.97,12.41,101.7,5.54,32.72,12.88,65.57,28.07,95.34,17.41,34.08,43.61,63.14,75.13,84.84,27.88,19.19,59.79,29.07,93.42,31.2,15.13,.96,30.3,.76,45.46,.73h.01c26.49,0,52.88-.05,78.82-6.19,34.95-8.25,64.67-25.69,90.13-50.85,45.87-45.31,63.91-107.32,75.17-169.08,13.21-72.47,13.31-146.05-1.32-218.37Zm-9.04,132.38c-.08,2.11-.16,4.21-.26,6.32-.01,.34-.17,2.88-.22,3.86,0,.09,0,.18-.01,.27,0,.04,0,.07-.01,.1h0c-.3,4.23-.64,8.46-1.06,12.66-1.62,16.48-4.33,32.86-7.32,49.16,0,.03,0,.05-.01,.08,0,.03,0,.04-.01,.07v.04c-.01,.05-.03,.12-.04,.18v.05s0,.01-.01,.03c0,.03,0,.05-.01,.08,0,.04-.01,.09-.03,.13-.21,1.11-.63,3.29-.64,3.42-.39,2-.79,3.99-1.19,5.98-.65,3.26-1.35,6.5-2.05,9.75-1.78,8.06-3.74,16.09-5.94,24.04-6.48,23.34-16.5,48.4-31.1,69.46-17.13,24.7-39.67,45.95-66.41,59.91-25.97,13.55-54.6,19-83.67,20.25-11.24,.48-22.49,.33-33.73,.33-29.5,.04-59.79,.84-88.33-7.85-33.32-10.14-63.43-32.72-86.11-58.74-10.33-11.86-19.37-24.85-26.15-38.44-3.09-6.19-5.84-12.53-8.3-18.98-.67-1.73-1.3-3.48-1.92-5.22-.17-.46-.3-.82-.41-1.1,.56,1.92-.22-.35-.31-.77,.07,.1,.16,.35,.31,.77-.08-.3-.21-.71-.37-1.23-1.24-4.1-2.5-8.17-3.6-12.3-1.74-6.44-3.25-12.94-4.61-19.48-.37-1.77-.73-3.56-1.07-5.34-.05-.31-.31-1.69-.5-2.66-.03-.09-.04-.17-.05-.24-.01-.08-.03-.17-.04-.25h0c-.01-.08-.03-.12-.04-.18v-.05s-.01-.04-.01-.07c-.01-.04-.01-.07-.01-.07-.01-.03-.01-.05-.01-.08h0s-.01-.04-.01-.04c-.62-3.52-1.22-7.03-1.81-10.55-2.38-14.54-4.65-29.1-6.91-43.65-1.26-8.14-2.24-16.32-2.97-24.53-.25-2.87-.47-5.76-.67-8.64,0,0,0-.07-.01-.2v-.08c-.01-.07-.01-.14-.01-.24-.01-.1-.03-.2-.03-.3,.01-.01,0-.04,0-.07v-.05c-.07-1.15-.16-2.8-.17-3.08-.13-2.79-.22-5.59-.3-8.39-.24-8.39-.24-16.78-.04-25.17,.08-3.47,.2-6.95,.35-10.42,.07-1.51,.13-3,.22-4.5,0-.08,0-.17,.01-.25,.08-1.06,.33-5.05,.38-5.65,1.19-15.8,3.08-31.57,5.73-47.2,.21-1.22,.42-2.43,.64-3.65,0,0,0-.01,.01-.03-.01-.01,0-.03,0-.04,0-.03,0-.05,.01-.08,0-.01,0-.03,.01-.05,.01-.01,.01-.05,.01-.08t.01-.03s-.01-.03,0-.04c0-.03,0-.07,.01-.1t.01-.03c.18-.89,.54-2.84,.6-3.18,.71-3.51,1.45-7.02,2.24-10.51,1.49-6.56,3.15-13.09,5.01-19.55,.86-3,1.82-5.97,2.75-8.95,.03-.08,.05-.16,.07-.24-1.03,2.74,1.06-3.44,.17-.47,.03-.08,.07-.17,.09-.26,.48-1.35,.96-2.7,1.47-4.03,1.83-4.88,3.83-9.71,6.15-14.38,.42-.85,2.59-4.57,2.59-4.71-.03,0-.05,.04-.12,.12,.81-1.32,1.64-2.64,2.55-3.93,1.06-1.47,2.22-2.83,3.36-4.23,.13-.16,.34-.38,.55-.59-.09,.08-.2,.17-.31,.26,.24-.22,.48-.43,.73-.64,.05-.05,.1-.1,.16-.13,0,0,.01,0,.01-.01,.03-.04,.05-.05,.08-.07,.01-.01,.03-.04,.04-.04t.03-.01h.01c.18-.17,.37-.31,.56-.45,1.05-.68,2.05-1.35,3.17-1.96,.24-.12,.76-.3,1.05-.42-.24,.05-.48,.1-.72,.17,.63-.18,.88-.25,.9-.25-.03,.03-.08,.04-.13,.07,.67-.13,1.35-.21,2.02-.27,5.13-.48,9.87,.82,14.28,2.66,12.36,5.14,23.45,13.32,33.83,21.65,10.3,8.26,20.12,17.19,29.3,26.31,5.18,5.12,9.88,10.01,16.92,12.46,7.92,2.75,14.71,2.49,22.68,.37,24.51-6.52,50.39-6.49,75.56-6.49s50.63,.41,75.15,6.71c.16,.04,.82,.24,1.31,.38-.08-.04-.16-.07-.24-.09,.16,.05,.27,.09,.38,.13h.01c.1,.03,.18,.05,.24,.08,.01,0,.03,0,.04,.01,.01,0,.03,.01,.05,.01,.45,.14,.89,.3,1.34,.44,3.68,1.19,7.22,2.41,11.14,2.12,8.44-.62,14.03-5.56,19.67-11.31,8.38-8.53,16.09-15.85,25.37-23.85,10.1-8.7,20.68-17.07,32.25-23.74,8.6-4.95,16.78-9.1,26.82-7.54,.05,.01,.1,.01,.16,.03-1.28-.73,2.49,.37,0,0,.05,.03,.12,.07,.2,.1,.58,.3,1.19,.52,1.74,.89,1.11,.75,2.17,1.53,3.23,2.36-1.64-2,2.33,1.85,.21,.17-.07-.05-.14-.1-.21-.17,.01,.03,.04,.07,.07,.09,.55,.65,1.14,1.28,1.69,1.94,1.2,1.47,2.29,3,3.34,4.58,.56,.85,1.07,1.74,1.64,2.59-1.34-2.91,1.96,2.97,.03,.05,.03,.05,.07,.12,.09,.18,1.01,2.15,2.16,4.23,3.15,6.39,2.34,5.07,4.2,10.27,6.16,15.48-.24-.79-.31-1.1-.31-1.14,.09,.17,.58,1.62,.64,1.94-.05-.09-.13-.27-.25-.6-.01-.04-.03-.08-.05-.12,.04,.12,.08,.25,.12,.39,.46,1.47,.93,2.92,1.37,4.38,.94,3.06,1.82,6.14,2.66,9.23,1.94,7.22,3.65,14.51,5.16,21.84,.25,1.18,.48,2.37,.72,3.56,.04,.21,.2,1.05,.37,1.88,0-.04-.01-.08-.01-.12,.07,.34,.12,.63,.16,.86,.01,.09,.03,.17,.04,.24,.01,.01,0,.03,0,.03,.04,.13,.05,.25,.07,.34,.01,.05,.03,.1,.03,.14,0,.03,.01,.05,.01,.08s.01,.04,.01,.05c0,.05,.01,.08,.01,.1s.01,.04,.01,.04c.54,3.12,1.06,6.23,1.56,9.35,1.32,8.46,2.43,16.95,3.34,25.46,.8,7.49,1.41,14.97,1.94,22.49,.01,.25,.04,.48,.05,.68-.08-2.26,.13,1.16,.13,1.56-.03-.09-.04-.42-.1-1.13,.01,.3,.03,.67,.04,1.1,.09,2.09,.2,4.18,.27,6.27,.2,4.91,.33,9.83,.38,14.74,.09,7.75,.01,15.5-.25,23.24Z"/><path d="M27.91,124.08c.04-.24,.09-.52,.16-.86-.05,.29-.1,.58-.16,.86Z"/><path d="M33.4,322.19c-.01-.07-.03-.1-.04-.17v-.05c.01,.07,.03,.14,.04,.22Z"/><path d="M33.49,322.69c-.03-.09-.04-.17-.05-.24-.01-.08-.03-.17-.04-.25,.01,.08,.04,.17,.05,.26,.01,.07,.03,.14,.04,.22Z"/><path d="M38.66,81.74c-.03,.07-.05,.14-.08,.22-.04,.09-.07,.17-.09,.25-1.03,2.74,1.06-3.44,.17-.47Z"/><path d="M43.32,362.92c.07,.1,.16,.35,.31,.77,.56,1.92-.22-.35-.31-.77Z"/><path d="M61.01,46.18s-.08,.04-.13,.07c-.01,.01-.03,.01-.05,.01-.24,.05-.48,.1-.72,.17,.63-.18,.88-.25,.9-.25Z"/><path d="M332.09,110.05c-.05,0-.09-.03-.14-.04-.08-.04-.16-.07-.24-.09,.16,.05,.27,.09,.38,.13Z"/><path d="M449.16,46.31c-1.28-.73,2.49,.37,0,0h0Z"/><path d="M454.54,49.83c-.07-.05-.14-.1-.21-.17-1.64-2,2.33,1.85,.21,.17Z"/><path d="M461.09,58.92s-.01-.04-.03-.05c-1.34-2.91,1.96,2.97,.03,.05Z"/><path d="M470.82,81.77c-.05-.09-.13-.27-.25-.6-.01-.04-.03-.08-.05-.12,0-.03-.01-.05-.03-.08-.24-.79-.31-1.1-.31-1.14,.09,.17,.58,1.62,.64,1.94Z"/><path d="M479.65,300.61v.05s0,.01-.01,.03c0-.03,.01-.05,.01-.08Z"/><path d="M481.1,123.32c-.03-.08-.04-.17-.05-.25-.01-.13-.04-.25-.07-.38-.03-.12-.04-.24-.07-.35,0-.04-.01-.08-.01-.12,.07,.34,.12,.63,.16,.86,.01,.09,.03,.17,.04,.24Z"/><path d="M481.19,123.83s-.01-.01-.01-.03c-.01-.04-.01-.08-.01-.12,.01,.05,.03,.1,.03,.14Z"/><path d="M488.26,183.63c-.03-.09-.04-.42-.1-1.13,0-.08,0-.17-.01-.27-.01-.05-.01-.1-.01-.16-.08-2.26,.13,1.16,.13,1.56Z"/></g></g><g><path class="cls-1" d="M162.74,229.1h-3.95c1.32-.07,2.64-.07,3.95,0Z"/><g><path d="M208.25,233.8c-.31,2.57-4.15,17.53-9.57,12.34-10.29-9.86-22.58-16.45-35.94-17.04-1.31-.07-2.63-.07-3.95,0-4.04,.17-8.17,.92-12.37,2.28-6.14,2-11.98,5.17-17.26,8.86-1.79,1.24-3.51,2.6-5.21,3.98-.41,.33-1.18,1.03-1.62,1.45,.26-.26,.68-.68,1.32-1.31-10.63,10.38-14.97-23.55-7.85-30.51,7.88-7.71,17.38-13.6,27.88-17,21.86-7.09,42.77-.46,59.15,15.21,5.64,5.41,6.35,14.33,5.43,21.74Z"/><path d="M122.22,245.78c-.09,.09-.17,.16-.2,.18,.03-.03,.09-.09,.2-.18Z"/></g></g><g><path d="M403.79,238.03c-1.35,5.1-5.46,11.98-10.63,6.33-.07-.08-.13-.14-.17-.2,.03,.03,.05,.04,.08,.07,1.37,1.14-1.32-1.44-.08-.07-1.58-1.31-3.09-2.68-4.74-3.89-4.84-3.57-10.26-6.61-15.98-8.51-19.74-6.57-38.92,1.75-54.16,14.37-5.72,4.74-9.21-9.5-9.57-12.34-.86-7-.44-16.87,5.43-21.74,17.49-14.48,38.99-22.08,61.17-14.79,9.75,3.21,18.89,8.99,25.85,16.58,5.12,5.56,4.53,17.6,2.79,24.17Z"/><path d="M393.07,244.23s-.05-.04-.08-.07c-1.24-1.37,1.45,1.2,.08,.07Z"/></g><path d="M260.9,377.66c-.08,.01-.14,.01-.22,.01-3.99,0-7.47-1.09-10.63-2.85,.41,.21,.82,.39,1.24,.59,3.36,1.51,6.58,2.22,9.61,2.25Z"/><g><path d="M267.13,375.97l-.24-.05v-.42c.01-.29,.01-.58,.01-.86v-.26c.07,.52,.14,1.06,.22,1.6Z"/><g><path class="cls-1" d="M252.35,385.27c.01-.07,.04-.14,.07-.21,.01-.05,.04-.12,.07-.17,.8-1.9-.65,2.34-.13,.38Z"/><path class="cls-1" d="M249.67,391.19c.08-.1,.13-.17,.16-.2,0,.03-.05,.09-.12,.2-.01,.03-.03,.07-.05,.09-.04,.08-.1,.16-.13,.2,0-.01,0-.03,.01-.05,.04-.07,.07-.13,.1-.2,.01-.01,.01-.03,.03-.04Z"/><path class="cls-1" d="M253.94,379.14v-.03s.01-.03,.01-.04c.38-1.45-.34,2.74-.01,.07Z"/><g><path d="M357.06,407.9c-15.78,10.65-33.35,21.06-52.46,24.15-19.1,3.09-34.71-5.84-42.83-23.11-.39-.82-.76-1.65-1.1-2.5-3.89,9.61-9.96,18.23-19.44,22.73-25.42,12.04-56.63-7.57-76.93-21.27-7.41-5-3.7-32,3.3-27.26,5.05,3.42,10.3,6.86,15.75,10.01,10.13,5.92,20.9,10.88,32.24,12.93,8.1,1.47,16.82,1.49,24.08-2.57,3.32-1.86,5.08-3.4,6.74-5.39,1.07-1.28,2.02-2.63,2.96-4,.12-.17,.21-.3,.27-.39-.04,.07-.07,.13-.1,.2-.01,.03-.01,.04-.01,.05,.03-.04,.09-.12,.13-.2,.03-.03,.04-.07,.05-.09,.07-.1,.12-.17,.12-.2-.03,.03-.08,.09-.16,.2,.34-.64,.67-1.28,.98-1.92,.65-1.39,1.18-2.8,1.77-4.2-.03,.07-.05,.14-.07,.21-.52,1.96,.93-2.28,.13-.38-.03,.05-.05,.12-.07,.17,.17-.64,.38-1.27,.56-1.92,.37-1.31,.6-2.67,.96-4-.33,2.67,.39-1.52,.01-.07,.01-.16,.04-.34,.07-.55,.1-.84,.17-1.7,.24-2.55l.22-.05c-.01-.43-.01-.85-.01-1.28v-.26s0-.05,.01-.08v-.43c.03-.62,.07-1.36,.14-2.2,.05-.54,.12-1.1,.2-1.69,.03-.18,.07-.38,.09-.58,.07-.41,.13-.8,.21-1.2,.2-.99,.45-2,.77-2.94,.13-.38,.27-.75,.42-1.1,.16-.35,.33-.68,.5-.99,.09-.16,.18-.31,.27-.46,.2-.3,.39-.56,.62-.81,.1-.13,.22-.24,.34-.35,.73-.68,1.6-1.07,2.64-1.03,1.88,.07,3.21,1.31,4.14,3.06,.17,.33,.33,.67,.47,1.01,.27,.71,.52,1.45,.72,2.23,.09,.38,.18,.77,.26,1.16,.12,.59,.22,1.18,.3,1.75,.1,.77,.18,1.53,.24,2.23,.07,.93,.09,1.77,.1,2.43v.26c0,.29,0,.58-.01,.86v.42l.24,.05c.21,1.36,.43,2.76,.52,4.1-.01-.33-.03-.6-.04-.81,.07,.63,.2,1.61,.39,2.41,.31,1.26,.69,2.49,1.06,3.73,.01,.04,.03,.09,.05,.13,.31,.72,.58,1.47,.89,2.19,.5,1.14,1.03,2.25,1.64,3.35,.08,0,1.73,2.6,2.17,3.18,.75,.97,2.43,2.85,2.63,3.04,1.47,1.39,5.29,3.95,8.08,5.12,16.78,7.04,37.08-1.79,53.65-11.7,5.75-3.43,11.05-6.99,15.59-10.05,4.88-3.3,7.3,7.16,7.64,9.87,.64,5.17,.56,14.08-4.35,17.39Z"/><path d="M249.83,390.99s-.05,.09-.12,.2c-.01,.03-.03,.07-.05,.09-.04,.08-.1,.16-.13,.2,0-.01,0-.03,.01-.05,.04-.07,.07-.13,.1-.2,.01-.01,.01-.03,.03-.04,.08-.1,.13-.17,.16-.2Z"/><path d="M252.35,385.27c.01-.07,.04-.14,.07-.21,.01-.05,.04-.12,.07-.17,.8-1.9-.65,2.34-.13,.38Z"/><path d="M253.94,379.14v-.03s.01-.03,.01-.04c.38-1.45-.34,2.74-.01,.07Z"/><path d="M254.47,374.29v-.43c-.1,.69-.17,1.4-.22,2.11l.22-.05c-.01-.43-.01-.85-.01-1.28,0,2.07-.07,.98,0-.26,0-.03,0-.05,.01-.08Z"/></g></g></g><g><path d="M290.52,355.64c-6.57,7.29-12.87,16.91-22.08,20.54-.26,.12-.54,.22-.81,.31-.26,.1-.52,.2-.79,.26-1.62,.5-3.34,.81-5.16,.89-.26,.01-.52,.01-.79,.01-3.02-.03-6.24-.75-9.61-2.25-.42-.2-.84-.38-1.24-.59-5.38-3.01-9.76-8.01-13.93-12.97-1.78-2.12-3.52-4.24-5.29-6.2-5.44-6.05-7.7-12.91-6.66-21.23,.22-1.79,.63-3.44,1.2-4.95,2.87-7.58,9.84-11.58,18.49-12.03,.12,0,.22-.01,.34-.01h.12c10.93,0,21.91-.37,32.83,0,10.1,.34,18.01,5.65,19.84,15.69,.08,.42,.14,.85,.2,1.3,1.03,8.32-1.22,15.18-6.68,21.23Z"/><path d="M266.84,376.75c-1.64,.55-3.35,.85-5.16,.89,1.82-.08,3.53-.39,5.16-.89Z"/></g></g></g></svg>