<svg width="541" height="88" viewBox="0 0 541 88" fill="none" xmlns="http://www.w3.org/2000/svg">
<path d="M126.16 15.7V63.94C126.16 67.18 124.99 69.94 122.65 72.22C120.37 74.5 117.64 75.64 114.46 75.64H99.7C97.9 75.64 97 74.74 97 72.94V62.59C97 60.79 97.9 59.89 99.7 59.89H108.61C109.81 59.89 110.41 59.29 110.41 58.09V15.7C110.41 13.9 111.31 13 113.11 13H123.46C125.26 13 126.16 13.9 126.16 15.7Z" fill="black"/>
<path d="M168.556 72.94C168.556 74.74 167.656 75.64 165.856 75.64H155.506C153.706 75.64 152.806 74.74 152.806 72.94V61.69C152.806 60.49 152.206 59.89 151.006 59.89H148.036C146.836 59.89 146.236 60.49 146.236 61.69V72.94C146.236 74.74 145.336 75.64 143.536 75.64H133.186C131.386 75.64 130.486 74.74 130.486 72.94V19.75C130.486 17.89 131.146 16.3 132.466 14.98C133.786 13.66 135.376 13 137.236 13H161.806C163.666 13 165.256 13.66 166.576 14.98C167.896 16.3 168.556 17.89 168.556 19.75V72.94ZM152.806 47.29V30.55C152.806 29.35 152.206 28.75 151.006 28.75H148.036C146.836 28.75 146.236 29.35 146.236 30.55V47.29C146.236 48.49 146.836 49.09 148.036 49.09H151.006C152.206 49.09 152.806 48.49 152.806 47.29Z" fill="black"/>
<path d="M233.24 72.94C233.24 74.74 232.34 75.64 230.54 75.64H220.19C218.39 75.64 217.49 74.74 217.49 72.94V30.55C217.49 29.35 216.89 28.75 215.69 28.75H212.72C211.52 28.75 210.92 29.35 210.92 30.55V72.94C210.92 74.74 210.02 75.64 208.22 75.64H197.87C196.07 75.64 195.17 74.74 195.17 72.94V30.55C195.17 29.35 194.57 28.75 193.37 28.75H190.4C189.2 28.75 188.6 29.35 188.6 30.55V72.94C188.6 74.74 187.7 75.64 185.9 75.64H175.55C173.75 75.64 172.85 74.74 172.85 72.94V24.7C172.85 21.52 173.99 18.79 176.27 16.51C178.55 14.17 181.31 13 184.55 13H199.22C202.82 13 205.79 14.38 208.13 17.14C210.47 14.38 213.44 13 217.04 13H221.54C224.78 13 227.54 14.17 229.82 16.51C232.1 18.79 233.24 21.52 233.24 24.7V72.94Z" fill="black"/>
<path d="M253.287 72.94C253.287 74.74 252.387 75.64 250.587 75.64H240.237C238.437 75.64 237.537 74.74 237.537 72.94V15.7C237.537 13.9 238.437 13 240.237 13H250.587C252.387 13 253.287 13.9 253.287 15.7V72.94Z" fill="black"/>
<path d="M292.946 72.94C292.946 74.74 292.046 75.64 290.246 75.64H269.276C266.036 75.64 263.276 74.5 260.996 72.22C258.716 69.94 257.576 67.18 257.576 63.94V24.7C257.576 21.52 258.716 18.79 260.996 16.51C263.276 14.17 266.036 13 269.276 13H290.246C292.046 13 292.946 13.9 292.946 15.7V26.05C292.946 27.85 292.046 28.75 290.246 28.75H275.126C273.926 28.75 273.326 29.35 273.326 30.55V35.05C273.326 36.25 273.926 36.85 275.126 36.85H290.246C292.046 36.85 292.946 37.75 292.946 39.55V49.9C292.946 51.7 292.046 52.6 290.246 52.6H275.126C273.926 52.6 273.326 53.2 273.326 54.4V58.09C273.326 59.29 273.926 59.89 275.126 59.89H290.246C292.046 59.89 292.946 60.79 292.946 62.59V72.94Z" fill="black"/>
<path d="M320.145 29.0572C320.872 27.5485 323.02 27.5485 323.748 29.0572L327.823 37.5103C328.019 37.9179 328.348 38.2469 328.756 38.4434L337.209 42.5184C338.718 43.2457 338.718 45.3943 337.209 46.1216L328.756 50.1966C328.348 50.3931 328.019 50.7221 327.823 51.1297L323.748 59.5828C323.02 61.0915 320.872 61.0915 320.145 59.5828L316.07 51.1297C315.873 50.7221 315.544 50.3931 315.136 50.1966L306.683 46.1216C305.175 45.3943 305.175 43.2457 306.683 42.5184L315.136 38.4434C315.544 38.2469 315.873 37.9179 316.07 37.5103L320.145 29.0572Z" fill="black"/>
<path d="M380.106 72.94C380.106 74.74 379.206 75.64 377.406 75.64H353.646C351.846 75.64 350.946 74.74 350.946 72.94V15.7C350.946 13.9 351.846 13 353.646 13H363.996C365.796 13 366.696 13.9 366.696 15.7V58.09C366.696 59.29 367.296 59.89 368.496 59.89H377.406C379.206 59.89 380.106 60.79 380.106 62.59V72.94Z" fill="black"/>
<path d="M413.592 72.94C413.592 74.74 412.692 75.64 410.892 75.64H387.132C385.332 75.64 384.432 74.74 384.432 72.94V15.7C384.432 13.9 385.332 13 387.132 13H397.482C399.282 13 400.182 13.9 400.182 15.7V58.09C400.182 59.29 400.782 59.89 401.982 59.89H410.892C412.692 59.89 413.592 60.79 413.592 62.59V72.94Z" fill="black"/>
<path d="M455.989 63.94C455.989 67.18 454.849 69.94 452.569 72.22C450.289 74.5 447.529 75.64 444.289 75.64H429.619C426.379 75.64 423.619 74.5 421.339 72.22C419.059 69.94 417.919 67.18 417.919 63.94V24.7C417.919 21.52 419.059 18.79 421.339 16.51C423.619 14.17 426.379 13 429.619 13H444.289C447.529 13 450.289 14.17 452.569 16.51C454.849 18.79 455.989 21.52 455.989 24.7V63.94ZM440.239 58.09V30.55C440.239 29.35 439.639 28.75 438.439 28.75H435.469C434.269 28.75 433.669 29.35 433.669 30.55V58.09C433.669 59.29 434.269 59.89 435.469 59.89H438.439C439.639 59.89 440.239 59.29 440.239 58.09Z" fill="black"/>
<path d="M498.352 15.7V63.94C498.352 67.18 497.212 69.94 494.932 72.22C492.652 74.5 489.892 75.64 486.652 75.64H462.982C461.182 75.64 460.282 74.74 460.282 72.94V62.59C460.282 60.79 461.182 59.89 462.982 59.89H480.802C482.002 59.89 482.602 59.29 482.602 58.09V56.56C482.602 55.36 482.002 54.76 480.802 54.76L471.982 54.85C468.742 54.85 465.982 53.71 463.702 51.43C461.422 49.09 460.282 46.33 460.282 43.15V15.7C460.282 13.9 461.182 13 462.982 13H473.332C475.132 13 476.032 13.9 476.032 15.7V37.3C476.032 38.5 476.632 39.1 477.832 39.1H480.802C482.002 39.1 482.602 38.5 482.602 37.3V15.7C482.602 13.9 483.502 13 485.302 13H495.652C497.452 13 498.352 13.9 498.352 15.7Z" fill="black"/>
<path d="M540.715 63.94C540.715 67.18 539.575 69.94 537.295 72.22C535.015 74.5 532.255 75.64 529.015 75.64H505.345C503.545 75.64 502.645 74.74 502.645 72.94V15.7C502.645 13.9 503.545 13 505.345 13H529.015C532.255 13 535.015 14.17 537.295 16.51C539.575 18.79 540.715 21.52 540.715 24.7V63.94ZM524.965 58.09V30.55C524.965 29.35 524.365 28.75 523.165 28.75H520.195C518.995 28.75 518.395 29.35 518.395 30.55V58.09C518.395 59.29 518.995 59.89 520.195 59.89H523.165C524.365 59.89 524.965 59.29 524.965 58.09Z" fill="black"/>
<path d="M76.5695 33.6473C76.3463 35.8312 76.4698 38.0131 76.8142 40.1775C77.2129 42.6844 77.8088 45.1608 78.0709 47.6869C78.2896 49.7908 78.2551 51.8513 77.9279 54.0636C77.2736 58.5094 75.0397 63.0375 71.8916 66.5433C69.6752 69.0112 66.9454 71.039 64.2629 72.9695C61.7303 74.7937 59.089 76.475 56.318 77.9138C51.5448 80.3923 46.3645 82.1194 40.9435 82.1495C30.2404 82.091 20.2306 75.9442 12.5694 68.9136C9.04641 65.6809 6.32291 61.5016 5.01861 56.8866C4.40331 54.707 4.07609 52.3735 4.02634 50.4084C3.96139 47.7737 4.21055 45.7111 4.61125 42.9899C4.93847 40.7712 5.32189 38.5677 5.41515 36.3231C5.50611 34.1392 5.19846 31.9789 4.73698 29.8513C4.13458 27.0845 3.24846 24.411 2.87795 21.5943C2.54219 19.0289 2.48807 16.3727 2.75451 14.0089C2.97328 12.0524 3.35691 10.1913 4.1173 8.51213C4.45097 7.77547 4.55068 7.61725 5.08793 6.9218C5.22885 6.73758 5.8529 6.23513 6.08895 6.1679C7.40636 5.78676 8.86448 6.56648 9.96084 7.19927C11.6962 8.20008 13.2713 9.48067 14.7836 10.7893C16.556 12.3232 18.2373 13.9547 19.9207 15.584C21.654 17.2675 23.2422 19.0117 25.8443 19.0962C26.8995 19.1309 27.9134 18.7733 28.9469 18.5956C30.1321 18.392 31.328 18.2534 32.524 18.1384C35.4946 17.8504 38.4823 17.7203 41.4678 17.703H41.5871C45.8553 17.7203 50.2688 17.8851 54.3853 18.8687C56.7968 19.4451 58.8638 18.6759 60.6208 17.0034C62.0465 15.6448 63.4417 14.2537 64.8805 12.9081C66.4664 11.4263 68.0915 9.97255 69.8356 8.67699C71.1508 7.6997 72.6738 6.58608 74.2989 6.20266C75.4948 5.92082 76.37 6.20908 76.9227 6.9218C77.8977 8.18509 78.3483 9.43946 78.7513 11.0797C79.8822 15.6643 79.5529 21.1415 78.2183 26.1552C77.5617 28.6228 76.8274 31.0951 76.5695 33.6473Z" fill="white"/>
<path d="M78.2207 26.155C77.5639 28.6227 76.8306 31.0954 76.5723 33.6478C76.3493 35.8314 76.473 38.013 76.8177 40.1768C77.2159 42.6836 77.8108 45.1611 78.0743 47.6875C78.292 49.7911 78.2579 51.851 77.9313 54.0634C77.276 58.5098 75.0423 63.0374 71.895 66.544C69.6776 69.0119 66.948 71.0391 64.2655 72.9687C61.7327 74.7945 59.0926 76.4755 56.3206 77.9141C51.5476 80.3918 46.3665 82.1199 40.9465 82.1492C30.2428 82.0905 20.2334 75.9439 12.5714 68.9143C9.0486 65.6808 6.32551 61.5011 5.02163 56.8856C4.40549 54.7073 4.07869 52.3728 4.02831 50.4089C3.96337 47.7736 4.21357 45.7106 4.61365 42.9892C4.94045 40.7717 5.32408 38.5671 5.41837 36.3238C5.50934 34.1388 5.20044 31.9784 4.74042 29.8519C4.13718 27.0849 3.25127 24.4107 2.88055 21.595C2.54417 19.0297 2.49046 16.3732 2.75711 14.0094C2.97651 12.0521 3.36014 10.1905 4.11928 8.51281C4.45441 7.7747 4.55349 7.61712 5.0899 6.92126C5.23145 6.73767 5.85571 6.23519 6.09134 6.16858C7.40813 5.78661 8.86647 6.56681 9.96386 7.19939C11.6984 8.20083 13.2737 9.48013 14.7856 10.7888C16.5593 12.3235 18.2403 13.954 19.9228 15.5847C21.6574 17.2672 23.2442 19.0117 25.8469 19.0963C26.9021 19.1304 27.9164 18.7726 28.9503 18.5955C30.1356 18.3923 31.3304 18.2541 32.5268 18.1388C35.497 17.8509 38.4851 17.7208 41.4698 17.7029H41.5901C45.8577 17.7208 50.2715 17.885 54.3877 18.8685C56.7986 19.4458 58.8666 18.6752 60.624 17.0039C62.0497 15.6448 63.4446 14.2533 64.8833 12.9089C66.4684 11.4262 68.0941 9.97283 69.8385 8.67706C71.1536 7.69998 72.6771 6.58636 74.3011 6.20273C75.4976 5.92151 76.3722 6.20916 76.9249 6.92126C77.9003 8.18434 78.3507 9.43953 78.7539 11.0798C79.8853 15.6644 79.5553 21.1414 78.2207 26.155ZM79.0791 34.9648C79.1066 34.7175 79.149 34.4754 79.1813 34.2298C79.1911 34.1469 79.1977 34.0851 79.2042 34.0412V34.0348C79.2154 33.9925 79.2269 33.9405 79.24 33.8755C79.3863 33.1601 79.5537 32.4497 79.7325 31.7426C80.5584 28.501 81.4152 25.3128 81.7533 21.9722C82.0736 18.8117 82.0946 15.6139 81.7418 12.4553C81.4575 9.92726 80.9242 7.39607 79.9894 5.0256C79.383 3.48941 78.5133 1.79379 77.1199 0.823164C74.2751 -1.16326 70.1848 2.18074 68.0681 3.87637C66.0409 5.5004 64.1502 7.29514 62.2789 9.09485C60.7346 10.584 59.0504 12.8518 56.8167 13.1884C55.651 13.3639 54.6169 13.0404 53.4937 12.8244C52.276 12.5919 51.0404 12.447 49.8081 12.3219C47.4672 12.0846 45.1196 11.948 42.7689 11.8895C42.6861 11.8875 42.6016 11.8862 42.5185 11.8831C41.9756 11.87 41.4292 11.8619 40.8864 11.8569C40.4213 11.8619 39.958 11.8683 39.4963 11.8797C39.4232 11.8818 39.3516 11.8831 39.28 11.8862C35.2093 11.9838 31.1516 12.3219 27.1556 13.133C24.6667 13.6403 23.0587 12.3121 21.3974 10.7026C19.7977 9.15331 18.2029 7.59278 16.5478 6.10343C14.9157 4.62906 13.2267 3.18863 11.3716 1.99861C10.0321 1.14184 8.34941 0.194122 6.70269 0.239708C3.10015 0.340456 1.6158 5.65173 0.971973 8.40396C-0.455347 14.5004 -0.218053 20.9657 1.08104 27.0605C1.4143 28.6246 1.88244 30.1527 2.26129 31.7036C2.39784 32.2613 2.52793 32.822 2.63826 33.3845C2.64159 33.4007 2.64804 33.4284 2.64804 33.4284L2.6676 33.5275L2.67905 33.6315C2.72942 33.9631 2.77647 34.2933 2.81394 34.6249C2.82206 34.7127 2.84808 35.1126 2.85453 35.1126C2.85932 35.2231 2.86119 35.3305 2.86119 35.4411C2.86285 35.6621 2.85453 35.8817 2.85307 36.1028V36.1613C2.84974 36.1758 2.84808 36.1937 2.84641 36.2133C2.74566 37.2179 2.61557 38.2162 2.46778 39.216C1.62558 44.8166 1.00944 50.3795 1.96363 56.0176C2.88721 61.454 4.98271 66.6497 8.4666 70.9594C10.6075 73.6044 13.2281 75.8496 15.909 77.9289C18.585 80.0048 21.4201 81.8859 24.4227 83.4579C29.5048 86.1225 35.164 87.9643 40.9398 88.0001H40.953C45.9374 87.9693 50.8176 86.5126 55.2999 84.3992C60.8387 81.7883 66.1123 78.1776 70.6709 74.0986C79.214 66.453 82.1386 54.7624 80.2121 43.6719C79.8041 41.3162 79.2806 39.024 79.0464 36.6375C79.0612 36.6977 79.0187 35.9677 79.0206 35.7972C79.0221 35.7094 79.0416 35.3826 79.0416 35.3353C79.0529 35.2119 79.0643 35.0882 79.0791 34.9648Z" fill="black"/>
<path d="M67.099 52.3518C62.5881 52.2585 57.8323 53.5175 53.954 55.7751C53.1501 56.2431 52.8339 53.4069 53.6118 52.9563C57.5767 50.6466 62.4884 49.3315 67.099 49.4268C68.0199 49.4464 67.9895 52.3691 67.099 52.3518Z" fill="black"/>
<path d="M68.0848 59.0705C63.693 58.1022 58.7316 58.3836 54.4935 59.8245C53.5142 60.1581 53.3583 57.2743 54.1511 57.0058C58.5234 55.5173 63.5479 55.1447 68.0848 56.1455C69.0598 56.3622 68.8388 59.2374 68.0848 59.0705Z" fill="black"/>
<path d="M28.0564 55.775C24.1781 53.5173 19.4224 52.2586 14.9114 52.3516C14.0124 52.3691 13.9993 49.4441 14.9114 49.4268C19.5221 49.3315 24.4339 50.6467 28.3989 52.9561C29.1853 53.4135 28.8493 56.2387 28.0564 55.775Z" fill="black"/>
<path d="M27.5148 59.8245C23.279 58.3836 18.3154 58.1022 13.9256 59.0705C13.1608 59.2396 12.9593 56.3601 13.9256 56.1455C18.4625 55.1447 23.487 55.5173 27.8572 57.0056C28.6609 57.2787 28.4854 60.1561 27.5148 59.8245Z" fill="black"/>
<path d="M62.3671 38.8776C58.2916 36.9947 53.1525 37.3479 49.5104 39.9544C48.7629 40.4896 48.3728 38.8235 48.3231 38.4226C48.219 37.6014 48.2429 36.2624 48.9969 35.7251C52.9618 32.8846 58.4759 32.6118 62.8806 34.6484C64.0873 35.2052 63.693 39.4909 62.3671 38.8776Z" fill="black"/>
<path d="M33.657 38.5828C33.6094 38.975 33.2064 40.6671 32.4697 40.1147C28.8949 37.4216 23.762 36.9297 19.6432 38.715C18.2696 39.311 17.9359 35.0015 19.1297 34.4837C23.578 32.5576 29.0876 32.9474 32.9832 35.8833C33.7287 36.4444 33.7611 37.7552 33.657 38.5828Z" fill="black"/>
<path d="M56.6494 66.6861C54.2292 68.4346 51.3064 70.2676 48.2147 70.3282C44.163 70.4062 42.0138 67.0112 40.9911 63.2628C40.4191 65.4145 39.4614 67.4856 37.804 68.92C34.0254 72.1895 28.6696 69.078 25.3612 66.6861C24.4122 65.9994 24.9234 62.5044 25.7922 63.1351C28.0607 64.7752 30.7386 66.5129 33.6312 66.6384C35.1022 66.7034 36.5193 66.2398 37.5634 65.1867C38.0055 64.7404 38.4714 64.0538 38.6793 63.6614C38.8636 63.3192 39.0238 62.9617 39.1689 62.6021C39.3271 62.212 39.3856 62.0278 39.4312 61.8783C39.611 61.2849 39.7605 60.6845 39.8839 60.0757C39.8839 60.0757 39.8839 60.0736 39.8862 60.0671V60.0649C39.8862 60.0628 39.8883 60.0584 39.8883 60.054C39.8904 60.0432 39.8927 60.0303 39.897 60.0128C39.8991 60.0022 39.9035 59.9868 39.9056 59.9654C39.9035 59.9654 39.9035 59.9631 39.9035 59.9631C38.298 59.4106 37.2212 57.7531 36.0968 56.5073C35.1955 55.5065 34.8228 54.371 34.994 52.993C35.2192 51.2056 36.5387 50.2718 38.2547 50.1829C38.2743 50.1829 38.2916 50.1808 38.3111 50.1808H38.3305C40.1398 50.1808 41.9574 50.1201 43.7644 50.1808C45.5085 50.2393 46.8563 51.1927 47.0815 52.993C47.2526 54.371 46.88 55.5065 45.9787 56.5073C44.8391 57.7726 43.7492 59.4562 42.1091 59.9847H42.107V59.9868C42.107 59.9868 42.107 59.9891 42.1091 59.9912V59.9955C42.1112 59.9999 42.1112 60.0022 42.1112 60.0064C42.1135 60.0087 42.1135 60.0087 42.1135 60.0107V60.0151C42.1135 60.0195 42.1156 60.0236 42.1156 60.028C42.1416 60.1537 42.1655 60.2772 42.1915 60.4008C42.2673 60.7451 42.3495 61.0855 42.4449 61.4233C42.4925 61.599 42.5446 61.7701 42.5987 61.9435C42.6031 61.9585 42.6139 61.9932 42.6226 62.0236C42.6183 62.0128 42.6139 62.002 42.6095 61.9912C42.6226 62.0278 42.6314 62.0538 42.6355 62.0669C42.6378 62.0692 42.6378 62.0734 42.6399 62.0757C42.6572 62.1233 42.6747 62.171 42.6919 62.2163C43.173 63.499 43.6994 64.5976 44.7893 65.4967C48.2949 68.3869 53.2348 65.2908 56.2183 63.1351C57.1 62.4959 57.5832 66.0102 56.6494 66.6861Z" fill="black"/>
</svg>
