<svg xmlns="http://www.w3.org/2000/svg" viewBox="0 0 388.88 416.25"><defs><style>.cls-1{fill:#fff;}</style></defs><g id="Layer_2" data-name="Layer 2"><g id="Layer_1-2" data-name="Layer 1"><path class="cls-1" d="M36.43,57.05l0,.05C35,59.32,37.39,54.92,36.43,57.05Z"/><path class="cls-1" d="M111.15,65.92c-.1.67-.6,3.27-.29,1.47l.06-.35c0-.12,0-.25.07-.37C111.06,66.29,111.12,66.05,111.15,65.92Z"/><path class="cls-1" d="M113.83,46.26q-.61,6-1.48,12c-.43,2.94-.94,5.88-1.43,8.81-.13.63-.25,1.26-.38,1.89-.36,1.8-.74,3.59-1.14,5.39-1.64,7.34-3.65,14.58-6,21.75,0,.09-.06.17-.08.25a5.16,5.16,0,0,1,.23-.58c0,.17-.38,1.16-.45,1.32,0,0,0-.21.15-.53-.28.75-.54,1.52-.82,2.27-.7,1.93-1.44,3.85-2.2,5.75q-2.25,5.58-4.87,11-1.28,2.61-2.65,5.18c-.27.51-.55,1-.83,1.51h0c-.18.3-.88,1.54-1.19,2-2.08,3.46-4.32,6.83-6.73,10.07a109.37,109.37,0,0,1-7.75,9.32q-.92,1-1.86,2l-1,1,.06-.05-.12.12,0,0,0,0c-1.41,1.32-2.87,2.59-4.35,3.82-15.44,12.76-33.69,18.95-53.47,19.76q-.08-9.44.35-18.88l.15-3.09h0v-.08s0,0,0,0a.13.13,0,0,0,0-.06v-.1a.17.17,0,0,0,0-.07V148a1.37,1.37,0,0,1,0-.19v-.16s0-.07,0-.11v-.05s0-.08,0-.12a.66.66,0,0,1,0-.14v0c0-.19,0-.37,0-.48.24-3.11.46-6.23.75-9.34q.86-9.11,2.13-18.16.61-4.38,1.34-8.74c.16-.95.33-1.9.49-2.85.05-.27.08-.5.11-.7-.38,1.88,0-.19.11-.74a3.21,3.21,0,0,1-.05.4c0-.12.05-.24.08-.38,1.06-5.34,2.2-10.67,3.52-16,1.11-4.45,2.33-8.88,3.7-13.26.2-.63.4-1.27.61-1.9l.06-.17v0a.42.42,0,0,1,0-.1c.18-.53.55-1.62.65-1.9.73-2,1.49-4,2.31-6,1.34-3.28,3-6.39,4.46-9.59l.09-.19,0-.05c.44-.68.84-1.38,1.28-2a43,43,0,0,1,2.81-3.88c.45-.55,2.49-2.46,1.79-1.94a16.59,16.59,0,0,1,1.91-1.42c2.73-1.68,6-2.42,9-3.52,9.44-3.48,18.85-7.25,28.87-8.66a41.73,41.73,0,0,1,14.32.11c5.1,1.08,8.57,4.1,12.45,7.36A24.58,24.58,0,0,0,113.83,46.26Z"/><path class="cls-1" d="M373.43,170.36c-17.55-.77-33.92-5.64-48.51-15.68a83.87,83.87,0,0,1-17.08-15.21,148,148,0,0,1-14.38-20.06.36.36,0,0,0-.07-.1s0,0,0-.06l0-.06c-.05-.08-.1-.18-.16-.29-.44-.8-.88-1.59-1.31-2.39q-1.5-2.81-2.89-5.65-2.66-5.44-5-11.06c-1.32-3.23-2.48-6.54-3.69-9.81l0,.06c-.13-.45-1.09-3.14-1.36-4-.59-1.86-1.15-3.73-1.7-5.61q-2.87-9.94-4.93-20.08c-.25-1.21-.48-2.43-.72-3.63-.12-.71-.25-1.41-.37-2.11-.44-2.6-.85-5.21-1.21-7.81,0-.27-.08-.55-.11-.82,1.6-1.15,3-2.34,4.37-3.26,7-4.83,16.1-5.23,24.33-4.93A143.32,143.32,0,0,1,328,42.37c6,1.49,12.95,2.41,18,6,.43.3.81.65,1.22,1l0,0c.74.87,1.5,1.7,2.19,2.6.92,1.21,1.74,2.49,2.57,3.76.1.15.26.44.43.72l.16.3h0l.09.18,0,0,.05.09v0l0,.06,0,0,0,.07c.17.31.34.63.5.95a111,111,0,0,1,4.58,10.35c.54,1.39,1.06,2.8,1.56,4.21v0a.39.39,0,0,0,0,.06.62.62,0,0,1,0,.1l.69,2.09c.42,1.33.83,2.67,1.22,4,1.39,4.71,2.62,9.45,3.73,14.23.51,2.2,1,4.42,1.46,6.63.29,1.37.55,2.74.83,4.1,0,.16.06.31.09.44a1.55,1.55,0,0,1,0,.21c0,.12.05.24.07.37v0a.49.49,0,0,1,0,.15.65.65,0,0,1,0,.11s0,0,0,.06a.08.08,0,0,1,0,0c.08.47.16.95.25,1.43q3,17.16,4.38,34.56c.17,2.11.33,4.24.47,6.35,0,0,0,.06,0,.19s0,.2,0,.33c0,.84.13,2.45.14,2.7.07,1.59.14,3.19.2,4.79Q373.46,163.07,373.43,170.36Z"/><path class="cls-1" d="M176,264.45c-14.38,0-14.35,31.55,0,32.44C190.31,296,190.34,264.45,176,264.45Zm0,0c-14.38,0-14.35,31.55,0,32.44C190.31,296,190.34,264.45,176,264.45Zm0,0c-14.38,0-14.35,31.55,0,32.44C190.31,296,190.34,264.45,176,264.45Zm0,0c-14.38,0-14.35,31.55,0,32.44C190.31,296,190.34,264.45,176,264.45Zm0,0c-14.38,0-14.35,31.55,0,32.44C190.31,296,190.34,264.45,176,264.45Zm0,0c-14.38,0-14.35,31.55,0,32.44C190.31,296,190.34,264.45,176,264.45Zm0,0c-14.38,0-14.35,31.55,0,32.44C190.31,296,190.34,264.45,176,264.45Zm43,0c-14.38,0-14.35,31.55,0,32.44C233.27,296,233.3,264.45,218.92,264.45Zm0,0c-14.38,0-14.35,31.55,0,32.44C233.27,296,233.3,264.45,218.92,264.45Zm-43,0c-14.38,0-14.35,31.55,0,32.44C190.31,296,190.34,264.45,176,264.45Zm0,0c-14.38,0-14.35,31.55,0,32.44C190.31,296,190.34,264.45,176,264.45Zm43,0c-14.38,0-14.35,31.55,0,32.44C233.27,296,233.3,264.45,218.92,264.45Zm0,0c-14.38,0-14.35,31.55,0,32.44C233.27,296,233.3,264.45,218.92,264.45Zm-43,0c-14.38,0-14.35,31.55,0,32.44C190.31,296,190.34,264.45,176,264.45Zm97.82,13.9c0-.07-.43-1.68-.62-2.25a29.31,29.31,0,0,0-3.61-7,52,52,0,0,0-13.83-13.35c-12.87-8.76-28.17-13.38-43.53-15.16-27.19-3.17-60.21,1.58-80.78,21.31a39.31,39.31,0,0,0-8.67,11.72,23,23,0,0,0-1.77,5.53,7,7,0,0,0,.08,3.48,30.32,30.32,0,0,0,1.69,5,32.23,32.23,0,0,0,3.56,5.87,52.17,52.17,0,0,0,12.33,11.62c23.89,16.58,56.55,19.63,84.43,13.77,13.15-2.76,26.13-8,36.72-16.38a45.34,45.34,0,0,0,11-12.21,29.16,29.16,0,0,0,2.54-5.54,12.55,12.55,0,0,0,.72-4.15A11.87,11.87,0,0,0,273.78,278.35ZM176.4,309.6h-.08a1.05,1.05,0,0,1-.36,0,1.29,1.29,0,0,1-.39,0h-.06c-12.47-1.18-15.75-19.06-15.77-28.93,0-9.34,3.44-29,16.22-29s16.21,19.62,16.21,29C192.17,290.56,188.86,308.43,176.4,309.6Zm43,0h-.08a1.05,1.05,0,0,1-.36,0,1.29,1.29,0,0,1-.39,0h-.06c-12.47-1.18-15.75-19.06-15.77-28.93,0-9.34,3.44-29,16.22-29s16.22,19.62,16.22,29C235.14,290.56,231.83,308.43,219.36,309.6Zm-.44-45.15c-14.38,0-14.35,31.55,0,32.44C233.27,296,233.3,264.45,218.92,264.45Zm-43,0c-14.38,0-14.35,31.55,0,32.44C190.31,296,190.34,264.45,176,264.45Zm0,0c-14.38,0-14.35,31.55,0,32.44C190.31,296,190.34,264.45,176,264.45Zm43,0c-14.38,0-14.35,31.55,0,32.44C233.27,296,233.3,264.45,218.92,264.45Zm0,0c-14.38,0-14.35,31.55,0,32.44C233.27,296,233.3,264.45,218.92,264.45Zm-43,0c-14.38,0-14.35,31.55,0,32.44C190.31,296,190.34,264.45,176,264.45Zm0,0c-14.38,0-14.35,31.55,0,32.44C190.31,296,190.34,264.45,176,264.45Zm0,0c-14.38,0-14.35,31.55,0,32.44C190.31,296,190.34,264.45,176,264.45Zm0,0c-14.38,0-14.35,31.55,0,32.44C190.31,296,190.34,264.45,176,264.45Zm0,0c-14.38,0-14.35,31.55,0,32.44C190.31,296,190.34,264.45,176,264.45Zm0,0c-14.38,0-14.35,31.55,0,32.44C190.31,296,190.34,264.45,176,264.45Zm0,0c-14.38,0-14.35,31.55,0,32.44C190.31,296,190.34,264.45,176,264.45Zm0,0c-14.38,0-14.35,31.55,0,32.44C190.31,296,190.34,264.45,176,264.45Zm0,0c-14.38,0-14.35,31.55,0,32.44C190.31,296,190.34,264.45,176,264.45Zm0,0c-14.38,0-14.35,31.55,0,32.44C190.31,296,190.34,264.45,176,264.45Zm0,0c-14.38,0-14.35,31.55,0,32.44C190.31,296,190.34,264.45,176,264.45Zm0,0c-14.38,0-14.35,31.55,0,32.44C190.31,296,190.34,264.45,176,264.45Zm0,0c-14.38,0-14.35,31.55,0,32.44C190.31,296,190.34,264.45,176,264.45Zm0,0c-14.38,0-14.35,31.55,0,32.44C190.31,296,190.34,264.45,176,264.45Zm0,0c-14.38,0-14.35,31.55,0,32.44C190.31,296,190.34,264.45,176,264.45Zm0,0c-14.38,0-14.35,31.55,0,32.44C190.31,296,190.34,264.45,176,264.45Zm43,0c-14.38,0-14.35,31.55,0,32.44C233.27,296,233.3,264.45,218.92,264.45Zm0,0c-14.38,0-14.35,31.55,0,32.44C233.27,296,233.3,264.45,218.92,264.45Zm-43,0c-14.38,0-14.35,31.55,0,32.44C190.31,296,190.34,264.45,176,264.45Zm0,0c-14.38,0-14.35,31.55,0,32.44C190.31,296,190.34,264.45,176,264.45Zm43,0c-14.38,0-14.35,31.55,0,32.44C233.27,296,233.3,264.45,218.92,264.45Zm0,0c-14.38,0-14.35,31.55,0,32.44C233.27,296,233.3,264.45,218.92,264.45Zm-43,0c-14.38,0-14.35,31.55,0,32.44C190.31,296,190.34,264.45,176,264.45Zm97.82,13.9c0-.07-.43-1.68-.62-2.25a29.31,29.31,0,0,0-3.61-7,52,52,0,0,0-13.83-13.35c-12.87-8.76-28.17-13.38-43.53-15.16-27.19-3.17-60.21,1.58-80.78,21.31a39.31,39.31,0,0,0-8.67,11.72,23,23,0,0,0-1.77,5.53,7,7,0,0,0,.08,3.48,30.32,30.32,0,0,0,1.69,5,32.23,32.23,0,0,0,3.56,5.87,52.17,52.17,0,0,0,12.33,11.62c23.89,16.58,56.55,19.63,84.43,13.77,13.15-2.76,26.13-8,36.72-16.38a45.34,45.34,0,0,0,11-12.21,29.16,29.16,0,0,0,2.54-5.54,12.55,12.55,0,0,0,.72-4.15A11.87,11.87,0,0,0,273.78,278.35ZM176.4,309.6h-.08a1.05,1.05,0,0,1-.36,0,1.29,1.29,0,0,1-.39,0h-.06c-12.47-1.18-15.75-19.06-15.77-28.93,0-9.34,3.44-29,16.22-29s16.21,19.62,16.21,29C192.17,290.56,188.86,308.43,176.4,309.6Zm43,0h-.08a1.05,1.05,0,0,1-.36,0,1.29,1.29,0,0,1-.39,0h-.06c-12.47-1.18-15.75-19.06-15.77-28.93,0-9.34,3.44-29,16.22-29s16.22,19.62,16.22,29C235.14,290.56,231.83,308.43,219.36,309.6Zm-.44-45.15c-14.38,0-14.35,31.55,0,32.44C233.27,296,233.3,264.45,218.92,264.45Zm-43,0c-14.38,0-14.35,31.55,0,32.44C190.31,296,190.34,264.45,176,264.45Zm0,0c-14.38,0-14.35,31.55,0,32.44C190.31,296,190.34,264.45,176,264.45Zm43,0c-14.38,0-14.35,31.55,0,32.44C233.27,296,233.3,264.45,218.92,264.45Zm0,0c-14.38,0-14.35,31.55,0,32.44C233.27,296,233.3,264.45,218.92,264.45Zm-43,0c-14.38,0-14.35,31.55,0,32.44C190.31,296,190.34,264.45,176,264.45Zm0,0c-14.38,0-14.35,31.55,0,32.44C190.31,296,190.34,264.45,176,264.45Zm0,0c-14.38,0-14.35,31.55,0,32.44C190.31,296,190.34,264.45,176,264.45Zm0,0c-14.38,0-14.35,31.55,0,32.44C190.31,296,190.34,264.45,176,264.45Zm0,0c-14.38,0-14.35,31.55,0,32.44C190.31,296,190.34,264.45,176,264.45Zm0,0c-14.38,0-14.35,31.55,0,32.44C190.31,296,190.34,264.45,176,264.45Zm0,0c-14.38,0-14.35,31.55,0,32.44C190.31,296,190.34,264.45,176,264.45Zm0,0c-14.38,0-14.35,31.55,0,32.44C190.31,296,190.34,264.45,176,264.45Zm0,0c-14.38,0-14.35,31.55,0,32.44C190.31,296,190.34,264.45,176,264.45Zm0,0c-14.38,0-14.35,31.55,0,32.44C190.31,296,190.34,264.45,176,264.45Zm0,0c-14.38,0-14.35,31.55,0,32.44C190.31,296,190.34,264.45,176,264.45Zm0,0c-14.38,0-14.35,31.55,0,32.44C190.31,296,190.34,264.45,176,264.45Zm0,0c-14.38,0-14.35,31.55,0,32.44C190.31,296,190.34,264.45,176,264.45Zm0,0c-14.38,0-14.35,31.55,0,32.44C190.31,296,190.34,264.45,176,264.45Zm0,0c-14.38,0-14.35,31.55,0,32.44C190.31,296,190.34,264.45,176,264.45Zm0,0c-14.38,0-14.35,31.55,0,32.44C190.31,296,190.34,264.45,176,264.45Zm43,0c-14.38,0-14.35,31.55,0,32.44C233.27,296,233.3,264.45,218.92,264.45Zm0,0c-14.38,0-14.35,31.55,0,32.44C233.27,296,233.3,264.45,218.92,264.45Zm-43,0c-14.38,0-14.35,31.55,0,32.44C190.31,296,190.34,264.45,176,264.45Zm0,0c-14.38,0-14.35,31.55,0,32.44C190.31,296,190.34,264.45,176,264.45Zm43,0c-14.38,0-14.35,31.55,0,32.44C233.27,296,233.3,264.45,218.92,264.45Zm0,0c-14.38,0-14.35,31.55,0,32.44C233.27,296,233.3,264.45,218.92,264.45Zm-43,0c-14.38,0-14.35,31.55,0,32.44C190.31,296,190.34,264.45,176,264.45Zm97.82,13.9c0-.07-.43-1.68-.62-2.25a29.31,29.31,0,0,0-3.61-7,52,52,0,0,0-13.83-13.35c-12.87-8.76-28.17-13.38-43.53-15.16-27.19-3.17-60.21,1.58-80.78,21.31a39.31,39.31,0,0,0-8.67,11.72,23,23,0,0,0-1.77,5.53,7,7,0,0,0,.08,3.48,30.32,30.32,0,0,0,1.69,5,32.23,32.23,0,0,0,3.56,5.87,52.17,52.17,0,0,0,12.33,11.62c23.89,16.58,56.55,19.63,84.43,13.77,13.15-2.76,26.13-8,36.72-16.38a45.34,45.34,0,0,0,11-12.21,29.16,29.16,0,0,0,2.54-5.54,12.55,12.55,0,0,0,.72-4.15A11.87,11.87,0,0,0,273.78,278.35ZM176.4,309.6h-.08a1.05,1.05,0,0,1-.36,0,1.29,1.29,0,0,1-.39,0h-.06c-12.47-1.18-15.75-19.06-15.77-28.93,0-9.34,3.44-29,16.22-29s16.21,19.62,16.21,29C192.17,290.56,188.86,308.43,176.4,309.6Zm43,0h-.08a1.05,1.05,0,0,1-.36,0,1.29,1.29,0,0,1-.39,0h-.06c-12.47-1.18-15.75-19.06-15.77-28.93,0-9.34,3.44-29,16.22-29s16.22,19.62,16.22,29C235.14,290.56,231.83,308.43,219.36,309.6Zm-.44-45.15c-14.38,0-14.35,31.55,0,32.44C233.27,296,233.3,264.45,218.92,264.45Zm-43,0c-14.38,0-14.35,31.55,0,32.44C190.31,296,190.34,264.45,176,264.45Zm0,0c-14.38,0-14.35,31.55,0,32.44C190.31,296,190.34,264.45,176,264.45Zm43,0c-14.38,0-14.35,31.55,0,32.44C233.27,296,233.3,264.45,218.92,264.45Zm0,0c-14.38,0-14.35,31.55,0,32.44C233.27,296,233.3,264.45,218.92,264.45Zm-43,0c-14.38,0-14.35,31.55,0,32.44C190.31,296,190.34,264.45,176,264.45Zm0,0c-14.38,0-14.35,31.55,0,32.44C190.31,296,190.34,264.45,176,264.45Zm0,0c-14.38,0-14.35,31.55,0,32.44C190.31,296,190.34,264.45,176,264.45Zm0,0c-14.38,0-14.35,31.55,0,32.44C190.31,296,190.34,264.45,176,264.45Zm0,0c-14.38,0-14.35,31.55,0,32.44C190.31,296,190.34,264.45,176,264.45Zm0,0c-14.38,0-14.35,31.55,0,32.44C190.31,296,190.34,264.45,176,264.45Zm0,0c-14.38,0-14.35,31.55,0,32.44C190.31,296,190.34,264.45,176,264.45Zm0,0c-14.38,0-14.35,31.55,0,32.44C190.31,296,190.34,264.45,176,264.45Zm0,0c-14.38,0-14.35,31.55,0,32.44C190.31,296,190.34,264.45,176,264.45Zm0,0c-14.38,0-14.35,31.55,0,32.44C190.31,296,190.34,264.45,176,264.45Zm0,0c-14.38,0-14.35,31.55,0,32.44C190.31,296,190.34,264.45,176,264.45Zm0,0c-14.38,0-14.35,31.55,0,32.44C190.31,296,190.34,264.45,176,264.45Zm43,0c-14.38,0-14.35,31.55,0,32.44C233.27,296,233.3,264.45,218.92,264.45Zm0,0c-14.38,0-14.35,31.55,0,32.44C233.27,296,233.3,264.45,218.92,264.45Zm-43,0c-14.38,0-14.35,31.55,0,32.44C190.31,296,190.34,264.45,176,264.45Zm0,0c-14.38,0-14.35,31.55,0,32.44C190.31,296,190.34,264.45,176,264.45Zm43,0c-14.38,0-14.35,31.55,0,32.44C233.27,296,233.3,264.45,218.92,264.45Zm0,0c-14.38,0-14.35,31.55,0,32.44C233.27,296,233.3,264.45,218.92,264.45Zm-43,0c-14.38,0-14.35,31.55,0,32.44C190.31,296,190.34,264.45,176,264.45Zm97.82,13.9c0-.07-.43-1.68-.62-2.25a29.31,29.31,0,0,0-3.61-7,52,52,0,0,0-13.83-13.35c-12.87-8.76-28.17-13.38-43.53-15.16-27.19-3.17-60.21,1.58-80.78,21.31a39.31,39.31,0,0,0-8.67,11.72,23,23,0,0,0-1.77,5.53,7,7,0,0,0,.08,3.48,30.32,30.32,0,0,0,1.69,5,32.23,32.23,0,0,0,3.56,5.87,52.17,52.17,0,0,0,12.33,11.62c23.89,16.58,56.55,19.63,84.43,13.77,13.15-2.76,26.13-8,36.72-16.38a45.34,45.34,0,0,0,11-12.21,29.16,29.16,0,0,0,2.54-5.54,12.55,12.55,0,0,0,.72-4.15A11.87,11.87,0,0,0,273.78,278.35ZM176.4,309.6h-.08a1.05,1.05,0,0,1-.36,0,1.29,1.29,0,0,1-.39,0h-.06c-12.47-1.18-15.75-19.06-15.77-28.93,0-9.34,3.44-29,16.22-29s16.21,19.62,16.21,29C192.17,290.56,188.86,308.43,176.4,309.6Zm43,0h-.08a1.05,1.05,0,0,1-.36,0,1.29,1.29,0,0,1-.39,0h-.06c-12.47-1.18-15.75-19.06-15.77-28.93,0-9.34,3.44-29,16.22-29s16.22,19.62,16.22,29C235.14,290.56,231.83,308.43,219.36,309.6Zm-.44-45.15c-14.38,0-14.35,31.55,0,32.44C233.27,296,233.3,264.45,218.92,264.45Zm-43,0c-14.38,0-14.35,31.55,0,32.44C190.31,296,190.34,264.45,176,264.45Zm0,0c-14.38,0-14.35,31.55,0,32.44C190.31,296,190.34,264.45,176,264.45Zm43,0c-14.38,0-14.35,31.55,0,32.44C233.27,296,233.3,264.45,218.92,264.45Zm0,0c-14.38,0-14.35,31.55,0,32.44C233.27,296,233.3,264.45,218.92,264.45Zm-43,0c-14.38,0-14.35,31.55,0,32.44C190.31,296,190.34,264.45,176,264.45Zm0,0c-14.38,0-14.35,31.55,0,32.44C190.31,296,190.34,264.45,176,264.45Zm0,0c-14.38,0-14.35,31.55,0,32.44C190.31,296,190.34,264.45,176,264.45Zm0,0c-14.38,0-14.35,31.55,0,32.44C190.31,296,190.34,264.45,176,264.45Zm0,0c-14.38,0-14.35,31.55,0,32.44C190.31,296,190.34,264.45,176,264.45Zm0,0c-14.38,0-14.35,31.55,0,32.44C190.31,296,190.34,264.45,176,264.45Zm0,0c-14.38,0-14.35,31.55,0,32.44C190.31,296,190.34,264.45,176,264.45Zm0,0c-14.38,0-14.35,31.55,0,32.44C190.31,296,190.34,264.45,176,264.45Zm0,0c-14.38,0-14.35,31.55,0,32.44C190.31,296,190.34,264.45,176,264.45Zm0,0c-14.38,0-14.35,31.55,0,32.44C190.31,296,190.34,264.45,176,264.45Zm0,0c-14.38,0-14.35,31.55,0,32.44C190.31,296,190.34,264.45,176,264.45Zm0,0c-14.38,0-14.35,31.55,0,32.44C190.31,296,190.34,264.45,176,264.45Zm43,0c-14.38,0-14.35,31.55,0,32.44C233.27,296,233.3,264.45,218.92,264.45Zm0,0c-14.38,0-14.35,31.55,0,32.44C233.27,296,233.3,264.45,218.92,264.45Zm-43,0c-14.38,0-14.35,31.55,0,32.44C190.31,296,190.34,264.45,176,264.45Zm0,0c-14.38,0-14.35,31.55,0,32.44C190.31,296,190.34,264.45,176,264.45Zm43,0c-14.38,0-14.35,31.55,0,32.44C233.27,296,233.3,264.45,218.92,264.45Zm0,0c-14.38,0-14.35,31.55,0,32.44C233.27,296,233.3,264.45,218.92,264.45Zm-43,0c-14.38,0-14.35,31.55,0,32.44C190.31,296,190.34,264.45,176,264.45Zm97.82,13.9c0-.07-.43-1.68-.62-2.25a29.31,29.31,0,0,0-3.61-7,52,52,0,0,0-13.83-13.35c-12.87-8.76-28.17-13.38-43.53-15.16-27.19-3.17-60.21,1.58-80.78,21.31a39.31,39.31,0,0,0-8.67,11.72,23,23,0,0,0-1.77,5.53,7,7,0,0,0,.08,3.48,30.32,30.32,0,0,0,1.69,5,32.23,32.23,0,0,0,3.56,5.87,52.17,52.17,0,0,0,12.33,11.62c23.89,16.58,56.55,19.63,84.43,13.77,13.15-2.76,26.13-8,36.72-16.38a45.34,45.34,0,0,0,11-12.21,29.16,29.16,0,0,0,2.54-5.54,12.55,12.55,0,0,0,.72-4.15A11.87,11.87,0,0,0,273.78,278.35ZM176.4,309.6h-.08a1.05,1.05,0,0,1-.36,0,1.29,1.29,0,0,1-.39,0h-.06c-12.47-1.18-15.75-19.06-15.77-28.93,0-9.34,3.44-29,16.22-29s16.21,19.62,16.21,29C192.17,290.56,188.86,308.43,176.4,309.6Zm43,0h-.08a1.05,1.05,0,0,1-.36,0,1.29,1.29,0,0,1-.39,0h-.06c-12.47-1.18-15.75-19.06-15.77-28.93,0-9.34,3.44-29,16.22-29s16.22,19.62,16.22,29C235.14,290.56,231.83,308.43,219.36,309.6Zm-.44-45.15c-14.38,0-14.35,31.55,0,32.44C233.27,296,233.3,264.45,218.92,264.45Zm-43,0c-14.38,0-14.35,31.55,0,32.44C190.31,296,190.34,264.45,176,264.45Zm0,0c-14.38,0-14.35,31.55,0,32.44C190.31,296,190.34,264.45,176,264.45Zm43,0c-14.38,0-14.35,31.55,0,32.44C233.27,296,233.3,264.45,218.92,264.45Zm0,0c-14.38,0-14.35,31.55,0,32.44C233.27,296,233.3,264.45,218.92,264.45Zm-43,0c-14.38,0-14.35,31.55,0,32.44C190.31,296,190.34,264.45,176,264.45Zm0,0c-14.38,0-14.35,31.55,0,32.44C190.31,296,190.34,264.45,176,264.45Zm0,0c-14.38,0-14.35,31.55,0,32.44C190.31,296,190.34,264.45,176,264.45Zm0,0c-14.38,0-14.35,31.55,0,32.44C190.31,296,190.34,264.45,176,264.45Zm0,0c-14.38,0-14.35,31.55,0,32.44C190.31,296,190.34,264.45,176,264.45Zm0,0c-14.38,0-14.35,31.55,0,32.44C190.31,296,190.34,264.45,176,264.45Zm0,0c-14.38,0-14.35,31.55,0,32.44C190.31,296,190.34,264.45,176,264.45Zm0,0c-14.38,0-14.35,31.55,0,32.44C190.31,296,190.34,264.45,176,264.45Zm43,0c-14.38,0-14.35,31.55,0,32.44C233.27,296,233.3,264.45,218.92,264.45Zm0,0c-14.38,0-14.35,31.55,0,32.44C233.27,296,233.3,264.45,218.92,264.45Zm-43,0c-14.38,0-14.35,31.55,0,32.44C190.31,296,190.34,264.45,176,264.45Zm0,0c-14.38,0-14.35,31.55,0,32.44C190.31,296,190.34,264.45,176,264.45Zm43,0c-14.38,0-14.35,31.55,0,32.44C233.27,296,233.3,264.45,218.92,264.45Zm0,0c-14.38,0-14.35,31.55,0,32.44C233.27,296,233.3,264.45,218.92,264.45Zm-43,0c-14.38,0-14.35,31.55,0,32.44C190.31,296,190.34,264.45,176,264.45Zm97.82,13.9c0-.07-.43-1.68-.62-2.25a29.31,29.31,0,0,0-3.61-7,52,52,0,0,0-13.83-13.35c-12.87-8.76-28.17-13.38-43.53-15.16-27.19-3.17-60.21,1.58-80.78,21.31a39.31,39.31,0,0,0-8.67,11.72,23,23,0,0,0-1.77,5.53,7,7,0,0,0,.08,3.48,30.32,30.32,0,0,0,1.69,5,32.23,32.23,0,0,0,3.56,5.87,52.17,52.17,0,0,0,12.33,11.62c23.89,16.58,56.55,19.63,84.43,13.77,13.15-2.76,26.13-8,36.72-16.38a45.34,45.34,0,0,0,11-12.21,29.16,29.16,0,0,0,2.54-5.54,12.55,12.55,0,0,0,.72-4.15A11.87,11.87,0,0,0,273.78,278.35ZM176.4,309.6h-.08a1.05,1.05,0,0,1-.36,0,1.29,1.29,0,0,1-.39,0h-.06c-12.47-1.18-15.75-19.06-15.77-28.93,0-9.34,3.44-29,16.22-29s16.21,19.62,16.21,29C192.17,290.56,188.86,308.43,176.4,309.6Zm43,0h-.08a1.05,1.05,0,0,1-.36,0,1.29,1.29,0,0,1-.39,0h-.06c-12.47-1.18-15.75-19.06-15.77-28.93,0-9.34,3.44-29,16.22-29s16.22,19.62,16.22,29C235.14,290.56,231.83,308.43,219.36,309.6Zm-.44-45.15c-14.38,0-14.35,31.55,0,32.44C233.27,296,233.3,264.45,218.92,264.45Zm-43,0c-14.38,0-14.35,31.55,0,32.44C190.31,296,190.34,264.45,176,264.45Zm0,0c-14.38,0-14.35,31.55,0,32.44C190.31,296,190.34,264.45,176,264.45Zm43,0c-14.38,0-14.35,31.55,0,32.44C233.27,296,233.3,264.45,218.92,264.45Zm0,0c-14.38,0-14.35,31.55,0,32.44C233.27,296,233.3,264.45,218.92,264.45Zm-43,0c-14.38,0-14.35,31.55,0,32.44C190.31,296,190.34,264.45,176,264.45Zm0,0c-14.38,0-14.35,31.55,0,32.44C190.31,296,190.34,264.45,176,264.45Zm0,0c-14.38,0-14.35,31.55,0,32.44C190.31,296,190.34,264.45,176,264.45Zm0,0c-14.38,0-14.35,31.55,0,32.44C190.31,296,190.34,264.45,176,264.45Zm0,0c-14.38,0-14.35,31.55,0,32.44C190.31,296,190.34,264.45,176,264.45Zm0,0c-14.38,0-14.35,31.55,0,32.44C190.31,296,190.34,264.45,176,264.45Zm0,0c-14.38,0-14.35,31.55,0,32.44C190.31,296,190.34,264.45,176,264.45Zm0,0c-14.38,0-14.35,31.55,0,32.44C190.31,296,190.34,264.45,176,264.45Zm43,0c-14.38,0-14.35,31.55,0,32.44C233.27,296,233.3,264.45,218.92,264.45Zm0,0c-14.38,0-14.35,31.55,0,32.44C233.27,296,233.3,264.45,218.92,264.45Zm-43,0c-14.38,0-14.35,31.55,0,32.44C190.31,296,190.34,264.45,176,264.45Zm0,0c-14.38,0-14.35,31.55,0,32.44C190.31,296,190.34,264.45,176,264.45Zm43,0c-14.38,0-14.35,31.55,0,32.44C233.27,296,233.3,264.45,218.92,264.45Zm0,0c-14.38,0-14.35,31.55,0,32.44C233.27,296,233.3,264.45,218.92,264.45Zm-43,0c-14.38,0-14.35,31.55,0,32.44C190.31,296,190.34,264.45,176,264.45Zm97.82,13.9c0-.07-.43-1.68-.62-2.25a29.31,29.31,0,0,0-3.61-7,52,52,0,0,0-13.83-13.35c-12.87-8.76-28.17-13.38-43.53-15.16-27.19-3.17-60.21,1.58-80.78,21.31a39.31,39.31,0,0,0-8.67,11.72,23,23,0,0,0-1.77,5.53,7,7,0,0,0,.08,3.48,30.32,30.32,0,0,0,1.69,5,32.23,32.23,0,0,0,3.56,5.87,52.17,52.17,0,0,0,12.33,11.62c23.89,16.58,56.55,19.63,84.43,13.77,13.15-2.76,26.13-8,36.72-16.38a45.34,45.34,0,0,0,11-12.21,29.16,29.16,0,0,0,2.54-5.54,12.55,12.55,0,0,0,.72-4.15A11.87,11.87,0,0,0,273.78,278.35ZM176.4,309.6h-.08a1.05,1.05,0,0,1-.36,0,1.29,1.29,0,0,1-.39,0h-.06c-12.47-1.18-15.75-19.06-15.77-28.93,0-9.34,3.44-29,16.22-29s16.21,19.62,16.21,29C192.17,290.56,188.86,308.43,176.4,309.6Zm43,0h-.08a1.05,1.05,0,0,1-.36,0,1.29,1.29,0,0,1-.39,0h-.06c-12.47-1.18-15.75-19.06-15.77-28.93,0-9.34,3.44-29,16.22-29s16.22,19.62,16.22,29C235.14,290.56,231.83,308.43,219.36,309.6Zm-.44-45.15c-14.38,0-14.35,31.55,0,32.44C233.27,296,233.3,264.45,218.92,264.45Zm-43,0c-14.38,0-14.35,31.55,0,32.44C190.31,296,190.34,264.45,176,264.45Zm0,0c-14.38,0-14.35,31.55,0,32.44C190.31,296,190.34,264.45,176,264.45Zm43,0c-14.38,0-14.35,31.55,0,32.44C233.27,296,233.3,264.45,218.92,264.45Zm0,0c-14.38,0-14.35,31.55,0,32.44C233.27,296,233.3,264.45,218.92,264.45Zm-43,0c-14.38,0-14.35,31.55,0,32.44C190.31,296,190.34,264.45,176,264.45Zm0,0c-14.38,0-14.35,31.55,0,32.44C190.31,296,190.34,264.45,176,264.45Zm0,0c-14.38,0-14.35,31.55,0,32.44C190.31,296,190.34,264.45,176,264.45Zm0,0c-14.38,0-14.35,31.55,0,32.44C190.31,296,190.34,264.45,176,264.45Zm43,0c-14.38,0-14.35,31.55,0,32.44C233.27,296,233.3,264.45,218.92,264.45Zm0,0c-14.38,0-14.35,31.55,0,32.44C233.27,296,233.3,264.45,218.92,264.45Zm-43,0c-14.38,0-14.35,31.55,0,32.44C190.31,296,190.34,264.45,176,264.45Zm0,0c-14.38,0-14.35,31.55,0,32.44C190.31,296,190.34,264.45,176,264.45Zm43,0c-14.38,0-14.35,31.55,0,32.44C233.27,296,233.3,264.45,218.92,264.45Zm0,0c-14.38,0-14.35,31.55,0,32.44C233.27,296,233.3,264.45,218.92,264.45Zm-43,0c-14.38,0-14.35,31.55,0,32.44C190.31,296,190.34,264.45,176,264.45Zm97.82,13.9c0-.07-.43-1.68-.62-2.25a29.31,29.31,0,0,0-3.61-7,52,52,0,0,0-13.83-13.35c-12.87-8.76-28.17-13.38-43.53-15.16-27.19-3.17-60.21,1.58-80.78,21.31a39.31,39.31,0,0,0-8.67,11.72,23,23,0,0,0-1.77,5.53,7,7,0,0,0,.08,3.48,30.32,30.32,0,0,0,1.69,5,32.23,32.23,0,0,0,3.56,5.87,52.17,52.17,0,0,0,12.33,11.62c23.89,16.58,56.55,19.63,84.43,13.77,13.15-2.76,26.13-8,36.72-16.38a45.34,45.34,0,0,0,11-12.21,29.16,29.16,0,0,0,2.54-5.54,12.55,12.55,0,0,0,.72-4.15A11.87,11.87,0,0,0,273.78,278.35ZM176.4,309.6h-.08a1.05,1.05,0,0,1-.36,0,1.29,1.29,0,0,1-.39,0h-.06c-12.47-1.18-15.75-19.06-15.77-28.93,0-9.34,3.44-29,16.22-29s16.21,19.62,16.21,29C192.17,290.56,188.86,308.43,176.4,309.6Zm43,0h-.08a1.05,1.05,0,0,1-.36,0,1.29,1.29,0,0,1-.39,0h-.06c-12.47-1.18-15.75-19.06-15.77-28.93,0-9.34,3.44-29,16.22-29s16.22,19.62,16.22,29C235.14,290.56,231.83,308.43,219.36,309.6Zm-.44-45.15c-14.38,0-14.35,31.55,0,32.44C233.27,296,233.3,264.45,218.92,264.45Zm-43,0c-14.38,0-14.35,31.55,0,32.44C190.31,296,190.34,264.45,176,264.45Zm0,0c-14.38,0-14.35,31.55,0,32.44C190.31,296,190.34,264.45,176,264.45Zm43,0c-14.38,0-14.35,31.55,0,32.44C233.27,296,233.3,264.45,218.92,264.45Zm0,0c-14.38,0-14.35,31.55,0,32.44C233.27,296,233.3,264.45,218.92,264.45Zm-43,0c-14.38,0-14.35,31.55,0,32.44C190.31,296,190.34,264.45,176,264.45Zm0,0c-14.38,0-14.35,31.55,0,32.44C190.31,296,190.34,264.45,176,264.45Zm0,0c-14.38,0-14.35,31.55,0,32.44C190.31,296,190.34,264.45,176,264.45Zm0,0c-14.38,0-14.35,31.55,0,32.44C190.31,296,190.34,264.45,176,264.45Zm43,0c-14.38,0-14.35,31.55,0,32.44C233.27,296,233.3,264.45,218.92,264.45Zm0,0c-14.38,0-14.35,31.55,0,32.44C233.27,296,233.3,264.45,218.92,264.45Zm-43,0c-14.38,0-14.35,31.55,0,32.44C190.31,296,190.34,264.45,176,264.45Zm0,0c-14.38,0-14.35,31.55,0,32.44C190.31,296,190.34,264.45,176,264.45Zm43,0c-14.38,0-14.35,31.55,0,32.44C233.27,296,233.3,264.45,218.92,264.45Zm0,0c-14.38,0-14.35,31.55,0,32.44C233.27,296,233.3,264.45,218.92,264.45Zm-43,0c-14.38,0-14.35,31.55,0,32.44C190.31,296,190.34,264.45,176,264.45Zm97.82,13.9c0-.07-.43-1.68-.62-2.25a29.31,29.31,0,0,0-3.61-7,52,52,0,0,0-13.83-13.35c-12.87-8.76-28.17-13.38-43.53-15.16-27.19-3.17-60.21,1.58-80.78,21.31a39.31,39.31,0,0,0-8.67,11.72,23,23,0,0,0-1.77,5.53,7,7,0,0,0,.08,3.48,30.32,30.32,0,0,0,1.69,5,32.23,32.23,0,0,0,3.56,5.87,52.17,52.17,0,0,0,12.33,11.62c23.89,16.58,56.55,19.63,84.43,13.77,13.15-2.76,26.13-8,36.72-16.38a45.34,45.34,0,0,0,11-12.21,29.16,29.16,0,0,0,2.54-5.54,12.55,12.55,0,0,0,.72-4.15A11.87,11.87,0,0,0,273.78,278.35ZM176.4,309.6h-.08a1.05,1.05,0,0,1-.36,0,1.29,1.29,0,0,1-.39,0h-.06c-12.47-1.18-15.75-19.06-15.77-28.93,0-9.34,3.44-29,16.22-29s16.21,19.62,16.21,29C192.17,290.56,188.86,308.43,176.4,309.6Zm43,0h-.08a1.05,1.05,0,0,1-.36,0,1.29,1.29,0,0,1-.39,0h-.06c-12.47-1.18-15.75-19.06-15.77-28.93,0-9.34,3.44-29,16.22-29s16.22,19.62,16.22,29C235.14,290.56,231.83,308.43,219.36,309.6Zm-.44-45.15c-14.38,0-14.35,31.55,0,32.44C233.27,296,233.3,264.45,218.92,264.45Zm-43,0c-14.38,0-14.35,31.55,0,32.44C190.31,296,190.34,264.45,176,264.45Zm0,0c-14.38,0-14.35,31.55,0,32.44C190.31,296,190.34,264.45,176,264.45Zm43,0c-14.38,0-14.35,31.55,0,32.44C233.27,296,233.3,264.45,218.92,264.45Zm0,0c-14.38,0-14.35,31.55,0,32.44C233.27,296,233.3,264.45,218.92,264.45Zm-43,0c-14.38,0-14.35,31.55,0,32.44C190.31,296,190.34,264.45,176,264.45Zm0,0c-14.38,0-14.35,31.55,0,32.44C190.31,296,190.34,264.45,176,264.45Zm43,0c-14.38,0-14.35,31.55,0,32.44C233.27,296,233.3,264.45,218.92,264.45Zm0,0c-14.38,0-14.35,31.55,0,32.44C233.27,296,233.3,264.45,218.92,264.45Zm-43,0c-14.38,0-14.35,31.55,0,32.44C190.31,296,190.34,264.45,176,264.45Zm97.82,13.9c0-.07-.43-1.68-.62-2.25a29.31,29.31,0,0,0-3.61-7,52,52,0,0,0-13.83-13.35c-12.87-8.76-28.17-13.38-43.53-15.16-27.19-3.17-60.21,1.58-80.78,21.31a39.31,39.31,0,0,0-8.67,11.72,23,23,0,0,0-1.77,5.53,7,7,0,0,0,.08,3.48,30.32,30.32,0,0,0,1.69,5,32.23,32.23,0,0,0,3.56,5.87,52.17,52.17,0,0,0,12.33,11.62c23.89,16.58,56.55,19.63,84.43,13.77,13.15-2.76,26.13-8,36.72-16.38a45.34,45.34,0,0,0,11-12.21,29.16,29.16,0,0,0,2.54-5.54,12.55,12.55,0,0,0,.72-4.15A11.87,11.87,0,0,0,273.78,278.35ZM176.4,309.6h-.08a1.05,1.05,0,0,1-.36,0,1.29,1.29,0,0,1-.39,0h-.06c-12.47-1.18-15.75-19.06-15.77-28.93,0-9.34,3.44-29,16.22-29s16.21,19.62,16.21,29C192.17,290.56,188.86,308.43,176.4,309.6Zm43,0h-.08a1.05,1.05,0,0,1-.36,0,1.29,1.29,0,0,1-.39,0h-.06c-12.47-1.18-15.75-19.06-15.77-28.93,0-9.34,3.44-29,16.22-29s16.22,19.62,16.22,29C235.14,290.56,231.83,308.43,219.36,309.6Zm-.44-45.15c-14.38,0-14.35,31.55,0,32.44C233.27,296,233.3,264.45,218.92,264.45Zm-43,0c-14.38,0-14.35,31.55,0,32.44C190.31,296,190.34,264.45,176,264.45Zm0,0c-14.38,0-14.35,31.55,0,32.44C190.31,296,190.34,264.45,176,264.45Zm43,0c-14.38,0-14.35,31.55,0,32.44C233.27,296,233.3,264.45,218.92,264.45Zm0,0c-14.38,0-14.35,31.55,0,32.44C233.27,296,233.3,264.45,218.92,264.45Zm-43,0c-14.38,0-14.35,31.55,0,32.44C190.31,296,190.34,264.45,176,264.45Zm0,0c-14.38,0-14.35,31.55,0,32.44C190.31,296,190.34,264.45,176,264.45Zm43,0c-14.38,0-14.35,31.55,0,32.44C233.27,296,233.3,264.45,218.92,264.45Zm0,0c-14.38,0-14.35,31.55,0,32.44C233.27,296,233.3,264.45,218.92,264.45Zm-43,0c-14.38,0-14.35,31.55,0,32.44C190.31,296,190.34,264.45,176,264.45Zm97.82,13.9c0-.07-.43-1.68-.62-2.25a29.31,29.31,0,0,0-3.61-7,52,52,0,0,0-13.83-13.35c-12.87-8.76-28.17-13.38-43.53-15.16-27.19-3.17-60.21,1.58-80.78,21.31a39.31,39.31,0,0,0-8.67,11.72,23,23,0,0,0-1.77,5.53,7,7,0,0,0,.08,3.48,30.32,30.32,0,0,0,1.69,5,32.23,32.23,0,0,0,3.56,5.87,52.17,52.17,0,0,0,12.33,11.62c23.89,16.58,56.55,19.63,84.43,13.77,13.15-2.76,26.13-8,36.72-16.38a45.34,45.34,0,0,0,11-12.21,29.16,29.16,0,0,0,2.54-5.54,12.55,12.55,0,0,0,.72-4.15A11.87,11.87,0,0,0,273.78,278.35ZM176.4,309.6h-.08a1.05,1.05,0,0,1-.36,0,1.29,1.29,0,0,1-.39,0h-.06c-12.47-1.18-15.75-19.06-15.77-28.93,0-9.34,3.44-29,16.22-29s16.21,19.62,16.21,29C192.17,290.56,188.86,308.43,176.4,309.6Zm43,0h-.08a1.05,1.05,0,0,1-.36,0,1.29,1.29,0,0,1-.39,0h-.06c-12.47-1.18-15.75-19.06-15.77-28.93,0-9.34,3.44-29,16.22-29s16.22,19.62,16.22,29C235.14,290.56,231.83,308.43,219.36,309.6Zm-.44-45.15c-14.38,0-14.35,31.55,0,32.44C233.27,296,233.3,264.45,218.92,264.45Zm-43,0c-14.38,0-14.35,31.55,0,32.44C190.31,296,190.34,264.45,176,264.45Zm97.82,13.9c0-.07-.43-1.68-.62-2.25a29.31,29.31,0,0,0-3.61-7,52,52,0,0,0-13.83-13.35c-12.87-8.76-28.17-13.38-43.53-15.16-27.19-3.17-60.21,1.58-80.78,21.31a39.31,39.31,0,0,0-8.67,11.72,23,23,0,0,0-1.77,5.53,7,7,0,0,0,.08,3.48,30.32,30.32,0,0,0,1.69,5,32.23,32.23,0,0,0,3.56,5.87,52.17,52.17,0,0,0,12.33,11.62c23.89,16.58,56.55,19.63,84.43,13.77,13.15-2.76,26.13-8,36.72-16.38a45.34,45.34,0,0,0,11-12.21,29.16,29.16,0,0,0,2.54-5.54,12.55,12.55,0,0,0,.72-4.15A11.87,11.87,0,0,0,273.78,278.35ZM176.4,309.6h-.08a1.05,1.05,0,0,1-.36,0,1.29,1.29,0,0,1-.39,0h-.06c-12.47-1.18-15.75-19.06-15.77-28.93,0-9.34,3.44-29,16.22-29s16.21,19.62,16.21,29C192.17,290.56,188.86,308.43,176.4,309.6Zm43,0h-.08a1.05,1.05,0,0,1-.36,0,1.29,1.29,0,0,1-.39,0h-.06c-12.47-1.18-15.75-19.06-15.77-28.93,0-9.34,3.44-29,16.22-29s16.22,19.62,16.22,29C235.14,290.56,231.83,308.43,219.36,309.6Zm-.44-45.15c-14.38,0-14.35,31.55,0,32.44C233.27,296,233.3,264.45,218.92,264.45Zm-43,0c-14.38,0-14.35,31.55,0,32.44C190.31,296,190.34,264.45,176,264.45ZM315.35,183.3C287.49,161,272.1,126.61,263.07,92.87a294.78,294.78,0,0,1-8.29-43.31c-1.12-.28-2.23-.65-3.35-1-.45-.15-.67-.24-.77-.28h0c-.06,0-.13,0-.11,0l-.84-.22c-18.33-4.82-37.46-5.22-56.3-5.22s-37.93-.06-56.4,4.09c-2.75.62-5.43,1.46-8.18,1.9-.18,2.11-.38,4.23-.6,6.33-3.16,31.07-10.48,63.23-25.58,90.8-8.77,16-19.91,30.66-34.9,41.36-14.62,10.44-32.25,15.88-50.08,17,.7,5.36,1.51,10.7,2.39,16.05,1.71,10.46,3.25,20.94,5.12,31.36h0a.11.11,0,0,0,0,.05s0,0,0,.08,0,.07,0,.11c.1.48.29,1.52.42,2.17.26,1.35.53,2.69.82,4,.56,2.69,1.15,5.37,1.8,8q1.76,7.38,4,14.64c.09.28.55,1.7.73,2.27,0,0,0,.06,0,.07a.36.36,0,0,1,0,.07s0,0,0,0,0,0,0,0v0c.37,1.06.76,2.12,1.15,3.17,1,2.64,2.05,5.26,3.18,7.85,1.86,4.27,4.33,9.34,6.29,12.79a146.83,146.83,0,0,0,22,29c17.17,17.8,39.31,33.17,63.4,39.7,21.33,5.78,43.53,5.33,65.44,5.31h0c8.29,0,16.57.11,24.86-.21,21.25-.82,42.37-4.41,61.68-13.63,20.26-9.67,37.61-24.68,51.1-42.54a132.16,132.16,0,0,0,14.17-22.95q3.54-7.21,6.44-14.73,1.11-2.88,2.14-5.79h0s0,0,0,0a1.22,1.22,0,0,1,.07-.2c.2-.6.74-2.18.79-2.33q.63-2,1.23-3.9c3.25-10.6,5.84-21.4,8.06-32.27.31-1.51.62-3,.91-4.54,0-.1.33-1.71.5-2.56a.43.43,0,0,0,0-.11.5.5,0,0,0,0-.12.44.44,0,0,0,0-.14v0a.3.3,0,0,0,0-.1v0c.52-2.82,1-5.64,1.48-8.47,1-5.92,2-11.84,2.78-17.79.19-1.47.37-2.95.54-4.42C351.16,203,331.34,196.13,315.35,183.3Zm-211.23,4.93c-1.41-5.35-1.71-14,2.14-18.47,8.75-10.24,22.87-16.3,34.88-7.68,4.62,3.33,4.76,11.64,4.15,16.61-.31,2.52-2.72,12.73-7.31,9.43-5.76-4.14-12-4.41-18.14-1a35,35,0,0,0-6.13,4.41s-1.15,1.15-1.46,1.51C108.33,197.66,105.13,192,104.12,188.23ZM283,282.05c-1.43,36-36.14,54.4-68.39,58.76-30.77,4.18-68.76-2.15-90.28-26.55-9.51-10.77-13.56-25.26-12.08-39.45s8.79-26,19.56-34.93c25.47-21.06,64.71-24.68,95.77-16.86,27.9,7,53.93,25.13,55.4,55.83,0,.11,0,.23,0,.35h0c0,.57.05,1.07,0,1.46S283,281.5,283,282.05Zm1.74-93.82c-1,3.74-4.28,9.35-8.13,4.84-.22-.26-.45-.52-.69-.76l-.57-.58h0a.27.27,0,0,0-.07-.08l-.12-.12-.16-.14a1.54,1.54,0,0,0,.19.19l.07.07-.14-.12a35.38,35.38,0,0,0-6.12-4.39c-6.17-3.44-12.38-3.17-18.14,1-4.58,3.29-7-7-7.3-9.43-.63-5.06-.49-13.28,4.14-16.61,12-8.62,26.14-2.56,34.89,7.68C286.37,174.22,286.06,183,284.69,188.23ZM273.16,276.1a29.31,29.31,0,0,0-3.61-7,52,52,0,0,0-13.83-13.35c-12.87-8.76-28.17-13.38-43.53-15.16-27.19-3.17-60.21,1.58-80.78,21.31a39.31,39.31,0,0,0-8.67,11.72,23,23,0,0,0-1.77,5.53,7,7,0,0,0,.08,3.48,30.32,30.32,0,0,0,1.69,5,32.23,32.23,0,0,0,3.56,5.87,52.17,52.17,0,0,0,12.33,11.62c23.89,16.58,56.55,19.63,84.43,13.77,13.15-2.76,26.13-8,36.72-16.38a45.34,45.34,0,0,0,11-12.21,29.16,29.16,0,0,0,2.54-5.54,12.55,12.55,0,0,0,.72-4.15,11.87,11.87,0,0,0-.23-2.32C273.77,278.28,273.35,276.67,273.16,276.1ZM176.4,309.6h-.08a1.05,1.05,0,0,1-.36,0,1.29,1.29,0,0,1-.39,0h-.06c-12.47-1.18-15.75-19.06-15.77-28.93,0-9.34,3.44-29,16.22-29s16.21,19.62,16.21,29C192.17,290.56,188.86,308.43,176.4,309.6Zm43,0h-.08a1.05,1.05,0,0,1-.36,0,1.29,1.29,0,0,1-.39,0h-.06c-12.47-1.18-15.75-19.06-15.77-28.93,0-9.34,3.44-29,16.22-29s16.22,19.62,16.22,29C235.14,290.56,231.83,308.43,219.36,309.6Zm-.44-45.15c-14.38,0-14.35,31.55,0,32.44C233.27,296,233.3,264.45,218.92,264.45Zm-43,0c-14.38,0-14.35,31.55,0,32.44C190.31,296,190.34,264.45,176,264.45Zm0,0c-14.38,0-14.35,31.55,0,32.44C190.31,296,190.34,264.45,176,264.45Zm43,0c-14.38,0-14.35,31.55,0,32.44C233.27,296,233.3,264.45,218.92,264.45Zm0,0c-14.38,0-14.35,31.55,0,32.44C233.27,296,233.3,264.45,218.92,264.45Zm-43,0c-14.38,0-14.35,31.55,0,32.44C190.31,296,190.34,264.45,176,264.45Zm97.82,13.9c0-.07-.43-1.68-.62-2.25a29.31,29.31,0,0,0-3.61-7,52,52,0,0,0-13.83-13.35c-12.87-8.76-28.17-13.38-43.53-15.16-27.19-3.17-60.21,1.58-80.78,21.31a39.31,39.31,0,0,0-8.67,11.72,23,23,0,0,0-1.77,5.53,7,7,0,0,0,.08,3.48,30.32,30.32,0,0,0,1.69,5,32.23,32.23,0,0,0,3.56,5.87,52.17,52.17,0,0,0,12.33,11.62c23.89,16.58,56.55,19.63,84.43,13.77,13.15-2.76,26.13-8,36.72-16.38a45.34,45.34,0,0,0,11-12.21,29.16,29.16,0,0,0,2.54-5.54,12.55,12.55,0,0,0,.72-4.15A11.87,11.87,0,0,0,273.78,278.35ZM176.4,309.6h-.08a1.05,1.05,0,0,1-.36,0,1.29,1.29,0,0,1-.39,0h-.06c-12.47-1.18-15.75-19.06-15.77-28.93,0-9.34,3.44-29,16.22-29s16.21,19.62,16.21,29C192.17,290.56,188.86,308.43,176.4,309.6Zm43,0h-.08a1.05,1.05,0,0,1-.36,0,1.29,1.29,0,0,1-.39,0h-.06c-12.47-1.18-15.75-19.06-15.77-28.93,0-9.34,3.44-29,16.22-29s16.22,19.62,16.22,29C235.14,290.56,231.83,308.43,219.36,309.6Zm-.44-45.15c-14.38,0-14.35,31.55,0,32.44C233.27,296,233.3,264.45,218.92,264.45Zm-43,0c-14.38,0-14.35,31.55,0,32.44C190.31,296,190.34,264.45,176,264.45Zm0,0c-14.38,0-14.35,31.55,0,32.44C190.31,296,190.34,264.45,176,264.45Zm43,0c-14.38,0-14.35,31.55,0,32.44C233.27,296,233.3,264.45,218.92,264.45Zm0,0c-14.38,0-14.35,31.55,0,32.44C233.27,296,233.3,264.45,218.92,264.45Zm-43,0c-14.38,0-14.35,31.55,0,32.44C190.31,296,190.34,264.45,176,264.45Zm97.82,13.9c0-.07-.43-1.68-.62-2.25a29.31,29.31,0,0,0-3.61-7,52,52,0,0,0-13.83-13.35c-12.87-8.76-28.17-13.38-43.53-15.16-27.19-3.17-60.21,1.58-80.78,21.31a39.31,39.31,0,0,0-8.67,11.72,23,23,0,0,0-1.77,5.53,7,7,0,0,0,.08,3.48,30.32,30.32,0,0,0,1.69,5,32.23,32.23,0,0,0,3.56,5.87,52.17,52.17,0,0,0,12.33,11.62c23.89,16.58,56.55,19.63,84.43,13.77,13.15-2.76,26.13-8,36.72-16.38a45.34,45.34,0,0,0,11-12.21,29.16,29.16,0,0,0,2.54-5.54,12.55,12.55,0,0,0,.72-4.15A11.87,11.87,0,0,0,273.78,278.35ZM176.4,309.6h-.08a1.05,1.05,0,0,1-.36,0,1.29,1.29,0,0,1-.39,0h-.06c-12.47-1.18-15.75-19.06-15.77-28.93,0-9.34,3.44-29,16.22-29s16.21,19.62,16.21,29C192.17,290.56,188.86,308.43,176.4,309.6Zm43,0h-.08a1.05,1.05,0,0,1-.36,0,1.29,1.29,0,0,1-.39,0h-.06c-12.47-1.18-15.75-19.06-15.77-28.93,0-9.34,3.44-29,16.22-29s16.22,19.62,16.22,29C235.14,290.56,231.83,308.43,219.36,309.6Zm-.44-45.15c-14.38,0-14.35,31.55,0,32.44C233.27,296,233.3,264.45,218.92,264.45Zm-43,0c-14.38,0-14.35,31.55,0,32.44C190.31,296,190.34,264.45,176,264.45Zm0,0c-14.38,0-14.35,31.55,0,32.44C190.31,296,190.34,264.45,176,264.45Zm43,0c-14.38,0-14.35,31.55,0,32.44C233.27,296,233.3,264.45,218.92,264.45Zm0,0c-14.38,0-14.35,31.55,0,32.44C233.27,296,233.3,264.45,218.92,264.45Zm-43,0c-14.38,0-14.35,31.55,0,32.44C190.31,296,190.34,264.45,176,264.45Zm0,0c-14.38,0-14.35,31.55,0,32.44C190.31,296,190.34,264.45,176,264.45Zm43,0c-14.38,0-14.35,31.55,0,32.44C233.27,296,233.3,264.45,218.92,264.45Zm0,0c-14.38,0-14.35,31.55,0,32.44C233.27,296,233.3,264.45,218.92,264.45Zm-43,0c-14.38,0-14.35,31.55,0,32.44C190.31,296,190.34,264.45,176,264.45Zm0,0c-14.38,0-14.35,31.55,0,32.44C190.31,296,190.34,264.45,176,264.45Zm43,0c-14.38,0-14.35,31.55,0,32.44C233.27,296,233.3,264.45,218.92,264.45Zm0,0c-14.38,0-14.35,31.55,0,32.44C233.27,296,233.3,264.45,218.92,264.45Zm-43,0c-14.38,0-14.35,31.55,0,32.44C190.31,296,190.34,264.45,176,264.45Zm97.82,13.9c0-.07-.43-1.68-.62-2.25a29.31,29.31,0,0,0-3.61-7,52,52,0,0,0-13.83-13.35c-12.87-8.76-28.17-13.38-43.53-15.16-27.19-3.17-60.21,1.58-80.78,21.31a39.31,39.31,0,0,0-8.67,11.72,23,23,0,0,0-1.77,5.53,7,7,0,0,0,.08,3.48,30.32,30.32,0,0,0,1.69,5,32.23,32.23,0,0,0,3.56,5.87,52.17,52.17,0,0,0,12.33,11.62c23.89,16.58,56.55,19.63,84.43,13.77,13.15-2.76,26.13-8,36.72-16.38a45.34,45.34,0,0,0,11-12.21,29.16,29.16,0,0,0,2.54-5.54,12.55,12.55,0,0,0,.72-4.15A11.87,11.87,0,0,0,273.78,278.35ZM176.4,309.6h-.08a1.05,1.05,0,0,1-.36,0,1.29,1.29,0,0,1-.39,0h-.06c-12.47-1.18-15.75-19.06-15.77-28.93,0-9.34,3.44-29,16.22-29s16.21,19.62,16.21,29C192.17,290.56,188.86,308.43,176.4,309.6Zm43,0h-.08a1.05,1.05,0,0,1-.36,0,1.29,1.29,0,0,1-.39,0h-.06c-12.47-1.18-15.75-19.06-15.77-28.93,0-9.34,3.44-29,16.22-29s16.22,19.62,16.22,29C235.14,290.56,231.83,308.43,219.36,309.6Zm-.44-45.15c-14.38,0-14.35,31.55,0,32.44C233.27,296,233.3,264.45,218.92,264.45Zm-43,0c-14.38,0-14.35,31.55,0,32.44C190.31,296,190.34,264.45,176,264.45Zm0,0c-14.38,0-14.35,31.55,0,32.44C190.31,296,190.34,264.45,176,264.45Zm43,0c-14.38,0-14.35,31.55,0,32.44C233.27,296,233.3,264.45,218.92,264.45Zm0,0c-14.38,0-14.35,31.55,0,32.44C233.27,296,233.3,264.45,218.92,264.45Zm-43,0c-14.38,0-14.35,31.55,0,32.44C190.31,296,190.34,264.45,176,264.45Zm0,0c-14.38,0-14.35,31.55,0,32.44C190.31,296,190.34,264.45,176,264.45Zm43,0c-14.38,0-14.35,31.55,0,32.44C233.27,296,233.3,264.45,218.92,264.45Zm0,0c-14.38,0-14.35,31.55,0,32.44C233.27,296,233.3,264.45,218.92,264.45Zm-43,0c-14.38,0-14.35,31.55,0,32.44C190.31,296,190.34,264.45,176,264.45Zm0,0c-14.38,0-14.35,31.55,0,32.44C190.31,296,190.34,264.45,176,264.45Zm43,0c-14.38,0-14.35,31.55,0,32.44C233.27,296,233.3,264.45,218.92,264.45Zm0,0c-14.38,0-14.35,31.55,0,32.44C233.27,296,233.3,264.45,218.92,264.45Zm-43,0c-14.38,0-14.35,31.55,0,32.44C190.31,296,190.34,264.45,176,264.45Zm97.82,13.9c0-.07-.43-1.68-.62-2.25a29.31,29.31,0,0,0-3.61-7,52,52,0,0,0-13.83-13.35c-12.87-8.76-28.17-13.38-43.53-15.16-27.19-3.17-60.21,1.58-80.78,21.31a39.31,39.31,0,0,0-8.67,11.72,23,23,0,0,0-1.77,5.53,7,7,0,0,0,.08,3.48,30.32,30.32,0,0,0,1.69,5,32.23,32.23,0,0,0,3.56,5.87,52.17,52.17,0,0,0,12.33,11.62c23.89,16.58,56.55,19.63,84.43,13.77,13.15-2.76,26.13-8,36.72-16.38a45.34,45.34,0,0,0,11-12.21,29.16,29.16,0,0,0,2.54-5.54,12.55,12.55,0,0,0,.72-4.15A11.87,11.87,0,0,0,273.78,278.35ZM176.4,309.6h-.08a1.05,1.05,0,0,1-.36,0,1.29,1.29,0,0,1-.39,0h-.06c-12.47-1.18-15.75-19.06-15.77-28.93,0-9.34,3.44-29,16.22-29s16.21,19.62,16.21,29C192.17,290.56,188.86,308.43,176.4,309.6Zm43,0h-.08a1.05,1.05,0,0,1-.36,0,1.29,1.29,0,0,1-.39,0h-.06c-12.47-1.18-15.75-19.06-15.77-28.93,0-9.34,3.44-29,16.22-29s16.22,19.62,16.22,29C235.14,290.56,231.83,308.43,219.36,309.6Zm-.44-45.15c-14.38,0-14.35,31.55,0,32.44C233.27,296,233.3,264.45,218.92,264.45Zm-43,0c-14.38,0-14.35,31.55,0,32.44C190.31,296,190.34,264.45,176,264.45Zm0,0c-14.38,0-14.35,31.55,0,32.44C190.31,296,190.34,264.45,176,264.45Zm43,0c-14.38,0-14.35,31.55,0,32.44C233.27,296,233.3,264.45,218.92,264.45Zm0,0c-14.38,0-14.35,31.55,0,32.44C233.27,296,233.3,264.45,218.92,264.45Zm-43,0c-14.38,0-14.35,31.55,0,32.44C190.31,296,190.34,264.45,176,264.45Zm0,0c-14.38,0-14.35,31.55,0,32.44C190.31,296,190.34,264.45,176,264.45Zm0,0c-14.38,0-14.35,31.55,0,32.44C190.31,296,190.34,264.45,176,264.45Zm0,0c-14.38,0-14.35,31.55,0,32.44C190.31,296,190.34,264.45,176,264.45Zm0,0c-14.38,0-14.35,31.55,0,32.44C190.31,296,190.34,264.45,176,264.45Zm0,0c-14.38,0-14.35,31.55,0,32.44C190.31,296,190.34,264.45,176,264.45Zm43,0c-14.38,0-14.35,31.55,0,32.44C233.27,296,233.3,264.45,218.92,264.45Zm0,0c-14.38,0-14.35,31.55,0,32.44C233.27,296,233.3,264.45,218.92,264.45Zm-43,0c-14.38,0-14.35,31.55,0,32.44C190.31,296,190.34,264.45,176,264.45Zm0,0c-14.38,0-14.35,31.55,0,32.44C190.31,296,190.34,264.45,176,264.45Zm43,0c-14.38,0-14.35,31.55,0,32.44C233.27,296,233.3,264.45,218.92,264.45Zm0,0c-14.38,0-14.35,31.55,0,32.44C233.27,296,233.3,264.45,218.92,264.45Zm-43,0c-14.38,0-14.35,31.55,0,32.44C190.31,296,190.34,264.45,176,264.45Zm97.82,13.9c0-.07-.43-1.68-.62-2.25a29.31,29.31,0,0,0-3.61-7,52,52,0,0,0-13.83-13.35c-12.87-8.76-28.17-13.38-43.53-15.16-27.19-3.17-60.21,1.58-80.78,21.31a39.31,39.31,0,0,0-8.67,11.72,23,23,0,0,0-1.77,5.53,7,7,0,0,0,.08,3.48,30.32,30.32,0,0,0,1.69,5,32.23,32.23,0,0,0,3.56,5.87,52.17,52.17,0,0,0,12.33,11.62c23.89,16.58,56.55,19.63,84.43,13.77,13.15-2.76,26.13-8,36.72-16.38a45.34,45.34,0,0,0,11-12.21,29.16,29.16,0,0,0,2.54-5.54,12.55,12.55,0,0,0,.72-4.15A11.87,11.87,0,0,0,273.78,278.35ZM176.4,309.6h-.08a1.05,1.05,0,0,1-.36,0,1.29,1.29,0,0,1-.39,0h-.06c-12.47-1.18-15.75-19.06-15.77-28.93,0-9.34,3.44-29,16.22-29s16.21,19.62,16.21,29C192.17,290.56,188.86,308.43,176.4,309.6Zm43,0h-.08a1.05,1.05,0,0,1-.36,0,1.29,1.29,0,0,1-.39,0h-.06c-12.47-1.18-15.75-19.06-15.77-28.93,0-9.34,3.44-29,16.22-29s16.22,19.62,16.22,29C235.14,290.56,231.83,308.43,219.36,309.6Zm-.44-45.15c-14.38,0-14.35,31.55,0,32.44C233.27,296,233.3,264.45,218.92,264.45Zm-43,0c-14.38,0-14.35,31.55,0,32.44C190.31,296,190.34,264.45,176,264.45Zm0,0c-14.38,0-14.35,31.55,0,32.44C190.31,296,190.34,264.45,176,264.45Zm43,0c-14.38,0-14.35,31.55,0,32.44C233.27,296,233.3,264.45,218.92,264.45Zm0,0c-14.38,0-14.35,31.55,0,32.44C233.27,296,233.3,264.45,218.92,264.45Zm-43,0c-14.38,0-14.35,31.55,0,32.44C190.31,296,190.34,264.45,176,264.45Zm0,0c-14.38,0-14.35,31.55,0,32.44C190.31,296,190.34,264.45,176,264.45Zm0,0c-14.38,0-14.35,31.55,0,32.44C190.31,296,190.34,264.45,176,264.45Zm0,0c-14.38,0-14.35,31.55,0,32.44C190.31,296,190.34,264.45,176,264.45Zm0,0c-14.38,0-14.35,31.55,0,32.44C190.31,296,190.34,264.45,176,264.45Zm0,0c-14.38,0-14.35,31.55,0,32.44C190.31,296,190.34,264.45,176,264.45Zm43,0c-14.38,0-14.35,31.55,0,32.44C233.27,296,233.3,264.45,218.92,264.45Zm0,0c-14.38,0-14.35,31.55,0,32.44C233.27,296,233.3,264.45,218.92,264.45Zm-43,0c-14.38,0-14.35,31.55,0,32.44C190.31,296,190.34,264.45,176,264.45Zm0,0c-14.38,0-14.35,31.55,0,32.44C190.31,296,190.34,264.45,176,264.45Zm43,0c-14.38,0-14.35,31.55,0,32.44C233.27,296,233.3,264.45,218.92,264.45Zm0,0c-14.38,0-14.35,31.55,0,32.44C233.27,296,233.3,264.45,218.92,264.45Zm-43,0c-14.38,0-14.35,31.55,0,32.44C190.31,296,190.34,264.45,176,264.45Zm97.82,13.9c0-.07-.43-1.68-.62-2.25a29.31,29.31,0,0,0-3.61-7,52,52,0,0,0-13.83-13.35c-12.87-8.76-28.17-13.38-43.53-15.16-27.19-3.17-60.21,1.58-80.78,21.31a39.31,39.31,0,0,0-8.67,11.72,23,23,0,0,0-1.77,5.53,7,7,0,0,0,.08,3.48,30.32,30.32,0,0,0,1.69,5,32.23,32.23,0,0,0,3.56,5.87,52.17,52.17,0,0,0,12.33,11.62c23.89,16.58,56.55,19.63,84.43,13.77,13.15-2.76,26.13-8,36.72-16.38a45.34,45.34,0,0,0,11-12.21,29.16,29.16,0,0,0,2.54-5.54,12.55,12.55,0,0,0,.72-4.15A11.87,11.87,0,0,0,273.78,278.35ZM176.4,309.6h-.08a1.05,1.05,0,0,1-.36,0,1.29,1.29,0,0,1-.39,0h-.06c-12.47-1.18-15.75-19.06-15.77-28.93,0-9.34,3.44-29,16.22-29s16.21,19.62,16.21,29C192.17,290.56,188.86,308.43,176.4,309.6Zm43,0h-.08a1.05,1.05,0,0,1-.36,0,1.29,1.29,0,0,1-.39,0h-.06c-12.47-1.18-15.75-19.06-15.77-28.93,0-9.34,3.44-29,16.22-29s16.22,19.62,16.22,29C235.14,290.56,231.83,308.43,219.36,309.6Zm-.44-45.15c-14.38,0-14.35,31.55,0,32.44C233.27,296,233.3,264.45,218.92,264.45Zm-43,0c-14.38,0-14.35,31.55,0,32.44C190.31,296,190.34,264.45,176,264.45Zm0,0c-14.38,0-14.35,31.55,0,32.44C190.31,296,190.34,264.45,176,264.45Zm43,0c-14.38,0-14.35,31.55,0,32.44C233.27,296,233.3,264.45,218.92,264.45Zm0,0c-14.38,0-14.35,31.55,0,32.44C233.27,296,233.3,264.45,218.92,264.45Zm-43,0c-14.38,0-14.35,31.55,0,32.44C190.31,296,190.34,264.45,176,264.45Zm0,0c-14.38,0-14.35,31.55,0,32.44C190.31,296,190.34,264.45,176,264.45Zm0,0c-14.38,0-14.35,31.55,0,32.44C190.31,296,190.34,264.45,176,264.45Zm0,0c-14.38,0-14.35,31.55,0,32.44C190.31,296,190.34,264.45,176,264.45Zm0,0c-14.38,0-14.35,31.55,0,32.44C190.31,296,190.34,264.45,176,264.45Zm0,0c-14.38,0-14.35,31.55,0,32.44C190.31,296,190.34,264.45,176,264.45Zm0,0c-14.38,0-14.35,31.55,0,32.44C190.31,296,190.34,264.45,176,264.45Zm0,0c-14.38,0-14.35,31.55,0,32.44C190.31,296,190.34,264.45,176,264.45Zm0,0c-14.38,0-14.35,31.55,0,32.44C190.31,296,190.34,264.45,176,264.45Zm0,0c-14.38,0-14.35,31.55,0,32.44C190.31,296,190.34,264.45,176,264.45Zm43,0c-14.38,0-14.35,31.55,0,32.44C233.27,296,233.3,264.45,218.92,264.45Zm0,0c-14.38,0-14.35,31.55,0,32.44C233.27,296,233.3,264.45,218.92,264.45Zm-43,0c-14.38,0-14.35,31.55,0,32.44C190.31,296,190.34,264.45,176,264.45Zm0,0c-14.38,0-14.35,31.55,0,32.44C190.31,296,190.34,264.45,176,264.45Zm43,0c-14.38,0-14.35,31.55,0,32.44C233.27,296,233.3,264.45,218.92,264.45Zm0,0c-14.38,0-14.35,31.55,0,32.44C233.27,296,233.3,264.45,218.92,264.45Zm-43,0c-14.38,0-14.35,31.55,0,32.44C190.31,296,190.34,264.45,176,264.45Zm97.82,13.9c0-.07-.43-1.68-.62-2.25a29.31,29.31,0,0,0-3.61-7,52,52,0,0,0-13.83-13.35c-12.87-8.76-28.17-13.38-43.53-15.16-27.19-3.17-60.21,1.58-80.78,21.31a39.31,39.31,0,0,0-8.67,11.72,23,23,0,0,0-1.77,5.53,7,7,0,0,0,.08,3.48,30.32,30.32,0,0,0,1.69,5,32.23,32.23,0,0,0,3.56,5.87,52.17,52.17,0,0,0,12.33,11.62c23.89,16.58,56.55,19.63,84.43,13.77,13.15-2.76,26.13-8,36.72-16.38a45.34,45.34,0,0,0,11-12.21,29.16,29.16,0,0,0,2.54-5.54,12.55,12.55,0,0,0,.72-4.15A11.87,11.87,0,0,0,273.78,278.35ZM176.4,309.6h-.08a1.05,1.05,0,0,1-.36,0,1.29,1.29,0,0,1-.39,0h-.06c-12.47-1.18-15.75-19.06-15.77-28.93,0-9.34,3.44-29,16.22-29s16.21,19.62,16.21,29C192.17,290.56,188.86,308.43,176.4,309.6Zm43,0h-.08a1.05,1.05,0,0,1-.36,0,1.29,1.29,0,0,1-.39,0h-.06c-12.47-1.18-15.75-19.06-15.77-28.93,0-9.34,3.44-29,16.22-29s16.22,19.62,16.22,29C235.14,290.56,231.83,308.43,219.36,309.6Zm-.44-45.15c-14.38,0-14.35,31.55,0,32.44C233.27,296,233.3,264.45,218.92,264.45Zm-43,0c-14.38,0-14.35,31.55,0,32.44C190.31,296,190.34,264.45,176,264.45Zm0,0c-14.38,0-14.35,31.55,0,32.44C190.31,296,190.34,264.45,176,264.45Zm43,0c-14.38,0-14.35,31.55,0,32.44C233.27,296,233.3,264.45,218.92,264.45Zm0,0c-14.38,0-14.35,31.55,0,32.44C233.27,296,233.3,264.45,218.92,264.45Zm-43,0c-14.38,0-14.35,31.55,0,32.44C190.31,296,190.34,264.45,176,264.45Zm0,0c-14.38,0-14.35,31.55,0,32.44C190.31,296,190.34,264.45,176,264.45Zm0,0c-14.38,0-14.35,31.55,0,32.44C190.31,296,190.34,264.45,176,264.45Zm0,0c-14.38,0-14.35,31.55,0,32.44C190.31,296,190.34,264.45,176,264.45Zm0,0c-14.38,0-14.35,31.55,0,32.44C190.31,296,190.34,264.45,176,264.45Zm0,0c-14.38,0-14.35,31.55,0,32.44C190.31,296,190.34,264.45,176,264.45Zm0,0c-14.38,0-14.35,31.55,0,32.44C190.31,296,190.34,264.45,176,264.45Zm0,0c-14.38,0-14.35,31.55,0,32.44C190.31,296,190.34,264.45,176,264.45Zm0,0c-14.38,0-14.35,31.55,0,32.44C190.31,296,190.34,264.45,176,264.45Zm0,0c-14.38,0-14.35,31.55,0,32.44C190.31,296,190.34,264.45,176,264.45Zm43,0c-14.38,0-14.35,31.55,0,32.44C233.27,296,233.3,264.45,218.92,264.45Zm0,0c-14.38,0-14.35,31.55,0,32.44C233.27,296,233.3,264.45,218.92,264.45Zm-43,0c-14.38,0-14.35,31.55,0,32.44C190.31,296,190.34,264.45,176,264.45Zm0,0c-14.38,0-14.35,31.55,0,32.44C190.31,296,190.34,264.45,176,264.45Zm43,0c-14.38,0-14.35,31.55,0,32.44C233.27,296,233.3,264.45,218.92,264.45Zm0,0c-14.38,0-14.35,31.55,0,32.44C233.27,296,233.3,264.45,218.92,264.45Zm-43,0c-14.38,0-14.35,31.55,0,32.44C190.31,296,190.34,264.45,176,264.45Zm97.82,13.9c0-.07-.43-1.68-.62-2.25a29.31,29.31,0,0,0-3.61-7,52,52,0,0,0-13.83-13.35c-12.87-8.76-28.17-13.38-43.53-15.16-27.19-3.17-60.21,1.58-80.78,21.31a39.31,39.31,0,0,0-8.67,11.72,23,23,0,0,0-1.77,5.53,7,7,0,0,0,.08,3.48,30.32,30.32,0,0,0,1.69,5,32.23,32.23,0,0,0,3.56,5.87,52.17,52.17,0,0,0,12.33,11.62c23.89,16.58,56.55,19.63,84.43,13.77,13.15-2.76,26.13-8,36.72-16.38a45.34,45.34,0,0,0,11-12.21,29.16,29.16,0,0,0,2.54-5.54,12.55,12.55,0,0,0,.72-4.15A11.87,11.87,0,0,0,273.78,278.35ZM176.4,309.6h-.08a1.05,1.05,0,0,1-.36,0,1.29,1.29,0,0,1-.39,0h-.06c-12.47-1.18-15.75-19.06-15.77-28.93,0-9.34,3.44-29,16.22-29s16.21,19.62,16.21,29C192.17,290.56,188.86,308.43,176.4,309.6Zm43,0h-.08a1.05,1.05,0,0,1-.36,0,1.29,1.29,0,0,1-.39,0h-.06c-12.47-1.18-15.75-19.06-15.77-28.93,0-9.34,3.44-29,16.22-29s16.22,19.62,16.22,29C235.14,290.56,231.83,308.43,219.36,309.6Zm-.44-45.15c-14.38,0-14.35,31.55,0,32.44C233.27,296,233.3,264.45,218.92,264.45Zm-43,0c-14.38,0-14.35,31.55,0,32.44C190.31,296,190.34,264.45,176,264.45Zm0,0c-14.38,0-14.35,31.55,0,32.44C190.31,296,190.34,264.45,176,264.45Zm43,0c-14.38,0-14.35,31.55,0,32.44C233.27,296,233.3,264.45,218.92,264.45Zm0,0c-14.38,0-14.35,31.55,0,32.44C233.27,296,233.3,264.45,218.92,264.45Zm-43,0c-14.38,0-14.35,31.55,0,32.44C190.31,296,190.34,264.45,176,264.45Zm0,0c-14.38,0-14.35,31.55,0,32.44C190.31,296,190.34,264.45,176,264.45Zm0,0c-14.38,0-14.35,31.55,0,32.44C190.31,296,190.34,264.45,176,264.45Zm0,0c-14.38,0-14.35,31.55,0,32.44C190.31,296,190.34,264.45,176,264.45Zm0,0c-14.38,0-14.35,31.55,0,32.44C190.31,296,190.34,264.45,176,264.45Zm0,0c-14.38,0-14.35,31.55,0,32.44C190.31,296,190.34,264.45,176,264.45Zm0,0c-14.38,0-14.35,31.55,0,32.44C190.31,296,190.34,264.45,176,264.45Zm0,0c-14.38,0-14.35,31.55,0,32.44C190.31,296,190.34,264.45,176,264.45Zm0,0c-14.38,0-14.35,31.55,0,32.44C190.31,296,190.34,264.45,176,264.45Zm0,0c-14.38,0-14.35,31.55,0,32.44C190.31,296,190.34,264.45,176,264.45Zm0,0c-14.38,0-14.35,31.55,0,32.44C190.31,296,190.34,264.45,176,264.45Zm0,0c-14.38,0-14.35,31.55,0,32.44C190.31,296,190.34,264.45,176,264.45Zm0,0c-14.38,0-14.35,31.55,0,32.44C190.31,296,190.34,264.45,176,264.45Zm0,0c-14.38,0-14.35,31.55,0,32.44C190.31,296,190.34,264.45,176,264.45Zm43,0c-14.38,0-14.35,31.55,0,32.44C233.27,296,233.3,264.45,218.92,264.45Zm0,0c-14.38,0-14.35,31.55,0,32.44C233.27,296,233.3,264.45,218.92,264.45Zm-43,0c-14.38,0-14.35,31.55,0,32.44C190.31,296,190.34,264.45,176,264.45Zm0,0c-14.38,0-14.35,31.55,0,32.44C190.31,296,190.34,264.45,176,264.45Zm43,0c-14.38,0-14.35,31.55,0,32.44C233.27,296,233.3,264.45,218.92,264.45Zm0,0c-14.38,0-14.35,31.55,0,32.44C233.27,296,233.3,264.45,218.92,264.45Zm-43,0c-14.38,0-14.35,31.55,0,32.44C190.31,296,190.34,264.45,176,264.45Zm97.82,13.9c0-.07-.43-1.68-.62-2.25a29.31,29.31,0,0,0-3.61-7,52,52,0,0,0-13.83-13.35c-12.87-8.76-28.17-13.38-43.53-15.16-27.19-3.17-60.21,1.58-80.78,21.31a39.31,39.31,0,0,0-8.67,11.72,23,23,0,0,0-1.77,5.53,7,7,0,0,0,.08,3.48,30.32,30.32,0,0,0,1.69,5,32.23,32.23,0,0,0,3.56,5.87,52.17,52.17,0,0,0,12.33,11.62c23.89,16.58,56.55,19.63,84.43,13.77,13.15-2.76,26.13-8,36.72-16.38a45.34,45.34,0,0,0,11-12.21,29.16,29.16,0,0,0,2.54-5.54,12.55,12.55,0,0,0,.72-4.15A11.87,11.87,0,0,0,273.78,278.35ZM176.4,309.6h-.08a1.05,1.05,0,0,1-.36,0,1.29,1.29,0,0,1-.39,0h-.06c-12.47-1.18-15.75-19.06-15.77-28.93,0-9.34,3.44-29,16.22-29s16.21,19.62,16.21,29C192.17,290.56,188.86,308.43,176.4,309.6Zm43,0h-.08a1.05,1.05,0,0,1-.36,0,1.29,1.29,0,0,1-.39,0h-.06c-12.47-1.18-15.75-19.06-15.77-28.93,0-9.34,3.44-29,16.22-29s16.22,19.62,16.22,29C235.14,290.56,231.83,308.43,219.36,309.6Zm-.44-45.15c-14.38,0-14.35,31.55,0,32.44C233.27,296,233.3,264.45,218.92,264.45Zm-43,0c-14.38,0-14.35,31.55,0,32.44C190.31,296,190.34,264.45,176,264.45Zm0,0c-14.38,0-14.35,31.55,0,32.44C190.31,296,190.34,264.45,176,264.45Zm43,0c-14.38,0-14.35,31.55,0,32.44C233.27,296,233.3,264.45,218.92,264.45Zm0,0c-14.38,0-14.35,31.55,0,32.44C233.27,296,233.3,264.45,218.92,264.45Zm-43,0c-14.38,0-14.35,31.55,0,32.44C190.31,296,190.34,264.45,176,264.45Zm0,0c-14.38,0-14.35,31.55,0,32.44C190.31,296,190.34,264.45,176,264.45Zm0,0c-14.38,0-14.35,31.55,0,32.44C190.31,296,190.34,264.45,176,264.45Zm0,0c-14.38,0-14.35,31.55,0,32.44C190.31,296,190.34,264.45,176,264.45Zm0,0c-14.38,0-14.35,31.55,0,32.44C190.31,296,190.34,264.45,176,264.45Zm0,0c-14.38,0-14.35,31.55,0,32.44C190.31,296,190.34,264.45,176,264.45Zm0,0c-14.38,0-14.35,31.55,0,32.44C190.31,296,190.34,264.45,176,264.45Zm0,0c-14.38,0-14.35,31.55,0,32.44C190.31,296,190.34,264.45,176,264.45Zm0,0c-14.38,0-14.35,31.55,0,32.44C190.31,296,190.34,264.45,176,264.45Zm0,0c-14.38,0-14.35,31.55,0,32.44C190.31,296,190.34,264.45,176,264.45Zm0,0c-14.38,0-14.35,31.55,0,32.44C190.31,296,190.34,264.45,176,264.45Zm0,0c-14.38,0-14.35,31.55,0,32.44C190.31,296,190.34,264.45,176,264.45Zm0,0c-14.38,0-14.35,31.55,0,32.44C190.31,296,190.34,264.45,176,264.45Zm0,0c-14.38,0-14.35,31.55,0,32.44C190.31,296,190.34,264.45,176,264.45Zm43,0c-14.38,0-14.35,31.55,0,32.44C233.27,296,233.3,264.45,218.92,264.45Zm0,0c-14.38,0-14.35,31.55,0,32.44C233.27,296,233.3,264.45,218.92,264.45Zm-43,0c-14.38,0-14.35,31.55,0,32.44C190.31,296,190.34,264.45,176,264.45Zm0,0c-14.38,0-14.35,31.55,0,32.44C190.31,296,190.34,264.45,176,264.45Zm43,0c-14.38,0-14.35,31.55,0,32.44C233.27,296,233.3,264.45,218.92,264.45Zm0,0c-14.38,0-14.35,31.55,0,32.44C233.27,296,233.3,264.45,218.92,264.45Zm-43,0c-14.38,0-14.35,31.55,0,32.44C190.31,296,190.34,264.45,176,264.45Zm97.82,13.9c0-.07-.43-1.68-.62-2.25a29.31,29.31,0,0,0-3.61-7,52,52,0,0,0-13.83-13.35c-12.87-8.76-28.17-13.38-43.53-15.16-27.19-3.17-60.21,1.58-80.78,21.31a39.31,39.31,0,0,0-8.67,11.72,23,23,0,0,0-1.77,5.53,7,7,0,0,0,.08,3.48,30.32,30.32,0,0,0,1.69,5,32.23,32.23,0,0,0,3.56,5.87,52.17,52.17,0,0,0,12.33,11.62c23.89,16.58,56.55,19.63,84.43,13.77,13.15-2.76,26.13-8,36.72-16.38a45.34,45.34,0,0,0,11-12.21,29.16,29.16,0,0,0,2.54-5.54,12.55,12.55,0,0,0,.72-4.15A11.87,11.87,0,0,0,273.78,278.35ZM176.4,309.6h-.08a1.05,1.05,0,0,1-.36,0,1.29,1.29,0,0,1-.39,0h-.06c-12.47-1.18-15.75-19.06-15.77-28.93,0-9.34,3.44-29,16.22-29s16.21,19.62,16.21,29C192.17,290.56,188.86,308.43,176.4,309.6Zm43,0h-.08a1.05,1.05,0,0,1-.36,0,1.29,1.29,0,0,1-.39,0h-.06c-12.47-1.18-15.75-19.06-15.77-28.93,0-9.34,3.44-29,16.22-29s16.22,19.62,16.22,29C235.14,290.56,231.83,308.43,219.36,309.6Zm-.44-45.15c-14.38,0-14.35,31.55,0,32.44C233.27,296,233.3,264.45,218.92,264.45Zm-43,0c-14.38,0-14.35,31.55,0,32.44C190.31,296,190.34,264.45,176,264.45Zm0,0c-14.38,0-14.35,31.55,0,32.44C190.31,296,190.34,264.45,176,264.45Zm43,0c-14.38,0-14.35,31.55,0,32.44C233.27,296,233.3,264.45,218.92,264.45Zm0,0c-14.38,0-14.35,31.55,0,32.44C233.27,296,233.3,264.45,218.92,264.45Zm-43,0c-14.38,0-14.35,31.55,0,32.44C190.31,296,190.34,264.45,176,264.45Zm0,0c-14.38,0-14.35,31.55,0,32.44C190.31,296,190.34,264.45,176,264.45Zm0,0c-14.38,0-14.35,31.55,0,32.44C190.31,296,190.34,264.45,176,264.45Zm0,0c-14.38,0-14.35,31.55,0,32.44C190.31,296,190.34,264.45,176,264.45Zm0,0c-14.38,0-14.35,31.55,0,32.44C190.31,296,190.34,264.45,176,264.45Zm0,0c-14.38,0-14.35,31.55,0,32.44C190.31,296,190.34,264.45,176,264.45Zm0,0c-14.38,0-14.35,31.55,0,32.44C190.31,296,190.34,264.45,176,264.45Zm0,0c-14.38,0-14.35,31.55,0,32.44C190.31,296,190.34,264.45,176,264.45Zm0,0c-14.38,0-14.35,31.55,0,32.44C190.31,296,190.34,264.45,176,264.45Z"/><path d="M16,147.36v.07a.09.09,0,0,1,0,0S16,147.4,16,147.36Z"/><path d="M15.91,148.05v0c0,.05,0,.09,0,.12v-.1A.17.17,0,0,0,15.91,148.05Z"/><path d="M15.93,147.8a1.09,1.09,0,0,0,0,.18s0,.05,0,.07V148A1.37,1.37,0,0,1,15.93,147.8Z"/><path d="M20.93,106.17a3.21,3.21,0,0,1-.05.4,2.33,2.33,0,0,1-.06.33h0C20.44,108.79,20.81,106.72,20.93,106.17Z"/><path d="M28.89,74.79a.83.83,0,0,1,0,.12v0A.42.42,0,0,1,28.89,74.79Z"/><path d="M36.43,57.05l0,.05C35,59.32,37.39,54.92,36.43,57.05Z"/><path d="M250.7,48.27h-.11S250.64,48.25,250.7,48.27Z"/><path class="cls-1" d="M176,296.89c-14.35-.89-14.38-32.44,0-32.44S190.31,296,176,296.89Z"/><path class="cls-1" d="M218.92,264.45c-14.38,0-14.35,31.55,0,32.44C233.27,296,233.3,264.45,218.92,264.45Zm0,0c-14.38,0-14.35,31.55,0,32.44C233.27,296,233.3,264.45,218.92,264.45Zm54.86,13.9c0-.07-.43-1.68-.62-2.25a29.31,29.31,0,0,0-3.61-7,52,52,0,0,0-13.83-13.35c-12.87-8.76-28.17-13.38-43.53-15.16-27.19-3.17-60.21,1.58-80.78,21.31a39.31,39.31,0,0,0-8.67,11.72,23,23,0,0,0-1.77,5.53,7,7,0,0,0,.08,3.48,30.32,30.32,0,0,0,1.69,5,32.23,32.23,0,0,0,3.56,5.87,52.17,52.17,0,0,0,12.33,11.62c23.89,16.58,56.55,19.63,84.43,13.77,13.15-2.76,26.13-8,36.72-16.38a45.34,45.34,0,0,0,11-12.21,29.16,29.16,0,0,0,2.54-5.54,12.55,12.55,0,0,0,.72-4.15A11.87,11.87,0,0,0,273.78,278.35ZM176.4,309.6h-.08a1.05,1.05,0,0,1-.36,0,1.29,1.29,0,0,1-.39,0h-.06c-12.47-1.18-15.75-19.06-15.77-28.93,0-9.34,3.44-29,16.22-29s16.21,19.62,16.21,29C192.17,290.56,188.86,308.43,176.4,309.6Zm43,0h-.08a1.05,1.05,0,0,1-.36,0,1.29,1.29,0,0,1-.39,0h-.06c-12.47-1.18-15.75-19.06-15.77-28.93,0-9.34,3.44-29,16.22-29s16.22,19.62,16.22,29C235.14,290.56,231.83,308.43,219.36,309.6Zm-.44-45.15c-14.38,0-14.35,31.55,0,32.44C233.27,296,233.3,264.45,218.92,264.45Z"/><path class="cls-1" d="M218.92,296.89c-14.35-.89-14.38-32.44,0-32.44S233.27,296,218.92,296.89Z"/><path class="cls-1" d="M176,296.89c-14.35-.89-14.38-32.44,0-32.44S190.31,296,176,296.89Z"/><path d="M145.29,178.69c-.31,2.52-2.72,12.73-7.31,9.43-5.76-4.14-12-4.41-18.14-1a35,35,0,0,0-6.13,4.41s-1.15,1.15-1.46,1.51c-3.92,4.59-7.12-1-8.13-4.84-1.41-5.35-1.71-14,2.14-18.47,8.75-10.24,22.87-16.3,34.88-7.68C145.76,165.41,145.9,173.72,145.29,178.69Z"/><path d="M284.69,188.23c-1,3.74-4.28,9.35-8.13,4.84-.22-.26-.45-.52-.69-.76l-.63-.64.15.13a3.71,3.71,0,0,0-.42-.4,1.54,1.54,0,0,0,.19.19l.07.07-.14-.12a35.38,35.38,0,0,0-6.12-4.39c-6.17-3.44-12.38-3.17-18.14,1-4.58,3.29-7-7-7.3-9.43-.63-5.06-.49-13.28,4.14-16.61,12-8.62,26.14-2.56,34.89,7.68C286.37,174.22,286.06,183,284.69,188.23Z"/><path d="M275.39,191.8l-.15-.13-.08-.08a1.54,1.54,0,0,1-.19-.19A3.71,3.71,0,0,1,275.39,191.8Z"/><path d="M73.42,146.6l-.12.12h0a0,0,0,0,1,0,0l0,0Z"/><path d="M103.59,95.74c0,.17-.38,1.16-.45,1.32,0,0,0-.21.15-.53l0-.08,0-.12h0A5.16,5.16,0,0,1,103.59,95.74Z"/><path d="M111.15,65.92c-.1.67-.6,3.27-.29,1.47l.06-.35c0-.12,0-.25.07-.37C111.06,66.29,111.12,66.05,111.15,65.92Z"/><path d="M382.62,96.11c-3.73-21-8.4-42.69-18-61.88C361.33,27.52,357.51,21,351.84,16c-5.2-4.56-12.75-5.76-19.25-7.53-18.18-4.93-40.88-10.06-58.82-1.61-4.3,2-7.13,6.48-11.57,7.84C258,16,254.08,14.14,250.09,13a137,137,0,0,0-24.46-4.17,393,393,0,0,0-64.82-.35,151.69,151.69,0,0,0-26.91,4.06c-4.54,1.18-9.23,2.15-13.86.75-5.77-1.76-9.22-7-14.45-9.69C95.71-1.39,84.42-.51,74,2.11,63.43,4.77,53,8.69,42.8,12.63,30.67,17.34,24,33.87,19.76,45,11.41,66.73,6.65,89.82,3.58,112.84A414.43,414.43,0,0,0,1,196.08c1.66,24,6.14,48.07,10.58,71.7C16.07,291.69,23,315,35.23,336.16c13.9,24.13,34.71,44.83,58.36,59.43,20.33,12.56,43.27,18.73,67,20.13,11.34.67,22.71.52,34.06.51,19.77,0,39.49,0,58.9-4.33A141.2,141.2,0,0,0,321,376.13a172.66,172.66,0,0,0,37.52-51.8c10-21.19,16.11-44.16,20.66-67.08,5.5-27.72,9.41-55.46,9.72-83.77A417.08,417.08,0,0,0,382.62,96.11ZM15.74,151.5l.15-3.09h0v-.08s0,0,0,0,0-.1,0-.16a.17.17,0,0,0,0-.07V148a1.37,1.37,0,0,1,0-.19v-.16s0-.07,0-.11v-.05s0-.08,0-.12a.66.66,0,0,1,0-.14v0c0-.19,0-.37,0-.48.24-3.11.46-6.23.75-9.34q.86-9.11,2.13-18.16.61-4.38,1.34-8.74c.16-.95.33-1.9.49-2.85.05-.27.08-.5.11-.7-.38,1.88,0-.19.11-.74a3.21,3.21,0,0,1-.05.4c0-.12.05-.24.08-.38,1.06-5.34,2.2-10.67,3.52-16,1.11-4.45,2.33-8.88,3.7-13.26.2-.63.4-1.27.61-1.9l.06-.17v0a.42.42,0,0,1,0-.1c.18-.53.55-1.62.65-1.9.73-2,1.49-4,2.31-6,1.34-3.28,3-6.39,4.46-9.59l.09-.19c-1.45,2.22,1-2.18,0-.05.44-.68.84-1.38,1.28-2a43,43,0,0,1,2.81-3.88c.45-.55,2.49-2.46,1.79-1.94a16.59,16.59,0,0,1,1.91-1.42c2.73-1.68,6-2.42,9-3.52,9.44-3.48,18.85-7.25,28.87-8.66a41.73,41.73,0,0,1,14.32.11c5.1,1.08,8.57,4.1,12.45,7.36a24.58,24.58,0,0,0,5,3.21q-.61,6-1.48,12c-.43,2.94-.94,5.88-1.43,8.81,0-.12,0-.25.07-.37.07-.38.13-.62.16-.75-.1.67-.6,3.27-.29,1.47l.06-.35c-.13.63-.25,1.26-.38,1.89-.36,1.8-.74,3.59-1.14,5.39-1.64,7.34-3.65,14.58-6,21.75,0,.09-.06.17-.08.25a5.16,5.16,0,0,1,.23-.58c0,.17-.38,1.16-.45,1.32,0,0,0-.21.15-.53-.28.75-.54,1.52-.82,2.27-.7,1.93-1.44,3.85-2.2,5.75q-2.25,5.58-4.87,11-1.28,2.61-2.65,5.18c-.27.51-.55,1-.83,1.51h0c-.18.3-.88,1.54-1.19,2-2.08,3.46-4.32,6.83-6.73,10.07a109.37,109.37,0,0,1-7.75,9.32q-.92,1-1.86,2l-1,1,.06-.05-.12.12,0,0,0,0c-1.41,1.32-2.87,2.59-4.35,3.82-15.44,12.76-33.69,18.95-53.47,19.76Q15.32,160.95,15.74,151.5ZM371,208.67c-.79,6-1.77,11.87-2.78,17.79-.48,2.83-1,5.65-1.48,8.47v0a.3.3,0,0,1,0,.1v0a.44.44,0,0,1,0,.14.5.5,0,0,1,0,.12.43.43,0,0,1,0,.11c-.17.85-.48,2.46-.5,2.56-.29,1.52-.6,3-.91,4.54-2.22,10.87-4.81,21.67-8.06,32.27q-.6,1.95-1.23,3.9c0,.15-.59,1.73-.79,2.33a1.22,1.22,0,0,0-.07.2s0,0,0,0h0q-1,2.91-2.14,5.79-2.91,7.5-6.44,14.73a132.16,132.16,0,0,1-14.17,22.95c-13.49,17.86-30.84,32.87-51.1,42.54-19.31,9.22-40.43,12.81-61.68,13.63-8.29.32-16.57.21-24.86.21h0c-21.91,0-44.11.47-65.44-5.31-24.09-6.53-46.23-21.9-63.4-39.7a146.83,146.83,0,0,1-22-29c-2-3.45-4.43-8.52-6.29-12.79-1.13-2.59-2.18-5.21-3.18-7.85-.39-1.05-.78-2.11-1.15-3.17v0s0,0,0,0,0,0,0,0a.36.36,0,0,0,0-.07s0,0,0-.07c-.18-.57-.64-2-.73-2.27q-2.28-7.24-4-14.64c-.65-2.67-1.24-5.35-1.8-8-.29-1.35-.56-2.69-.82-4-.13-.65-.32-1.69-.42-2.17,0,0,0-.08,0-.11s0-.06,0-.08a.11.11,0,0,1,0-.05h0c-1.87-10.42-3.41-20.9-5.12-31.36-.88-5.35-1.69-10.69-2.39-16.05,17.83-1.09,35.46-6.53,50.08-17,15-10.7,26.13-25.35,34.9-41.36,15.1-27.57,22.42-59.73,25.58-90.8.22-2.1.42-4.22.6-6.33,2.75-.44,5.43-1.28,8.18-1.9,18.47-4.15,37.58-4.09,56.4-4.09s38,.4,56.3,5.22l.84.22s0,0,.11,0h0c.1,0,.32.13.77.28,1.12.36,2.23.73,3.35,1a294.78,294.78,0,0,0,8.29,43.31c9,33.74,24.42,68.1,52.28,90.43,16,12.83,35.81,19.7,56.15,20.95C371.33,205.72,371.15,207.2,371,208.67Zm-46-54a83.87,83.87,0,0,1-17.08-15.21,148,148,0,0,1-14.38-20.06.36.36,0,0,0-.07-.1s0,0,0-.06l0-.06c-.05-.08-.1-.18-.16-.29-.44-.8-.88-1.59-1.31-2.39q-1.5-2.81-2.89-5.65-2.66-5.44-5-11.06c-1.32-3.23-2.48-6.54-3.69-9.81l0,.06c-.13-.45-1.09-3.14-1.36-4-.59-1.86-1.15-3.73-1.7-5.61q-2.87-9.94-4.93-20.08c-.25-1.21-.48-2.43-.72-3.63-.12-.71-.25-1.41-.37-2.11-.44-2.6-.85-5.21-1.21-7.81,0-.27-.08-.55-.11-.82,1.6-1.15,3-2.34,4.37-3.26,7-4.83,16.1-5.23,24.33-4.93A143.32,143.32,0,0,1,328,42.37c6,1.49,12.95,2.41,18,6,.43.3.81.65,1.22,1l0,0c.74.87,1.5,1.7,2.19,2.6.92,1.21,1.74,2.49,2.57,3.76.1.15.26.44.43.72l.16.3h0l.09.18,0,0,.05.09v0l0,.06,0,0,0,.07c.17.31.34.63.5.95a111,111,0,0,1,4.58,10.35c.54,1.39,1.06,2.8,1.56,4.21v0a.39.39,0,0,0,0,.06.62.62,0,0,1,0,.1l.69,2.09c.42,1.33.83,2.67,1.22,4,1.39,4.71,2.62,9.45,3.73,14.23.51,2.2,1,4.42,1.46,6.63.29,1.37.55,2.74.83,4.1,0,.16.06.31.09.44a1.55,1.55,0,0,1,0,.21c0,.12.05.24.07.37v0a.49.49,0,0,1,0,.15.65.65,0,0,1,0,.11s0,0,0,.06a.08.08,0,0,1,0,0c.08.47.16.95.25,1.43q3,17.16,4.38,34.56c.17,2.11.33,4.24.47,6.35,0,0,0,.06,0,.19s0,.2,0,.33c0,.84.13,2.45.14,2.7.07,1.59.14,3.19.2,4.79q.26,7.29.23,14.58C355.88,169.59,339.51,164.72,324.92,154.68Z"/><path d="M283,279.21h0c0-.12,0-.24,0-.35-1.47-30.7-27.5-48.81-55.4-55.83-31.06-7.82-70.3-4.2-95.77,16.86-10.77,8.9-18.09,20.89-19.56,34.93s2.57,28.68,12.08,39.45c21.52,24.4,59.51,30.73,90.28,26.55,32.25-4.36,67-22.78,68.39-58.76,0-.55.05-1,0-1.38S283,279.78,283,279.21Zm-9.66,5.61a29.16,29.16,0,0,1-2.54,5.54,45.34,45.34,0,0,1-11,12.21C249.19,311,236.21,316.19,223.06,319c-27.88,5.86-60.54,2.81-84.43-13.77a52.17,52.17,0,0,1-12.33-11.62,32.23,32.23,0,0,1-3.56-5.87,30.32,30.32,0,0,1-1.69-5,7,7,0,0,1-.08-3.48,23,23,0,0,1,1.77-5.53,39.31,39.31,0,0,1,8.67-11.72C152,242.21,185,237.46,212.19,240.63c15.36,1.78,30.66,6.4,43.53,15.16a52,52,0,0,1,13.83,13.35,29.31,29.31,0,0,1,3.61,7c.19.57.61,2.18.62,2.25a11.87,11.87,0,0,1,.23,2.32A12.55,12.55,0,0,1,273.29,284.82Z"/><path d="M218.92,251.7c-12.78,0-16.24,19.63-16.22,29,0,9.87,3.3,27.75,15.77,28.93h.06l.39,0,.36,0h.08c12.47-1.17,15.78-19,15.78-28.93C235.14,271.32,231.71,251.7,218.92,251.7Zm0,45.19c-14.35-.89-14.38-32.44,0-32.44S233.27,296,218.92,296.89Z"/><path d="M176,251.7c-12.78,0-16.24,19.63-16.22,29,0,9.87,3.3,27.75,15.77,28.93h.06a1.29,1.29,0,0,0,.39,0,1.05,1.05,0,0,0,.36,0h.08c12.46-1.17,15.77-19,15.77-28.93C192.17,271.32,188.75,251.7,176,251.7Zm0,45.19c-14.35-.89-14.38-32.44,0-32.44S190.31,296,176,296.89Z"/></g></g></svg>