<?xml version="1.0" encoding="UTF-8"?><svg id="Layer_2" xmlns="http://www.w3.org/2000/svg" viewBox="0 0 509.8 540"><defs><style>.cls-1{fill:#fff;}</style></defs><g id="Layer_1-2"><g><g><path class="cls-1" d="M149.34,50.93v.09c-.17,2.32-.34,4.63-.56,6.93-.61,6.8-1.44,13.59-2.46,20.35-.28,1.8-.56,3.6-.86,5.4-.15,.82-.28,1.63-.42,2.45-.89,4.21-1.69,8.41-2.66,12.61-1.06,4.52-2.22,9.02-3.49,13.49-.65,2.32-1.34,4.62-2.05,6.91-.33,1.07-.67,2.13-1.02,3.2-.08,.25-.17,.52-.25,.77-3.55,9.45-7.18,18.79-11.77,27.8-.86,1.71-1.77,3.39-2.67,5.05,0,0-.01,.04-.03,.05,0,.03-.03,.05-.04,.08-.05,.08-.08,.15-.12,.21-.05,.08-.11,.18-.17,.32-.01,.03-.03,.05-.05,.08-.01,.04-.04,.09-.08,.15t.03-.03s-.05,.08-.08,.13c-.04,.07-.07,.13-.11,.2-.12,.2-.24,.4-.36,.58-.81,1.36-1.63,2.71-2.47,4.05-2.74,4.35-5.68,8.59-8.82,12.66-3.18,4.09-6.55,8.02-10.15,11.72-.67,.7-1.36,1.39-2.05,2.08h-.01s-.01,.03-.01,.03c0,0-.01,.01-.03,.03-.01,.01-.04,.04-.08,.08-.03,.03-.05,.05-.11,.09-.03,.03-.04,.05-.07,.07-.41,.37-1.08,1.01-1.32,1.22-2.09,1.88-4.23,3.72-6.46,5.46-20.92,16.5-45.59,24.14-72.02,24.91-.22,0-.45,.03-.66,.05-.66-36.67,3.23-73.12,12.16-108.84,1.48-5.89,3.1-11.75,4.91-17.54,1.22-3.89,1.06-3.43,2.17-6.5,.95-2.67,1.97-5.33,3.06-7.95,1.77-4.33,3.73-8.55,5.9-12.69,.15-.28,.26-.49,.34-.66-.21,.33-.3,.49-.34,.53,.05-.18,.98-1.77,.37-.58,.08-.12,.16-.26,.26-.44,.54-.91,1.1-1.83,1.68-2.72,1.16-1.77,2.39-3.49,3.73-5.13,.44-.52,3.02-3.16,2.29-2.58,.99-.89,2.04-1.71,3.16-2.39,3.61-2.22,7.99-3.2,11.95-4.66,12.67-4.68,25.35-9.75,38.82-11.64,6.27-.89,12.71-1.1,18.95,.13,7.01,1.4,11.77,5.48,17.11,9.94,2.1,1.77,4.46,3.27,6.99,4.47Z"/><path class="cls-1" d="M491.6,265.03c-.28,2.38-.57,4.76-.89,7.13-7.22,54.45-18.36,111.91-52.26,156.77-17.98,23.81-41.15,43.94-68.16,56.82-25.73,12.29-53.9,17.13-82.22,18.22-10.97,.42-21.93,.28-32.9,.28-28.99,.04-58.37,.64-86.59-7.01-32.41-8.8-61.94-29.29-85.06-53.26-20.57-21.33-36.36-47.19-45.11-75.08-8.72-27.74-11.72-52.58-16.42-81.32-1.23-7.51-2.28-15.03-3.14-22.54,24.25-1.07,48.42-7.93,68.56-21.72,18.59-12.75,33.31-30.35,44.47-49.78,20.69-36.03,31.17-77.58,35.51-118.69,.74-7,1.39-14.06,1.71-21.11,3.32-.62,6.58-1.6,9.9-2.35,24.42-5.5,49.72-5.42,74.62-5.42s50.41,.24,74.48,6.91c1.5,.42,3.4,1.11,5.48,1.71,1.77,22.76,6.03,45.47,12.11,67.41,12.08,43.71,32.66,87.91,69.36,116.25,21.93,16.95,49.03,25.63,76.56,26.82Z"/><path class="cls-1" d="M494.44,220.19c-.21-.03-.42-.04-.65-.05-23.91-.7-46.46-6.88-66.43-20.22-9.46-6.31-16.06-12.21-22.64-19.49-7.04-7.78-13.24-16.3-18.71-25.26-.62-1.02-1.23-2.06-1.85-3.1-.05-.09-.11-.17-.15-.24-.04-.07-.07-.12-.09-.16-.01-.03-.03-.04-.04-.07-.12-.24-.25-.46-.38-.7-1.23-2.28-2.45-4.56-3.61-6.87-2.3-4.56-4.45-9.21-6.44-13.9-1.94-4.6-3.76-9.26-5.45-13.96-.23-.62-.44-1.26-.66-1.88v.03c-.04-.11-.12-.32-.21-.64-.03-.05-.05-.12-.07-.19-.01-.07-.04-.13-.07-.21-.01-.04-.03-.09-.04-.13-.04-.12-.09-.25-.13-.4-.79-2.45-1.56-4.88-2.29-7.34-2.54-8.48-4.71-17.08-6.55-25.73-.38-1.79-.74-3.6-1.11-5.38,0-.03-.01-.04-.01-.07-.01-.09-.04-.21-.07-.36-.03-.11-.05-.21-.07-.33,0-.04-.01-.08-.03-.13,0-.03,0-.05-.01-.08-.01-.08-.03-.16-.04-.23-.03-.17-.05-.32-.07-.42-.58-3.39-1.15-6.79-1.64-10.2-.57-3.86-1.07-7.75-1.49-11.64,2.12-1.52,4.19-3.23,6.52-4.83,9.43-6.51,21.74-7.12,32.82-6.72,13.1,.48,26.09,2.9,38.78,6.06,7.77,1.92,17.77,3.36,24.41,8.14,.62,.44,1.19,.93,1.77,1.42,.05,.04,.11,.08,.15,.12,.08,.09,.19,.21,.32,.36,1.02,1.1,1.97,2.25,2.88,3.44,1.23,1.6,2.32,3.28,3.41,4.97,.11,.16,.86,1.48,1.06,1.8,.03,.04,.04,.05,.04,.07,.41,.74,.79,1.49,1.18,2.24,5.2,10.17,8.35,19.34,11.1,28.67,11.68,39.58,17.08,81.87,16.55,123.61Z"/><path d="M44.41,65.96s-.01,.03-.01,.04h-.01c-.21,.34-.3,.5-.34,.54,.05-.18,.98-1.77,.37-.58Z"/></g><g><path d="M372.01,364.07h0c-.01-.17-.01-.33-.03-.48-1.96-40.62-36.38-64.59-73.29-73.88-41.09-10.33-93.01-5.56-126.72,22.31-14.24,11.77-23.92,27.64-25.86,46.21-1.97,18.79,3.4,37.96,15.97,52.21,28.48,32.28,78.74,40.64,119.45,35.13,42.69-5.79,88.63-30.16,90.48-77.82v-.07c.03-.49,.04-.98,.05-1.47v-.21c-.01-.65-.03-1.3-.05-1.93Zm-30.67,30.89c-14,11.13-31.17,18.03-48.57,21.68-36.9,7.74-80.09,3.72-111.7-18.22-6.21-4.31-11.8-9.3-16.33-15.37-1.83-2.46-3.43-5-4.71-7.78-1.08-2.37-2.01-5.66-2.24-6.64-.5-2.36-.36-2.94-.09-4.59,.28-1.69,1.03-4.49,2.33-7.33,2.67-5.82,6.88-11.07,11.48-15.49,27.21-26.12,70.9-32.39,106.86-28.21,20.32,2.37,40.58,8.48,57.6,20.07,7.08,4.82,13.41,10.57,18.3,17.65,1.96,2.84,3.64,5.93,4.76,9.21,.26,.75,.81,2.9,.83,2.99,.24,1.19,.29,2.09,.3,3.07-.03,1.56-.11,2.74-.97,5.48-.67,2.18-2.01,5.07-3.35,7.34-3.68,6.24-8.86,11.66-14.53,16.14Z"/><path class="cls-1" d="M360.19,366c-.03,1.56-.11,2.74-.97,5.48-.67,2.18-2.01,5.07-3.35,7.34-3.68,6.24-8.86,11.66-14.53,16.14-14,11.13-31.17,18.03-48.57,21.68-36.9,7.74-80.09,3.72-111.7-18.22-6.21-4.31-11.8-9.3-16.33-15.37-1.83-2.46-3.43-5-4.71-7.78-1.08-2.37-2.01-5.66-2.24-6.64-.5-2.36-.36-2.94-.09-4.59,.28-1.69,1.03-4.49,2.33-7.33,2.67-5.82,6.88-11.07,11.48-15.49,27.21-26.12,70.9-32.39,106.86-28.21,20.32,2.37,40.58,8.48,57.6,20.07,7.08,4.82,13.41,10.57,18.3,17.65,1.96,2.84,3.64,5.93,4.76,9.21,.26,.75,.81,2.9,.83,2.99,.24,1.19,.29,2.09,.3,3.07Z"/><g><path d="M372.01,367.68c.03-.49,.04-.98,.05-1.47,0,.41-.01,.9-.05,1.47Z"/><path d="M372.07,366c-.01-.65-.03-1.3-.05-1.93,.05,.75,.07,1.42,.05,1.93Z"/></g></g><g><g><path d="M287.3,324.85c-18.02,0-22.74,28.07-22.7,41.15,.05,13.77,4.45,39.25,21.92,41.07,.01,0,.03,.01,.04,.01,.24,.01,.49,.04,.74,.05,.25-.01,.5-.04,.74-.05,.01-.01,.03-.01,.04-.01,17.44-1.81,21.91-27.27,21.91-41.07,0-13.07-4.64-41.15-22.69-41.15Zm0,59.79c-17.16-1.06-17.24-37.3,0-37.3s17.15,36.24,0,37.3Z"/><path class="cls-1" d="M287.3,384.64c-17.16-1.06-17.24-37.3,0-37.3s17.15,36.24,0,37.3Z"/></g><g><path class="cls-1" d="M230.45,384.64c-17.15-1.06-17.23-37.3,0-37.3s17.16,36.24,0,37.3Z"/><path d="M230.45,324.85c-18.01,0-22.73,28.07-22.69,41.15,.05,13.77,4.45,39.25,21.91,41.07,.01,0,.03,.01,.04,.01,.24,.01,.49,.04,.74,.05,.25-.01,.5-.04,.74-.05,.01-.01,.03-.01,.04-.01,17.45-1.81,21.92-27.27,21.92-41.07,0-13.07-4.66-41.15-22.7-41.15Zm0,59.79c-17.15-1.06-17.23-37.3,0-37.3s17.16,36.24,0,37.3Z"/></g></g><g><path d="M196.55,244.3c-.41,3.33-3.59,16.84-9.66,12.48-7.62-5.46-15.84-5.82-24-1.28-2.92,1.63-5.64,3.62-8.14,5.86,.23-.18-1.47,1.47-1.91,1.98-5.19,6.06-9.42-1.39-10.76-6.42-1.88-7.08-2.28-18.47,2.82-24.44,11.58-13.55,30.27-21.56,46.16-10.15,6.11,4.39,6.3,15.4,5.48,21.96Z"/><g><path d="M367.75,256.92c-1.32,4.95-5.66,12.37-10.76,6.42-.29-.34-.6-.69-.91-1.01-.22-.22-.44-.45-.65-.68,.19,.12-.46-.49-.54-.54,.03,.04,.11,.12,.25,.25,.08,.08,.15,.15,.21,.22-.07-.05-.17-.15-.32-.28-2.5-2.2-5.17-4.19-8.08-5.82-8.18-4.54-16.38-4.18-24,1.28-6.07,4.37-9.26-9.21-9.67-12.48-.83-6.69-.64-17.57,5.49-21.96,15.89-11.42,34.57-3.4,46.15,10.15,5.04,5.9,4.64,17.57,2.83,24.44Z"/><path d="M355.44,261.65s-.03-.03-.04-.04c0,0-.03-.01-.04-.03-.07-.08-.13-.15-.21-.22-.15-.13-.23-.21-.25-.25,.08,.05,.73,.66,.54,.54Z"/></g></g><path d="M501.6,123.24c-4.8-26.94-10.87-54.84-23.15-79.51-4.14-8.31-8.9-16.51-15.93-22.73-6.69-5.91-16.44-7.49-24.83-9.76-23.73-6.44-53.74-13.38-77.2-2.33-5.62,2.65-9.47,8.41-15.31,10.37-5.77,1.93-11.18-.49-16.64-2.02-10.56-2.96-21.49-4.5-32.37-5.52-28.1-2.62-57.6-2.57-85.76-.46-11.95,.9-23.97,2.34-35.59,5.37-6.07,1.59-12.14,2.77-18.35,.99-7.94-2.26-12.59-9.37-19.74-13-12.83-6.52-27.64-5.23-41.15-1.83-13.8,3.47-27.41,8.6-40.67,13.73-15.57,6.05-23.95,27.16-29.44,41.44-10.76,27.98-16.85,57.76-20.81,87.4C-.06,180.91-1.2,216.9,1.27,252.66c2.16,31.32,7.96,62.74,13.75,93.58,5.81,30.92,14.7,61.14,30.46,88.55,18.24,31.74,45.55,58.89,76.64,78.08,26.74,16.51,56.8,24.59,87.99,26.43,15,.89,30.03,.69,45.06,.67,26.16,0,52.23-.03,77.92-5.73,33.66-7.47,63.56-23.4,88.57-47.12,43.71-41.45,64.06-96.84,75.57-154.82,7.09-35.76,12.14-71.6,12.53-108.12,.37-33.74-2.25-67.72-8.16-100.94ZM15.85,220.19c-.66-36.67,3.23-73.12,12.16-108.84,1.48-5.89,3.1-11.75,4.91-17.54,1.22-3.89,1.06-3.43,2.17-6.5,.95-2.67,1.97-5.33,3.06-7.95,1.77-4.33,3.73-8.55,5.9-12.69,.15-.28,.26-.49,.34-.66-.21,.33-.3,.49-.34,.53,.05-.18,.98-1.77,.37-.58,.08-.12,.16-.26,.26-.44,.54-.91,1.1-1.83,1.68-2.72,1.16-1.77,2.39-3.49,3.73-5.13,.44-.52,3.02-3.16,2.29-2.58,.99-.89,2.04-1.71,3.16-2.39,3.61-2.22,7.99-3.2,11.95-4.66,12.67-4.68,25.35-9.75,38.82-11.64,6.27-.89,12.71-1.1,18.95,.13,7.01,1.4,11.77,5.48,17.11,9.94,2.1,1.77,4.46,3.27,6.99,4.47v.09c-.17,2.32-.34,4.63-.56,6.93-.61,6.8-1.44,13.59-2.46,20.35-.28,1.8-.56,3.6-.86,5.4-.15,.82-.28,1.63-.42,2.45-.89,4.21-1.69,8.41-2.66,12.61-1.06,4.52-2.22,9.02-3.49,13.49-.65,2.32-1.34,4.62-2.05,6.91-.33,1.07-.67,2.13-1.02,3.2-.08,.25-.17,.52-.25,.77-3.55,9.45-7.18,18.79-11.77,27.8-.86,1.71-1.77,3.39-2.67,5.05,0,0-.01,.04-.03,.05,0,.03-.03,.05-.04,.08-.05,.08-.08,.15-.12,.21-.05,.08-.11,.18-.17,.32-.01,.03-.03,.05-.05,.08-.01,.04-.04,.09-.08,.15t.03-.03s-.05,.08-.08,.13c-.04,.07-.07,.13-.11,.2-.12,.2-.24,.4-.36,.58-.81,1.36-1.63,2.71-2.47,4.05-2.74,4.35-5.68,8.59-8.82,12.66-3.18,4.09-6.55,8.02-10.15,11.72-.67,.7-1.36,1.39-2.05,2.08h-.01s-.01,.03-.01,.03c0,0-.01,.01-.03,.03-.01,.01-.04,.04-.08,.08-.03,.03-.05,.05-.11,.09-.03,.03-.04,.05-.07,.07-.41,.37-1.08,1.01-1.32,1.22-2.09,1.88-4.23,3.72-6.46,5.46-20.92,16.5-45.59,24.14-72.02,24.91-.22,0-.45,.03-.66,.05Zm474.86,51.97c-7.22,54.45-18.36,111.91-52.26,156.77-17.98,23.81-41.15,43.94-68.16,56.82-25.73,12.29-53.9,17.13-82.22,18.22-10.97,.42-21.93,.28-32.9,.28-28.99,.04-58.37,.64-86.59-7.01-32.41-8.8-61.94-29.29-85.06-53.26-20.57-21.33-36.36-47.19-45.11-75.08-8.72-27.74-11.72-52.58-16.42-81.32-1.23-7.51-2.28-15.03-3.14-22.54,24.25-1.07,48.42-7.93,68.56-21.72,18.59-12.75,33.31-30.35,44.47-49.78,20.69-36.03,31.17-77.58,35.51-118.69,.74-7,1.39-14.06,1.71-21.11,3.32-.62,6.58-1.6,9.9-2.35,24.42-5.5,49.72-5.42,74.62-5.42s50.41,.24,74.48,6.91c1.5,.42,3.4,1.11,5.48,1.71,1.77,22.76,6.03,45.47,12.11,67.41,12.08,43.71,32.66,87.91,69.36,116.25,21.93,16.95,49.03,25.63,76.56,26.82-.28,2.38-.57,4.76-.89,7.13Zm3.73-51.97c-.21-.03-.42-.04-.65-.05-23.91-.7-46.46-6.88-66.43-20.22-9.46-6.31-16.06-12.21-22.64-19.49-7.04-7.78-13.24-16.3-18.71-25.26-.62-1.02-1.23-2.06-1.85-3.1-.05-.09-.11-.17-.15-.24-.04-.07-.07-.12-.09-.16-.01-.03-.03-.04-.04-.07-.12-.24-.25-.46-.38-.7-1.23-2.28-2.45-4.56-3.61-6.87-2.3-4.56-4.45-9.21-6.44-13.9-1.94-4.6-3.76-9.26-5.45-13.96-.23-.62-.44-1.26-.66-1.88v.03c-.04-.11-.12-.32-.21-.64-.03-.05-.05-.12-.07-.19-.01-.07-.04-.13-.07-.21-.01-.04-.03-.09-.04-.13-.04-.12-.09-.25-.13-.4-.79-2.45-1.56-4.88-2.29-7.34-2.54-8.48-4.71-17.08-6.55-25.73-.38-1.79-.74-3.6-1.11-5.38,0-.03-.01-.04-.01-.07-.01-.09-.04-.21-.07-.36-.03-.11-.05-.21-.07-.33,0-.04-.01-.08-.03-.13,0-.03,0-.05-.01-.08-.01-.08-.03-.16-.04-.23-.03-.17-.05-.32-.07-.42-.58-3.39-1.15-6.79-1.64-10.2-.57-3.86-1.07-7.75-1.49-11.64,2.12-1.52,4.19-3.23,6.52-4.83,9.43-6.51,21.74-7.12,32.82-6.72,13.1,.48,26.09,2.9,38.78,6.06,7.77,1.92,17.77,3.36,24.41,8.14,.62,.44,1.19,.93,1.77,1.42,.05,.04,.11,.08,.15,.12,.08,.09,.19,.21,.32,.36,1.02,1.1,1.97,2.25,2.88,3.44,1.23,1.6,2.32,3.28,3.41,4.97,.11,.16,.86,1.48,1.06,1.8,.03,.04,.04,.05,.04,.07,.41,.74,.79,1.49,1.18,2.24,5.2,10.17,8.35,19.34,11.1,28.67,11.68,39.58,17.08,81.87,16.55,123.61Z"/></g></g></svg>